<svg xmlns="http://www.w3.org/2000/svg" viewBox="0 0 154.27 172.36"><defs><style>.cls-1,.cls-2{fill:#fff;}.cls-1{stroke:#fff;stroke-miterlimit:10;stroke-width:0.63px;}.cls-3{fill:#ccd2d3;}.cls-4{fill:#322e2b;}.cls-5{fill:#e1194e;}.cls-6{fill:#ed6d91;opacity:0.7;}.cls-7{fill:#b61037;}.cls-8{fill:#f192b0;opacity:0.8;}</style></defs><g id="Capa_2" data-name="Capa 2"><g id="Layer_1" data-name="Layer 1"><path class="cls-1" d="M135.42,99.49a35.06,35.06,0,0,0-9.69-22.9,96.67,96.67,0,0,0,1.52-16.15c1.51-20,3.86-29,6-33.92s5.48-10.73,6.08-12.07-.14-1.23-1.13-.09a30.61,30.61,0,0,1-3.62,3S135.64,6.56,136,3.24s-1.23-3.51-1.52-2.09-2.72,8-9.69,15.87S100.55,41.81,93.71,46.19A24.2,24.2,0,0,0,84.49,57.4c-6.75-1.87-7-8.84-7.12-10.36S77.2,42.94,76,43s-1.17.44-1.33,2a26.74,26.74,0,0,1-1.62,4.94s-.37-.73-1.14-2.19-1.52.48-1.52.48-1.1,7.23-2.66,9.12-5.32-1.9-5.32-1.9c-9.09-7.75-14-10.4-27.65-17.57S5.16,7.33,5.16,7.33,1.91.74,2.88,7,9.34,24.43,9.34,24.43C7.87,23.62,6.61,22,5.26,19.58s-1.81-1.33-1.81-1.33c.78,5.2,4.61,14.43,11.78,27.84s7.05,28.27,8.27,33.07a10.46,10.46,0,0,0,2.22,4.55A25.42,25.42,0,0,0,21.5,97.78c0,.71,0,1.41.09,2.11l-.85-1.73C5.93,118.14.35,139.7.31,141.29s1.05.28,1.05.28l7-6.93c-1.66,12,.64,20.21,2.57,23.18s2.37.19,2.37.19c.81-9.29,6.94-11.3,6.94-11.3s.21.38.56.95c-1.5,1.88-2.27,3-2.27,3q1.2-1.47,2.4-2.82a17.56,17.56,0,0,0,3,3.86c1.69,1.37,5.11,5.43,5.8,7.22s1.33.57,1.33.57c-1.87-5.11.38-8.17.38-8.17s1.82,1.74,3.13,2.76,1.24-.29,1.24-.29c-2.37-3-1.05-5.51-1.05-5.51,2.56,2,4.89,3.68,7,5.13-.25.5-.36.76-.36.76.12-.25.26-.49.39-.74,9.57,6.55,14.94,8.24,17.75,9.77,3.44,1.86.45,5.79-.38,5.79s-1.28,1.57,0,1.53a36.47,36.47,0,0,0,4.75-1,11.73,11.73,0,0,1-.57,1.05c-.56,1,.38,1.33.38,1.33,1-1.55,3.32-2.61,4.94-3.14a21.9,21.9,0,0,0,3.71-1.8l-.38,1.42.66.38a26.69,26.69,0,0,1,3.52-2.75c2.41-1.65,3.13-1.24,3.13-1.24a10.67,10.67,0,0,1-1.71,5.32c-1.15,1.87.76,1.43.76,1.43,5.24-6.22,13.48-10.11,22.43-13.49a53,53,0,0,0,9.51-5c2.2,2.75,4.57,5.79,7.11,9.15,0,0-2.9-3.92-7-9.24,2.73-1.76,5.06-3.51,6.61-4.72l3.17,2.73a5.44,5.44,0,0,1-1.28,3.15c-1.06.89.29,1.42.29,1.42a12.62,12.62,0,0,0,3-2.84c2.54,2.15,4.19,3.51,4.19,3.51l-4-3.72a23.32,23.32,0,0,0,3.45-6.63c3.13,2.09,4.47,9.37,4,11.3s1.33,1.52,1.33,1.52c2.46-3.08,3.95-7.57,4.83-11.52l1.91,1.17c-.52-.43-1.14-.89-1.85-1.39a58.41,58.41,0,0,0,1.19-8.21c8.79,3.36,13.4,10.87,13.78,12.83s1.52.76,1.52.76a56.59,56.59,0,0,0-3.33-21.76,29,29,0,0,1,3,2.66c1.28,1.34,1.62,0,1.62,0-9-23.11-18.53-33.82-18.53-33.82"/><path class="cls-2" d="M63.47,61.1l-4.29-6.75-6.58-6.3-9.27-2.62L27.64,40.86l-9.27-8.1-8.76-5.4L13,38.16l3.72,11.58,4.73,6.33.31,12.6,4,10.72s.73,2.92.86,3.3a19.4,19.4,0,0,1-.86,3.46S24,90.28,24,90.66s-1,3.42-1,4-.5,5.44-.5,5.44l-2.41,3-6.83,8.35-4.3,10.92-3.8,8.69,1.77,1.65,3-1.4s-.25,7.85-.12,8.23S9.43,151,9.43,151l1.39,3.55,6.2-8.23,3.41-3s.63,6.78,1.77,6.87,3,1.73,3,1.73l3.67,2.66,2.15-4.94,1.51-3.41.64-1,10.37,9.37s7.59,1.89,8.35,2.4,7,3.67,7.46,4.17,3.61,3.42,4.08,4.56,3.9,1.89,3.9,1.89l4.75-.53,5.24-2.88,2.78-.88.66,3.28,8.32-4.8,11.27-4.3,8.34-5.57,6.07-4.3s5.07-5.06,5.45-4.68,6.07.63,6.07.63,4.68,5.57,4.81,6.07,1,2.53,1.26,2.15,2.66-7.71,2.66-7.71.5-4.18.63-4.56a26.15,26.15,0,0,0,0-3.08l8,4s3.29,3.54,3.41,3.92,3.42,4.17,3.42,4.17l-.89-8.47s-.75-4.69-.75-5.19-1.4-4.68-1.4-4.68l-.63-1.9,3.67,1.65-.63-3.29-3.29-7.09-3.79-7.08-5.07-6.33-4.42-5.18-1.52-11.26-3.92-6.33-4.18-5.44s.26-7.34.51-7.72,2-11.76,2-11.76l.38-10.12,1.9-9.74,1.9-12.27L124,24.87s-15.43,12.65-15.56,13.41-13.41,8.23-13.41,8.61S89.51,51.69,89,53s-5.06,5.82-5.06,5.82l-3.8-2.15-3.32-4.05s-1.23-4.68-1.1-4.3-2,3.29-2.16,3.67-1.39.63-1.64,1.14S70,54.48,70,55,67.24,59,67,59.54s-2.15.38-2.15.38Z"/><path class="cls-3" d="M83,66.12c7.64,1.6,4-4.21,4-4.21a18.75,18.75,0,0,1,3.8-8.42L86,57.69l-3.51,3.05-6.32-8.2s-.85,12,6.78,13.58m26.47,6.56a18.44,18.44,0,0,0,5.15-10.3s6.62-17.72,9.61-20.38,4.91-12.18,4.91-12.18l-19.67,9.37S98.25,58.93,100.31,65s-.15,9.88,9.14,7.73m7.26-32.32a15.7,15.7,0,0,1,8-2.81c1.72,2-2.91,1.94-5.15,9.37-1.54,2.3-5.28,18-10.31,12.18s3.7-16,7.5-18.74M90.77,53.49l3.46-3.06a14.56,14.56,0,0,0-3.46,3.06m56.62,84.76c-.93-.77-8.59-6.16-15-4.68L138,138s11.47,6.64,12.88,10.07-2.34-10.77-2.34-10.77-.24,1.71-1.17.93m-32.55-92.5s-3,5.68-1.65,10.3c0,0,1.86-10.11,6.8-16.39a18.47,18.47,0,0,0-9.37,13.11s2.62-5.76,4.22-7m37.47,85.71-2.35-4-3.51-7.73s.93,3.56-.94,3-5.62-1.41-5.62-1.41l7.5,7Zm-20.38,11.48c-1.87-2.09-6.36-4.2-8.66-3.75s-5.15-1.87-5.15-1.87a78.82,78.82,0,0,1-7.32,7.6L97.43,131.17l4.26-2.5,14.55,8.41-13.51-9,1.81-1,19,9.36-16.94-9.68c13.87,0,23.61-5.37,26.31-21.7,0,0-9.28,22.8-30.21,18.73l-7.26-2.1s-11-4.1-13.12-15.7l-3-2.34H71.51l-2.58,5.86-3.74,3.28s-9.81,9.89-20.38,8.66S24.12,107.7,22.56,104.76c0,0,.5,15.09,13.12,19.21a42.92,42.92,0,0,0,7.55,1.77,159.57,159.57,0,0,0-17.15,8.54s12.73-6.1,20.32-8.24l.79,0h0l1.48,1C36.9,132.68,28,141.3,24.6,145a48.63,48.63,0,0,1-3.21-6.7,13.78,13.78,0,0,0-6.79,5.16c-2.44,3.8-.94-15.23-.94-15.23L9.92,141.06l.7,10.31,2.58-1.64,7-5.15,4.45,6.32,4,2.81.94-4-.7-8.43s-1,6.49-2.81,5.39A5.46,5.46,0,0,1,24.62,145c8.32-8.48,21.94-16,24.64-17.48.91.6,2.06,1.35,3.36,2.15-2.44,2.09-11.39,9.82-15.46,14.31-1.78-1.17-2.89-2-2.89-2v2.34l10.78,10.31L58.16,160l6.56,7.73,6.09-.7L74.32,165l7.49-1.87-.23,3.75,7.73-4.69,17.56-7.73,12.42-10.77,7.49,1.41,6.09,8.19s3.44-8.48,1.4-11c0,0-.47,2.79-2.34.71M50.11,126a24.11,24.11,0,0,0,18.82-10.93s1.13-4.69,2.35-5.39,7-3.44,8.66-.47,6.07,16.22,22.25,17.34l1,.06L96.29,130l-2.3-2.3-1.17-.47,2.73,3.14-3.44,1.69-2.33-3-1.41.24,2.71,3.23L88.14,134l-4.45.24L79,131.23H74.79l-4.21,1.4-3.28.71-6.42-2.74c1-1.86,2.53-5-1.24-.53Zm45.76,27.71c-10.18,1.59-10.78,2.11-10.78,2.11l-.93-3.75s-2.24,4.53-3.75,5.39S79,155.35,79,155.35s-2.9,3.93-5.61,5.15v-3l-6.09,4.68A23.45,23.45,0,0,0,54.65,153a54.93,54.93,0,0,1-8.84-3.89c.11-.18.24-.39.4-.62-.14.21-.28.41-.41.62-3.35-1.79-6.45-3.73-8.59-5.13,2.35-2.28,11.08-10.61,16.31-13.78,1.28.77,2.67,1.59,4.09,2.36-5.54,7-9.66,13.21-11.4,15.93,3.49-5.25,9.81-12.23,12.63-15.28,3.11,1.62,6.22,2.93,8.46,3.16,0,0,3,.36,4.91-1.41s5.7-1.27,7.26-.23,4.42,4.64,8.43,2.11c1-.63,2.61-1.6,4.48-2.71l12.83,15.29a23.63,23.63,0,0,1-9.34,4.28m9.43-4.34-12-15.76,3.45-2,14,13.43a57.84,57.84,0,0,1-5.41,4.36M33.1,62.61C35.88,63,38.72,68,38.72,68s2.14,5.54,5.16,4.91.94-5.14.46-9.83S30.29,44.34,30.29,44.34L11.79,30.52s-.41.25,4,8.67S30.32,62.26,33.1,62.61m-14-21.78s13.85,8.52,18.27,15-2.13,3.57-7.73,0S18.64,45,17.41,41.53s1.64-.7,1.64-.7m44.5,23.42a27.6,27.6,0,0,1-1.17,3.28s5.45-4.36,4.45-5.62-8.2-7.26-8.2-7.26,5.42,7.83,4.92,9.6M22.09,44.58a5.05,5.05,0,0,1,.58.36c-.37-.24-.58-.36-.58-.36m8.44,9.6a5.71,5.71,0,0,0-.94-3c1.72.4,5.62,4.92,5.62,4.92C33.82,52.27,25,46.43,22.67,44.94c3.82,2.59,7.86,9.24,7.86,9.24"/><path class="cls-4" d="M81.55,111.84H79.36s-.42-.36-.38-.67l-4-.38,2.85-1.9-.85-.57-3.52,2.28s-.82.85.86,1a18.16,18.16,0,0,1,2.85.38l-4.37.76.47-.76a22,22,0,0,1-4.94.95,2.09,2.09,0,0,0,1.71,1.05c1.1,0,12-1.62,12-1.62l-2.09-.09Z"/><path class="cls-4" d="M135.42,99.49a35.06,35.06,0,0,0-9.69-22.9,96.67,96.67,0,0,0,1.52-16.15c1.51-20,3.86-29,6-33.92s5.48-10.73,6.08-12.07-.14-1.23-1.13-.09a30.61,30.61,0,0,1-3.62,3S135.64,6.56,136,3.24s-1.23-3.51-1.52-2.09-2.72,8-9.69,15.87S100.55,41.81,93.71,46.19A24.2,24.2,0,0,0,84.49,57.4c-6.75-1.87-7-8.84-7.12-10.36S77.2,42.94,76,43s-1.17.44-1.33,2a26.74,26.74,0,0,1-1.62,4.94s-.37-.73-1.14-2.19-1.52.48-1.52.48-1.1,7.23-2.66,9.12-5.32-1.9-5.32-1.9c-9.09-7.75-14-10.4-27.65-17.57S5.16,7.33,5.16,7.33,1.91.74,2.88,7,9.34,24.43,9.34,24.43C7.87,23.62,6.61,22,5.26,19.58s-1.81-1.33-1.81-1.33c.78,5.2,4.61,14.43,11.78,27.84s7.05,28.27,8.27,33.07a10.46,10.46,0,0,0,2.22,4.55A25.42,25.42,0,0,0,21.5,97.78c0,.71,0,1.41.09,2.11l-.85-1.73C5.93,118.14.35,139.7.31,141.29s1.05.28,1.05.28l7-6.93c-1.66,12,.64,20.21,2.57,23.18s2.37.19,2.37.19c.81-9.29,6.94-11.3,6.94-11.3s.21.38.56.95c-1.5,1.88-2.27,3-2.27,3q1.2-1.47,2.4-2.82a17.56,17.56,0,0,0,3,3.86c1.69,1.37,5.11,5.43,5.8,7.22s1.33.57,1.33.57c-1.87-5.11.38-8.17.38-8.17s1.82,1.74,3.13,2.76,1.24-.29,1.24-.29c-2.37-3-1.05-5.51-1.05-5.51,2.56,2,4.89,3.68,7,5.13-.25.5-.36.76-.36.76.12-.25.26-.49.39-.74,9.57,6.55,14.94,8.24,17.75,9.77,3.44,1.86.45,5.79-.38,5.79s-1.28,1.57,0,1.53a36.47,36.47,0,0,0,4.75-1,11.73,11.73,0,0,1-.57,1.05c-.56,1,.38,1.33.38,1.33,1-1.55,3.32-2.61,4.94-3.14a21.9,21.9,0,0,0,3.71-1.8l-.38,1.42.66.38a26.69,26.69,0,0,1,3.52-2.75c2.41-1.65,3.13-1.24,3.13-1.24a10.67,10.67,0,0,1-1.71,5.32c-1.15,1.87.76,1.43.76,1.43,5.24-6.22,13.48-10.11,22.43-13.49a53,53,0,0,0,9.51-5c2.2,2.75,4.57,5.79,7.11,9.15,0,0-2.9-3.92-7-9.24,2.73-1.76,5.06-3.51,6.61-4.72l3.17,2.73a5.44,5.44,0,0,1-1.28,3.15c-1.06.89.29,1.42.29,1.42a12.62,12.62,0,0,0,3-2.84c2.54,2.15,4.19,3.51,4.19,3.51l-4-3.72a23.32,23.32,0,0,0,3.45-6.63c3.13,2.09,4.47,9.37,4,11.3s1.33,1.52,1.33,1.52c2.46-3.08,3.95-7.57,4.83-11.52l1.91,1.17c-.52-.43-1.14-.89-1.85-1.39a58.41,58.41,0,0,0,1.19-8.21c8.79,3.36,13.4,10.87,13.78,12.83s1.52.76,1.52.76a56.59,56.59,0,0,0-3.33-21.76,29,29,0,0,1,3,2.66c1.28,1.34,1.62,0,1.62,0C145,110.2,135.42,99.49,135.42,99.49Zm-39.34,30.1c-1.1.58-2.19,1.14-3.21,1.64-1.21-1.37-2.33-2.59-3.34-3.62,0,0-.59,1.54-1.52.28,0,0-1.38.17-.29.86a31.33,31.33,0,0,1,3.73,3.16,14.1,14.1,0,0,1-3.53,1.3c-2.65.21-5,0-6.66-1.23s-4.41-3.34-2.66-4.66,5.34-4.22,6.46-7.12,1.17-4.46-2.47-5.13-10.83.76-10.83.76-3.7,1.53-2.47,3.32a24,24,0,0,0,5.32,6.94,1.88,1.88,0,0,1,.77,2,3.73,3.73,0,0,1-2.29,2.18c-1.15.56-5.79,2.28-5.79,2.28a4.79,4.79,0,0,1-2.19-.38c-.56-.23-2.47-1.07-5.25-2.35.92-.89,1.45-1.36,1.45-1.36-.77.12-2-.85-2-.85L58.17,129l-3.06-1.43c1.56-1,2.5-1.43,2.5-1.43s-1.74.24-1.62-.47-1.42.09-1.42.09l-1.23,1-2.55-1.22c1.09-.43,1.68-.61,1.68-.61-1.13-.89,1.34-2.19,1.34-2.19l-.26-.26a25.62,25.62,0,0,0,16.7-14l.18-.29c2.64-4.33,5.06-3.57,7.6-3.61,1.57,0,3.11,1.63,4.07,2.91a26.82,26.82,0,0,0,16.27,16.6c-.28,0-.5,0-.29.25.43.54-.1,1.33-.1,1.33l2.71,1.38c-1.11.62-2.34,1.29-3.61,2l-1.57-1.45s-2.2-1.65-2.18-2.28-.76,1.9-.76,1.9A18.13,18.13,0,0,1,96.08,129.59ZM76.42,117.92a32,32,0,0,1,4.75-.76c1.5,0,2.55.51,2.09,2a5.27,5.27,0,0,1-2.37,2.47C80.8,118.19,76.42,117.92,76.42,117.92Zm-29.07,1s1,.65-1,.67c-1.42,0-12.31-1.13-16.93-10.78a21.51,21.51,0,0,0,16.63,9.89C46.51,118.82,46.92,118.9,47.35,119ZM40.89,76.4c-2.58,0-7.61,3.52-7.61,3.52l5.13-4.38c9.29-4.32,18.44.29,18.44.29,1.06,1.57,7.6,6.08,7.6,6.08-.58-.83-5.7-5-5.7-5s10.34,5.76,12.06,16.25-3.13,17-3.13,17c6.36-15-2-25.56-2-25.56a25.15,25.15,0,0,0-14.53-9.12,20.15,20.15,0,0,0-5.31.36,24.24,24.24,0,0,0-2.73.39A18.88,18.88,0,0,1,40.89,76.4Zm52.72,2.37c1-.5,2-.94,3-1.34A22.9,22.9,0,0,0,94,79,4,4,0,0,0,93.61,78.77ZM119,77.66l0,0,0,0a23.55,23.55,0,0,0-8.85-2.75A18.49,18.49,0,0,1,119,77.64a4.54,4.54,0,0,1,.52.3ZM85.57,89.36c-8.8,17.11,6.81,30.17,6.81,30.17C78.79,108.84,82.12,95.12,82.12,95.12c4.19-13.19,10.26-15.59,10.26-15.59l.54.24A23.82,23.82,0,0,0,85.57,89.36Zm13.66,35.06a26.69,26.69,0,0,0,4.41,1l-1.62.91Zm20.13-87.64c7.42-2.41,10-6.65,10-6.65s-1,4.87-2.28,9.12S125,55.5,124.59,59.87,123.17,69,122,70.13a16.73,16.73,0,0,0-1.33,1.33,1.39,1.39,0,0,1,1.71.09,15.43,15.43,0,0,0-.49,4.92,26.59,26.59,0,0,0-11.78-4.12c3.82-3.62,5.34-11.53,5.34-11.53-2,5.56-3.57,9.71-6.79,11.43-.41,0-.82,0-1.24,0a27.11,27.11,0,0,0-4,.29c-3.29-2.16-3.94-10-.66-18.15C106.8,44.51,112,39.18,119.36,36.78ZM43.07,47.9a8.28,8.28,0,0,0,3,2.66c1.53.52,6.08,4.37,6.08,4.37l-5.13-6.37C60.45,55.13,62.69,59.75,63.78,61.1a3.9,3.9,0,0,0,3.14,1.14c-1.38,2.73-5.13,5.61-5.13,5.61s1.69-.13,4-2.38,5.32-8.55,5.32-8.55,0,2.11.09,4.37,1.33-.09,1.33-.09l3.42-9.6C78,63.79,83.25,64.55,84.69,64.33s.66-2.47.66-2.47c2.7-6.56,10-11.78,10-11.78a14.4,14.4,0,0,1-1,2A2.92,2.92,0,0,0,94,54.55s6.76-8.26,9.21-9.22S104.73,47,104.73,47c-3.78,7.53-4.65,11.11-4.65,11.11-1.66,7.77-.51,12.54,1.79,14.74a26.76,26.76,0,0,0-14.69,8.71c-3.43,3.55-5.82,9.36-6.87,12S75.55,95,74.42,94.83c-.79-.12-2.11-2.69-2.82-4.22A25.56,25.56,0,0,0,47.06,72.22l-1,0c0-.07.05-.14.07-.21,1.69-5.41-1.87-13-5.51-17.29a117,117,0,0,1-7.32-10A33.15,33.15,0,0,1,43.07,47.9Zm-23.18,2c-1.12-3.78-7.22-17.57-7.22-17.57s11.84,9.89,16.72,13.39A46.34,46.34,0,0,1,42.69,60c3.38,6,2.8,11.79,1,12.07s-3.2-1.26-4.56-4-5.69-5.13-5.69-5.13c4.7,3.84,5.88,7.22,5.88,7.22a16.84,16.84,0,0,0,2.35,2.65,25.52,25.52,0,0,0-13.33,7.56l0,0C25.15,67.09,21,53.67,19.89,49.89Zm8.74,34.87A10,10,0,0,1,27,88.85c-1.16,1.31-2.37,5-2.37,5A24.42,24.42,0,0,1,28.63,84.76ZM23.39,144.6a32.48,32.48,0,0,1-1.6-4.07c-.45-1.73-1.62-.86-1.62-.86-3,2.77-7.79,9.6-7.79,9.6-1-9.18,1.76-22.21,2.57-24.8s-1.14-1.23-1.14-1.23l-6,5.89a72.54,72.54,0,0,1,14.27-25.9,25.57,25.57,0,0,0,23,20l-.4.14-.37,0,.16.12-1.59.54c-16.55,5.68-20.52,10.73-20.52,10.73,6.14-5.49,21.46-9.3,22.9-9.78s1.52.66,1.52.66A88.87,88.87,0,0,0,23.39,144.6Zm11-2a5.12,5.12,0,0,0-3.23-1.24S29.76,146,29.77,144s-1.54-3.89-1.05-2.47-.37,4.4-1,6.27a8.14,8.14,0,0,0-.19,4A30.1,30.1,0,0,1,23.57,145c10.33-10.85,20-16.25,25.16-18.58.86.56,1.82,1.16,2.85,1.78-9,7.5-13.81,13.2-15.7,15.69C35.19,143.3,34.69,142.84,34.42,142.62ZM36,144a78.49,78.49,0,0,1,17-15c.41.24.83.48,1.27.71L56.61,131a144.83,144.83,0,0,0-13.06,19.17C40.35,147.8,37.62,145.45,36,144ZM92.57,158.2c-4.31,1.56-10,6.65-10,6.65.84-1.77-.38-5-.38-5s-4.91,3.3-5.6,3.32.67-2.47.67-2.47-.89.74-2,1.52-5.89,4.28-5.89,4.28a27.39,27.39,0,0,0,1.9-3.61c.63-1.6-.42-.76-2,0a20.79,20.79,0,0,0-3.61,2.56s-2.1-5.43-11-8.83a50.18,50.18,0,0,1-11-6.34A102.2,102.2,0,0,1,58,131.7c4.58,2.34,9.12,4.23,11,3,2.45-1.52,4.63-2.59,5.51-2.56s3.61,0,3.61,0a3.25,3.25,0,0,1,1.61.67,39.07,39.07,0,0,1,3.71,2.47,4.3,4.3,0,0,0,3.52.85c.34-.14,2.75-1.4,5.79-3a207.57,207.57,0,0,1,15,16.78A51.81,51.81,0,0,1,92.57,158.2ZM108,149.79c-4.4-5.68-9.6-12.23-14-17.27l3.46-1.83c1.78,1.46,4.13,3.52,7.19,6.42,2.74,2.61,5.77,5.35,8.68,7.92A61.67,61.67,0,0,1,108,149.79Zm12.35.79-2.8-2.59c1-.79,1.57-1.28,1.57-1.28A5,5,0,0,1,120.31,150.58Zm12.74-1.5a21.68,21.68,0,0,0-2.5-5.19l3.22,2A26.13,26.13,0,0,1,133.05,149.08Zm6.46-27.36c9.36,8.46,10.26,23.28,10.26,23.28-5.76-8.83-15.7-11.52-16.92-11.5s.38,1.71.38,1.71a22.29,22.29,0,0,1,.6,10.28c-1.17-.76-2.47-1.56-3.86-2.39a7.93,7.93,0,0,0-5.86-3.42c-1.83-1-3.73-2.09-5.62-3.13l5.13,3.12h-.27c-1.3,0-.57,2.48-.57,2.48a15.22,15.22,0,0,1-2.37-2.48c-.57-.93-2.09-.18-2.09-.18-1.52,1.86-3,3.54-4.52,5.06L98.34,130.22l4.15-2.2c3.93,2,9.94,5.2,16,8.53L104,127.7l-.38-.26,2-1.07,21,10.17s-13.5-6.83-20.29-10.54l.57-.3h.58a26.75,26.75,0,0,0,26.4-22.43l.25.58c9.81,9.48,15.87,24.23,15.87,24.23C144.47,122.34,139.51,121.72,139.51,121.72Z"/><path class="cls-5" d="M47.62,75.72A21.55,21.55,0,1,0,69.17,97.27,21.54,21.54,0,0,0,47.62,75.72m60-1a23.86,23.86,0,1,0,23.86,23.86,23.85,23.85,0,0,0-23.86-23.86"/><path class="cls-6" d="M126.5,86.65A21,21,0,0,0,95.24,81.5c9-4,20.14-.3,25.89,9,5.19,8.38,4.35,18.7-1.44,25.27l0,0a21.13,21.13,0,0,0,6.77-29.07M29.84,87.87a19.94,19.94,0,0,0,8.74,26.86,22.47,22.47,0,0,0,2.43,1c-7.64-5.35-10.13-16.19-5.44-25.41,4.25-8.34,13-12.72,21.2-11.26l0,0a20,20,0,0,0-26.89,8.79"/><path class="cls-7" d="M58.67,80.69a18,18,0,0,0-2.36-1c7.41,5.2,9.83,15.73,5.27,24.68C57.47,112.46,49,116.72,41,115.3l0,0a19.42,19.42,0,0,0,17.6-34.63m38.09,29.19c-7.41-7-9.28-17.54-5.24-25.64,0,0,0,0,0,0a21.81,21.81,0,0,0,31.7,30A21.33,21.33,0,0,0,125,112c-8,6.35-20.06,5.63-28.27-2.12"/><path class="cls-8" d="M50,78.92a1,1,0,1,0,1.05,1,1,1,0,0,0-1.05-1m0,3a1,1,0,1,0,1.05,1,1,1,0,0,0-1.05-1M53,115a1,1,0,0,0-1,1,1.06,1.06,0,0,0,.47.87c.52-.13,1-.28,1.55-.45a1.16,1.16,0,0,0,.08-.42A1,1,0,0,0,53,115m0-3a1,1,0,1,0,1.05,1A1,1,0,0,0,53,112M50,91.15a1,1,0,1,0,1.05,1,1,1,0,0,0-1.05-1m3,17.9a1,1,0,1,0,1.05,1,1,1,0,0,0-1.05-1M50,87.87a1,1,0,1,0,1.05,1,1,1,0,0,0-1.05-1m0,6.26a1,1,0,1,0,1.05,1.05A1,1,0,0,0,50,94.13m0-9.24a1,1,0,1,0,1.05,1,1,1,0,0,0-1.05-1m3,0a1,1,0,1,0,1.05,1,1,1,0,0,0-1.05-1m0,6.26a1,1,0,1,0,1.05,1,1,1,0,0,0-1.05-1m0,14.92a1,1,0,1,0,1.05,1,1,1,0,0,0-1.05-1m0-18.2a1,1,0,1,0,1.05,1,1,1,0,0,0-1.05-1m0-6a1,1,0,1,0,1.05,1,1,1,0,0,0-1.05-1M50,97.12a1,1,0,1,0,1.05,1,1,1,0,0,0-1.05-1m3,3a1,1,0,1,0,1.05,1,1,1,0,0,0-1.05-1m0,3a1,1,0,1,0,1.05,1,1,1,0,0,0-1.05-1m0-9a1,1,0,1,0,1.05,1.05A1,1,0,0,0,53,94.13m0-15.21a1,1,0,1,0,1.05,1,1,1,0,0,0-1.05-1m0,18.2a1,1,0,1,0,1.05,1,1,1,0,0,0-1.05-1m-6,0a1,1,0,1,0,1,1,1,1,0,0,0-1-1m0,6a1,1,0,1,0,1,1,1,1,0,0,0-1-1m0-11.93a1,1,0,1,0,1,1,1,1,0,0,0-1-1m0,3a1,1,0,1,0,1,1.05,1,1,0,0,0-1-1.05m0,6a1,1,0,1,0,1,1,1,1,0,0,0-1-1M47,115a1,1,0,1,0,1,1,1,1,0,0,0-1-1m0-3a1,1,0,1,0,1,1,1,1,0,0,0-1-1m0-6a1,1,0,1,0,1,1,1,1,0,0,0-1-1m0,3a1,1,0,1,0,1,1,1,1,0,0,0-1-1m3-9a1,1,0,1,0,1.05,1,1,1,0,0,0-1.05-1m0,9a1,1,0,1,0,1.05,1,1,1,0,0,0-1.05-1m0,3a1,1,0,1,0,1.05,1A1,1,0,0,0,50,112M47,87.87a1,1,0,1,0,1,1,1,1,0,0,0-1-1m3,15.21a1,1,0,1,0,1.05,1,1,1,0,0,0-1.05-1m0,3a1,1,0,1,0,1.05,1,1,1,0,0,0-1.05-1M47,84.89a1,1,0,1,0,1,1,1,1,0,0,0-1-1m0-3a1,1,0,1,0,1,1,1,1,0,0,0-1-1M50,115a1,1,0,1,0,1.05,1A1,1,0,0,0,50,115m-3-36.1a1,1,0,1,0,1,1,1,1,0,0,0-1-1m9,9a1,1,0,1,0,1.05,1,1,1,0,0,0-1.05-1m11,13.27a1,1,0,0,0,.16.55c.1-.45.18-.9.24-1.36a1,1,0,0,0-.4.81m-2-10a1,1,0,1,0,0,2.09,1,1,0,1,0,0-2.09m0,3a1,1,0,1,0,1.06,1.05,1,1,0,0,0-1.06-1.05m0,6a1,1,0,1,0,0,2.09,1,1,0,1,0,0-2.09m0-3a1,1,0,1,0,0,2.09,1,1,0,1,0,0-2.09m-6-15.22a1,1,0,1,0,1.05,1,1,1,0,0,0-1.05-1m0,3a1,1,0,1,0,1.05,1,1,1,0,0,0-1.05-1m8,13.27a1,1,0,0,0,.55.91c0-.52.06-1,.06-1.58a2.44,2.44,0,0,0,0-.27,1.06,1.06,0,0,0-.6.94m-8-10.29a1,1,0,1,0,1.05,1,1,1,0,0,0-1.05-1m6,15.21a1,1,0,1,0,1.06,1,1,1,0,0,0-1.06-1m-1,4a1,1,0,0,0,.6.94c.36-.59.7-1.2,1-1.83a1.14,1.14,0,0,0-.56-.15,1,1,0,0,0-1,1m-2-7a1,1,0,1,0,1,1,1.06,1.06,0,0,0-1-1m0,3a1,1,0,1,0,0,2.09,1,1,0,1,0,0-2.09m0,3a1,1,0,1,0,1,1,1.06,1.06,0,0,0-1-1m0-8.95a1,1,0,1,0,1,1,1,1,0,0,0-1-1m0-9.25a1,1,0,1,0,1,1,1.06,1.06,0,0,0-1-1m-3,3.28a1,1,0,1,0,1.05,1,1,1,0,0,0-1.05-1m3-6.26a1,1,0,1,0,1,1,1,1,0,0,0-1-1m0,9.24a1,1,0,1,0,0,2.09,1,1,0,1,0,0-2.09m0-3a1,1,0,1,0,1,1,1.06,1.06,0,0,0-1-1m-3,3a1,1,0,1,0,1.05,1.05,1,1,0,0,0-1.05-1.05m-3,6a1,1,0,1,0,1.05,1,1,1,0,0,0-1.05-1m0-3a1,1,0,1,0,1.05,1,1,1,0,0,0-1.05-1m0-3a1,1,0,1,0,1.05,1.05,1,1,0,0,0-1.05-1.05m0-3a1,1,0,1,0,1.05,1,1,1,0,0,0-1.05-1m0,14.92a1,1,0,1,0,1.05,1,1,1,0,0,0-1.05-1m0-3a1,1,0,1,0,1.05,1,1,1,0,0,0-1.05-1m0,6a1,1,0,1,0,1.05,1,1,1,0,0,0-1.05-1m0,3a1,1,0,1,0,1.05,1,1,1,0,0,0-1.05-1M44,78.92a1,1,0,1,0,1.06,1,1,1,0,0,0-1.06-1m11,37.14v0a18.85,18.85,0,0,0,1.77-.81,1.05,1.05,0,0,0-1.77.76m4-16a1,1,0,1,0,1.05,1,1,1,0,0,0-1.05-1m0,6a1,1,0,1,0,1.05,1,1,1,0,0,0-1.05-1m0-3a1,1,0,1,0,0,2.09,1,1,0,1,0,0-2.09m-3-18.19a1,1,0,1,0,1.05,1,1,1,0,0,0-1.05-1m3,12.23a1,1,0,1,0,1.05,1,1,1,0,0,0-1.05-1M55.5,79.07a1,1,0,1,0,1.6.89.49.49,0,0,0,0-.12c-.52-.28-1.05-.53-1.59-.77m.55,2.83a1,1,0,1,0,1.05,1,1,1,0,0,0-1.05-1m3,30.13a1,1,0,0,0-.25,2.06c.45-.3.88-.62,1.3-1v0a1,1,0,0,0-1.05-1m0-3a1,1,0,1,0,1.05,1,1,1,0,0,0-1.05-1m-24-9a1,1,0,1,0,1.05,1,1,1,0,0,0-1.05-1M32,84.89H32c-.33.42-.66.85-1,1.3a1.05,1.05,0,1,0,1-1.3M35,112a1.05,1.05,0,0,0-.82.4,20.87,20.87,0,0,0,1.63,1.32,1.08,1.08,0,0,0,.24-.67A1,1,0,0,0,35,112m0-3a1,1,0,1,0,1.05,1,1,1,0,0,0-1.05-1M32,87.87a1,1,0,1,0,1.05,1,1,1,0,0,0-1.05-1M38,115h-.17c.36.2.73.39,1.11.58A1,1,0,0,0,38,115m-3-9a1,1,0,1,0,1.05,1,1,1,0,0,0-1.05-1m-3-6a1,1,0,1,0,1.05,1,1,1,0,0,0-1.05-1m0-8.95a1,1,0,1,0,1.05,1,1,1,0,0,0-1.05-1m0,3a1,1,0,1,0,1.05,1.05A1,1,0,0,0,32,94.13m0,9a1,1,0,1,0,1.05,1,1,1,0,0,0-1.05-1m3-11.93a1,1,0,1,0,1.05,1,1,1,0,0,0-1.05-1m0-3.28a1,1,0,1,0,1.05,1,1,1,0,0,0-1.05-1m0-3a1,1,0,1,0,1.05,1,1,1,0,0,0-1.05-1m0-3h-.07c-.33.26-.65.53-1,.82A1.5,1.5,0,0,0,34,83a1.05,1.05,0,1,0,1-1m0,12.23a1,1,0,1,0,1.05,1.05A1,1,0,0,0,35,94.13m0,9a1,1,0,1,0,1.05,1,1,1,0,0,0-1.05-1m27.05,6a1,1,0,1,0,0,2.09l.21,0c.29-.32.57-.64.83-1a.07.07,0,0,0,0-.05,1,1,0,0,0-1-1M44,81.9a1,1,0,1,0,1.06,1,1,1,0,0,0-1.06-1M32,97.12a1,1,0,1,0,0,2.09,1,1,0,1,0,0-2.09M50,78a1,1,0,0,0,.76-.32c-.55-.09-1.11-.16-1.67-.2A1,1,0,0,0,50,78M59,81l-.86-.56A1,1,0,0,0,59,81m3.08,3a.92.92,0,0,0,.29,0c-.41-.45-.85-.89-1.3-1.3a1,1,0,0,0,0,.3,1.06,1.06,0,0,0,1.06,1M47,78a1,1,0,0,0,.94-.58h-.41c-.49,0-1,0-1.45,0A1.07,1.07,0,0,0,47,78M65.06,90a1.06,1.06,0,0,0,.89-.49c-.24-.54-.5-1.08-.78-1.6h-.11a1,1,0,1,0,0,2.09M32,106.07a1,1,0,1,0,1.05,1,1,1,0,0,0-1.05-1M64.56,86.85c-.17-.28-.36-.56-.54-.83a1.05,1.05,0,0,0,.54.83m-19.7-9.23c-.47.06-.94.14-1.4.24A1.08,1.08,0,0,0,44,78a1,1,0,0,0,.84-.4M67.57,96.1c0-.58-.1-1.15-.19-1.71a1,1,0,0,0,.19,1.71M29,90h0a1,1,0,0,0,1.05-1,1,1,0,0,0-.28-.7c-.29.57-.56,1.15-.81,1.75m0,1.19a1,1,0,0,0-.52.14c-.15.46-.29.93-.4,1.41A1,1,0,1,0,29,91.15m0,3a1,1,0,1,0,1.05,1.05A1,1,0,0,0,29,94.13m.48,12.05c.18.37.36.73.56,1.08a.76.76,0,0,0,0-.15,1.06,1.06,0,0,0-.57-.93M32,109.05a1,1,0,0,0-.67.24,20.29,20.29,0,0,0,1.32,1.62,1,1,0,0,0,.4-.81,1,1,0,0,0-1.05-1m-3-6a1,1,0,0,0-.64.23,17.15,17.15,0,0,0,.67,1.86,1,1,0,0,0,1-1,1,1,0,0,0-1.05-1m0-6a1,1,0,1,0,1.05,1,1,1,0,0,0-1.05-1m0,3a1,1,0,1,0,1.05,1,1,1,0,0,0-1.05-1m6-3a1,1,0,1,0,1.05,1,1,1,0,0,0-1.05-1M44,115a1,1,0,0,0,0,2.09A1,1,0,1,0,44,115m-3-36.1a1,1,0,1,0,1,1,1,1,0,0,0-1-1m0,18.2a1,1,0,1,0,1,1,1,1,0,0,0-1-1M41,81.9a1,1,0,1,0,1,1,1,1,0,0,0-1-1m3,27.15a1,1,0,1,0,1.06,1,1,1,0,0,0-1.06-1M41,94.13a1,1,0,1,0,1,1.05,1,1,0,0,0-1-1.05m0-3a1,1,0,1,0,1,1,1,1,0,0,0-1-1m0-3.28a1,1,0,1,0,1,1,1,1,0,0,0-1-1m0-3a1,1,0,1,0,1,1,1,1,0,0,0-1-1M44,112a1,1,0,1,0,1.06,1A1,1,0,0,0,44,112m-6,0a1,1,0,1,0,1,1,1,1,0,0,0-1-1m6-6a1,1,0,1,0,1.06,1,1,1,0,0,0-1.06-1m0-18.2a1,1,0,1,0,1.06,1,1,1,0,0,0-1.06-1m0-3a1,1,0,1,0,1.06,1,1,1,0,0,0-1.06-1m0,9.24a1,1,0,1,0,1.06,1.05A1,1,0,0,0,44,94.13m0,9a1,1,0,1,0,1.06,1,1,1,0,0,0-1.06-1m0-6a1,1,0,0,0,0,2.09,1,1,0,1,0,0-2.09m0,3a1,1,0,1,0,1.06,1,1,1,0,0,0-1.06-1m0-8.95a1,1,0,1,0,1.06,1,1,1,0,0,0-1.06-1m-6,6a1,1,0,1,0,1,1,1,1,0,0,0-1-1m0-3a1,1,0,1,0,1,1.05,1,1,0,0,0-1-1.05m0-3a1,1,0,1,0,1,1,1,1,0,0,0-1-1m0-3.28a1,1,0,1,0,1,1,1,1,0,0,0-1-1m0,12.23a1,1,0,1,0,1,1,1,1,0,0,0-1-1m0,3a1,1,0,1,0,1,1,1,1,0,0,0-1-1m0,6a1,1,0,1,0,1,1,1,1,0,0,0-1-1m0-3a1,1,0,1,0,1,1,1,1,0,0,0-1-1m0-21.18a1,1,0,1,0,1,1,1,1,0,0,0-1-1m3,24.16a1,1,0,1,0,1,1,1,1,0,0,0-1-1m0-3a1,1,0,1,0,1,1,1,1,0,0,0-1-1m0-3a1,1,0,1,0,1,1,1,1,0,0,0-1-1m0-3a1,1,0,1,0,1,1,1,1,0,0,0-1-1M41,112a1,1,0,1,0,1,1,1,1,0,0,0-1-1M38,81.9a1,1,0,1,0,1,1,1,1,0,0,0-1-1M41,115a1.05,1.05,0,0,0-1.05,1c.61.25,1.24.47,1.87.66a1,1,0,0,0,.23-.65,1,1,0,0,0-1-1m-4-34.62A1.07,1.07,0,0,0,38,81a1,1,0,0,0,1-1.05,1,1,0,0,0-.17-.56,18.15,18.15,0,0,0-1.84,1m89.8,10.12a1.15,1.15,0,0,0,1-.54,19.17,19.17,0,0,0-.87-1.76h-.11a1.15,1.15,0,1,0,0,2.3m2.76,6.78c0-.64-.11-1.27-.2-1.89a1.12,1.12,0,0,0-.4.87,1.16,1.16,0,0,0,.6,1m-3.31-10.21c-.19-.31-.4-.61-.6-.91a1.13,1.13,0,0,0,.6.91m-2.76-3.16a1.12,1.12,0,0,0,.32,0c-.46-.5-.94-1-1.44-1.43a1.12,1.12,0,0,0,0,.32,1.15,1.15,0,0,0,1.16,1.15M107,77.35a1.14,1.14,0,0,0,1-.64h-.45c-.54,0-1.07,0-1.6.05a1.16,1.16,0,0,0,1,.59m13.18,3.29c-.31-.22-.63-.42-1-.62a1.15,1.15,0,0,0,1,.62m-15.58-3.73c-.52.07-1,.15-1.54.26a1.1,1.1,0,0,0,.62.18,1.17,1.17,0,0,0,.92-.44m5.71.44a1.12,1.12,0,0,0,.84-.36c-.61-.1-1.22-.17-1.84-.22a1.13,1.13,0,0,0,1,.58M97,111.58a1.16,1.16,0,1,0,1.16,1.16A1.16,1.16,0,0,0,97,111.58m16.58-9.87a1.16,1.16,0,1,0,1.16,1.15,1.16,1.16,0,0,0-1.16-1.15m0-3.29a1.15,1.15,0,1,0,1.16,1.15,1.15,1.15,0,0,0-1.16-1.15m0-3.29a1.15,1.15,0,1,0,1.16,1.15,1.15,1.15,0,0,0-1.16-1.15m0-3.29A1.15,1.15,0,1,0,114.76,93a1.15,1.15,0,0,0-1.16-1.15m0-3.62a1.15,1.15,0,1,0,1.16,1.15,1.15,1.15,0,0,0-1.16-1.15m0,26.66a1.15,1.15,0,1,0,1.16,1.15,1.15,1.15,0,0,0-1.16-1.15m0-9.88a1.16,1.16,0,1,0,1.16,1.15A1.16,1.16,0,0,0,113.6,105m0,6.58a1.16,1.16,0,1,0,1.16,1.16,1.16,1.16,0,0,0-1.16-1.16m0-3.29a1.16,1.16,0,1,0,1.16,1.15,1.16,1.16,0,0,0-1.16-1.15m2.15,11s0,0,0,.06q1-.41,1.95-.9a1.19,1.19,0,0,0-.8-.31,1.15,1.15,0,0,0-1.16,1.15m1.16-4.44a1.15,1.15,0,1,0,1.16,1.15,1.15,1.15,0,0,0-1.16-1.15m0-3.3a1.16,1.16,0,1,0,1.16,1.16,1.16,1.16,0,0,0-1.16-1.16m0-3.29a1.16,1.16,0,1,0,1.16,1.15,1.16,1.16,0,0,0-1.16-1.15M107,91.84A1.15,1.15,0,1,0,108.13,93,1.15,1.15,0,0,0,107,91.84m6.63-13.5a1.15,1.15,0,1,0,1.16,1.15,1.16,1.16,0,0,0-1.16-1.15m0,39.83a1.15,1.15,0,0,0-1.16,1.15,1.14,1.14,0,0,0,.52,1c.57-.14,1.14-.31,1.7-.5a1.19,1.19,0,0,0,.1-.46,1.15,1.15,0,0,0-1.16-1.15m-26-9.75c.19.4.4.8.62,1.19a.91.91,0,0,0,0-.17,1.14,1.14,0,0,0-.63-1m26-23.5a1.16,1.16,0,1,0,1.16,1.16,1.16,1.16,0,0,0-1.16-1.16m-3.32,23.37a1.16,1.16,0,1,0,1.16,1.15,1.16,1.16,0,0,0-1.16-1.15m0,6.59a1.15,1.15,0,1,0,1.16,1.15,1.15,1.15,0,0,0-1.16-1.15M107,78.34a1.15,1.15,0,1,0,1.16,1.15A1.16,1.16,0,0,0,107,78.34m3.31,39.83a1.15,1.15,0,1,0,1.16,1.15,1.15,1.15,0,0,0-1.16-1.15m0-6.59a1.16,1.16,0,1,0,1.16,1.16,1.16,1.16,0,0,0-1.16-1.16M107,84.92a1.16,1.16,0,1,0,1.16,1.16A1.16,1.16,0,0,0,107,84.92m0-3.29a1.15,1.15,0,1,0,1.16,1.15A1.16,1.16,0,0,0,107,81.63m0,6.59a1.15,1.15,0,1,0,1.16,1.15A1.15,1.15,0,0,0,107,88.22m9.94,13.49a1.16,1.16,0,1,0,1.16,1.15,1.16,1.16,0,0,0-1.16-1.15m-6.63-23.37a1.15,1.15,0,1,0,1.16,1.15,1.16,1.16,0,0,0-1.16-1.15m0,6.58a1.16,1.16,0,1,0,1.16,1.16,1.16,1.16,0,0,0-1.16-1.16m0,3.3a1.15,1.15,0,1,0,1.16,1.15,1.15,1.15,0,0,0-1.16-1.15m0,3.62A1.15,1.15,0,1,0,111.44,93a1.15,1.15,0,0,0-1.16-1.15m0-10.21a1.15,1.15,0,1,0,1.16,1.15,1.16,1.16,0,0,0-1.16-1.15m0,13.5a1.15,1.15,0,1,0,1.16,1.15,1.15,1.15,0,0,0-1.16-1.15m0,9.87a1.16,1.16,0,1,0,1.16,1.15,1.16,1.16,0,0,0-1.16-1.15m0-3.29a1.16,1.16,0,1,0,1.16,1.15,1.16,1.16,0,0,0-1.16-1.15m0-3.29a1.15,1.15,0,1,0,1.16,1.15,1.15,1.15,0,0,0-1.16-1.15m6.63,6.58a1.16,1.16,0,1,0,1.16,1.15,1.16,1.16,0,0,0-1.16-1.15m6.64-20.08a1.16,1.16,0,1,0,1.16,1.16,1.17,1.17,0,0,0-1.16-1.16m0,10.21a1.15,1.15,0,1,0,0,2.3,1.15,1.15,0,1,0,0-2.3m0-3.29a1.15,1.15,0,1,0,0,2.3,1.15,1.15,0,1,0,0-2.3m0-3.62a1.15,1.15,0,1,0,0,2.3,1.15,1.15,0,1,0,0-2.3m0,10.2a1.15,1.15,0,1,0,0,2.3,1.15,1.15,0,1,0,0-2.3m0,13.16a1.16,1.16,0,1,0,0,2.31l.22,0c.32-.35.63-.7.93-1.07,0,0,0,0,0-.06a1.17,1.17,0,0,0-1.16-1.16m0-9.87a1.16,1.16,0,1,0,0,2.31,1.16,1.16,0,1,0,0-2.31m0,3.29a1.16,1.16,0,1,0,0,2.31,1.16,1.16,0,1,0,0-2.31m0,3.29a1.16,1.16,0,1,0,0,2.31,1.16,1.16,0,1,0,0-2.31m5.47-5.43a1.17,1.17,0,0,0,.17.61c.1-.5.2-1,.26-1.51a1.16,1.16,0,0,0-.43.9m-3.32,6.58a1.14,1.14,0,0,0,.66,1,21.82,21.82,0,0,0,1.11-2,1.18,1.18,0,0,0-.61-.18,1.16,1.16,0,0,0-1.16,1.15m1.16-17.6A1.15,1.15,0,1,0,128,93a1.15,1.15,0,0,0-1.16-1.15m-10,6.58a1.15,1.15,0,1,0,1.16,1.15,1.15,1.15,0,0,0-1.16-1.15m10-3.29A1.15,1.15,0,1,0,128,96.28a1.15,1.15,0,0,0-1.16-1.15m0,3.29A1.15,1.15,0,1,0,128,99.57a1.15,1.15,0,0,0-1.16-1.15m0,6.58a1.16,1.16,0,1,0,1.16,1.15,1.16,1.16,0,0,0-1.16-1.15m0-3.29a1.16,1.16,0,1,0,1.16,1.15,1.16,1.16,0,0,0-1.16-1.15m2.82-3.18a1.15,1.15,0,0,0-.07,2c0-.58.07-1.16.07-1.75v-.3m-9.45,13a1.16,1.16,0,1,0,1.16,1.16,1.16,1.16,0,0,0-1.16-1.16m-3.32-29.95a1.15,1.15,0,1,0,1.16,1.15,1.16,1.16,0,0,0-1.16-1.15m-.6-3.12a1.13,1.13,0,0,0-.56,1,1.16,1.16,0,0,0,2.32,0v-.13c-.58-.31-1.16-.59-1.76-.85m3.92,36.37a1.15,1.15,0,0,0-.28,2.26c.5-.33,1-.68,1.44-1V116a1.15,1.15,0,0,0-1.16-1.15m-3.32-30a1.16,1.16,0,1,0,1.16,1.16,1.16,1.16,0,0,0-1.16-1.16m0,3.3a1.15,1.15,0,1,0,1.16,1.15,1.15,1.15,0,0,0-1.16-1.15m0,6.91a1.15,1.15,0,1,0,1.16,1.15,1.15,1.15,0,0,0-1.16-1.15m3.32-13.5a1.15,1.15,0,1,0,1.16,1.15,1.16,1.16,0,0,0-1.16-1.15m-3.32,10.21A1.15,1.15,0,1,0,118.07,93a1.15,1.15,0,0,0-1.16-1.15m3.32,0A1.15,1.15,0,1,0,121.39,93a1.15,1.15,0,0,0-1.16-1.15m0,16.45a1.16,1.16,0,1,0,1.16,1.15,1.16,1.16,0,0,0-1.16-1.15m0-13.16a1.15,1.15,0,1,0,1.16,1.15,1.15,1.15,0,0,0-1.16-1.15m0-10.21a1.16,1.16,0,1,0,1.16,1.16,1.16,1.16,0,0,0-1.16-1.16m0,3.3a1.15,1.15,0,1,0,1.16,1.15,1.15,1.15,0,0,0-1.16-1.15m0,16.78a1.16,1.16,0,1,0,1.16,1.15,1.16,1.16,0,0,0-1.16-1.15m0-3.29a1.16,1.16,0,1,0,1.16,1.15,1.16,1.16,0,0,0-1.16-1.15m0-3.29a1.15,1.15,0,1,0,1.16,1.15,1.15,1.15,0,0,0-1.16-1.15M113.6,81.63a1.15,1.15,0,1,0,1.16,1.15,1.16,1.16,0,0,0-1.16-1.15M97,84.92a1.16,1.16,0,1,0,1.16,1.16A1.16,1.16,0,0,0,97,84.92m-3.31,0a1.16,1.16,0,1,0,1.16,1.16,1.16,1.16,0,0,0-1.16-1.16m0,23.37a1.16,1.16,0,1,0,1.16,1.15,1.16,1.16,0,0,0-1.16-1.15m0-26.66h-.09q-.54.44-1.05.9a1,1,0,0,0,0,.24,1.17,1.17,0,1,0,1.17-1.15m0,20.08a1.16,1.16,0,1,0,1.16,1.15,1.16,1.16,0,0,0-1.16-1.15m0,3.29a1.16,1.16,0,1,0,1.16,1.15A1.16,1.16,0,0,0,93.71,105M97,118.17l-.19,0q.61.33,1.23.63a1.14,1.14,0,0,0-1-.65M93.71,98.42a1.15,1.15,0,1,0,1.16,1.15,1.15,1.15,0,0,0-1.16-1.15m0-3.29a1.15,1.15,0,1,0,1.16,1.15,1.15,1.15,0,0,0-1.16-1.15m0-3.29A1.15,1.15,0,1,0,94.87,93a1.15,1.15,0,0,0-1.16-1.15M97,98.42a1.15,1.15,0,1,0,1.16,1.15A1.15,1.15,0,0,0,97,98.42m0,16.46A1.15,1.15,0,1,0,98.18,116,1.15,1.15,0,0,0,97,114.88m0-19.75a1.15,1.15,0,1,0,1.16,1.15A1.15,1.15,0,0,0,97,95.13m0-6.91a1.15,1.15,0,1,0,1.16,1.15A1.15,1.15,0,0,0,97,88.22m0,3.62A1.15,1.15,0,1,0,98.18,93,1.15,1.15,0,0,0,97,91.84m0,16.45a1.16,1.16,0,1,0,1.16,1.15A1.16,1.16,0,0,0,97,108.29m0-6.58a1.16,1.16,0,1,0,1.16,1.15A1.16,1.16,0,0,0,97,101.71M97,105a1.16,1.16,0,1,0,1.16,1.15A1.16,1.16,0,0,0,97,105M93.71,88.22a1.15,1.15,0,1,0,1.16,1.15,1.15,1.15,0,0,0-1.16-1.15M87,90.52h0a1.15,1.15,0,0,0,1.16-1.15,1.13,1.13,0,0,0-.3-.78,21.22,21.22,0,0,0-.9,1.93m0,4.61a1.15,1.15,0,1,0,1.16,1.15,1.14,1.14,0,0,0-1.16-1.15m3.32,13.16a1.16,1.16,0,1,0,1.16,1.15,1.16,1.16,0,0,0-1.16-1.15m3.32,3.29a1.16,1.16,0,1,0,1.16,1.16,1.16,1.16,0,0,0-1.16-1.16M87.07,91.84a1.14,1.14,0,0,0-.58.15c-.16.51-.31,1-.44,1.55a1.17,1.17,0,0,0,1,.6,1.15,1.15,0,1,0,0-2.3m0,6.58a1.15,1.15,0,1,0,1.16,1.15,1.14,1.14,0,0,0-1.16-1.15m0,6.58a1.14,1.14,0,0,0-.71.25c.22.7.46,1.38.74,2.06a1.16,1.16,0,0,0,0-2.31m0-3.29a1.16,1.16,0,1,0,1.16,1.15,1.15,1.15,0,0,0-1.16-1.15m3.32,9.87a1.09,1.09,0,0,0-.73.27,20.62,20.62,0,0,0,1.45,1.79,1.14,1.14,0,0,0,.44-.9,1.16,1.16,0,0,0-1.16-1.16m0-6.58a1.16,1.16,0,1,0,1.16,1.15A1.16,1.16,0,0,0,90.39,105m0-20.08h-.06c-.37.46-.73.94-1.06,1.43a1.16,1.16,0,1,0,1.12-1.44m0,6.92A1.15,1.15,0,1,0,91.55,93a1.15,1.15,0,0,0-1.16-1.15m3.32,23a1.13,1.13,0,0,0-.91.44,21,21,0,0,0,1.8,1.44,1.11,1.11,0,0,0,.27-.73,1.15,1.15,0,0,0-1.16-1.15M90.39,88.22a1.15,1.15,0,1,0,1.16,1.15,1.15,1.15,0,0,0-1.16-1.15m0,13.49a1.16,1.16,0,1,0,1.16,1.15,1.16,1.16,0,0,0-1.16-1.15m0-3.29a1.15,1.15,0,1,0,1.16,1.15,1.15,1.15,0,0,0-1.16-1.15m0-3.29a1.15,1.15,0,1,0,1.16,1.15,1.15,1.15,0,0,0-1.16-1.15m10-6.91a1.15,1.15,0,1,0,0,2.3,1.15,1.15,0,1,0,0-2.3m3.31-6.59a1.15,1.15,0,1,0,1.16,1.15,1.16,1.16,0,0,0-1.16-1.15m0,6.59a1.15,1.15,0,1,0,1.16,1.15,1.15,1.15,0,0,0-1.16-1.15m0-3.3a1.16,1.16,0,1,0,1.16,1.16,1.16,1.16,0,0,0-1.16-1.16m0,10.21a1.15,1.15,0,1,0,1.16,1.15,1.15,1.15,0,0,0-1.16-1.15m0-3.29A1.15,1.15,0,1,0,104.81,93a1.15,1.15,0,0,0-1.16-1.15M97,81.63a1.15,1.15,0,1,0,1.16,1.15A1.16,1.16,0,0,0,97,81.63m6.63,20.08a1.16,1.16,0,1,0,1.16,1.15,1.16,1.16,0,0,0-1.16-1.15m0,6.58a1.16,1.16,0,1,0,1.16,1.15,1.16,1.16,0,0,0-1.16-1.15m0-9.87a1.15,1.15,0,1,0,1.16,1.15,1.15,1.15,0,0,0-1.16-1.15m3.32,3.29a1.16,1.16,0,1,0,1.16,1.15,1.16,1.16,0,0,0-1.16-1.15m-3.32-23.37a1.15,1.15,0,1,0,1.16,1.15,1.16,1.16,0,0,0-1.16-1.15m3.32,30a1.16,1.16,0,1,0,1.16,1.15,1.16,1.16,0,0,0-1.16-1.15m0-9.87a1.15,1.15,0,1,0,1.16,1.15A1.15,1.15,0,0,0,107,98.42m0,6.58a1.16,1.16,0,1,0,1.16,1.15A1.16,1.16,0,0,0,107,105m0,13.17a1.15,1.15,0,1,0,1.16,1.15,1.15,1.15,0,0,0-1.16-1.15m0-6.59a1.16,1.16,0,1,0,1.16,1.16,1.16,1.16,0,0,0-1.16-1.16m0,3.3a1.15,1.15,0,1,0,1.16,1.15,1.15,1.15,0,0,0-1.16-1.15M103.65,105a1.16,1.16,0,1,0,1.16,1.15,1.16,1.16,0,0,0-1.16-1.15m0,6.58a1.16,1.16,0,1,0,1.16,1.16,1.16,1.16,0,0,0-1.16-1.16m-3.31-3.29a1.16,1.16,0,1,0,1.16,1.15,1.15,1.15,0,0,0-1.16-1.15m0,3.29a1.16,1.16,0,1,0,1.16,1.16,1.15,1.15,0,0,0-1.16-1.16m0-13.16a1.15,1.15,0,1,0,1.16,1.15,1.15,1.15,0,0,0-1.16-1.15m0,3.29a1.16,1.16,0,1,0,1.16,1.15,1.15,1.15,0,0,0-1.16-1.15M96,80a1.14,1.14,0,0,0,1,.67,1.15,1.15,0,0,0,1.16-1.15,1.11,1.11,0,0,0-.19-.62A21.89,21.89,0,0,0,96,80m4.37,34.91A1.15,1.15,0,1,0,101.5,116a1.15,1.15,0,0,0-1.16-1.15m0,3.29a1.15,1.15,0,0,0-1.16,1.14c.67.27,1.36.52,2.06.73a1.14,1.14,0,0,0-.9-1.87m0-13.17a1.16,1.16,0,1,0,1.16,1.15,1.15,1.15,0,0,0-1.16-1.15m0-23.37a1.15,1.15,0,1,0,1.16,1.15,1.15,1.15,0,0,0-1.16-1.15m3.31,36.54a1.15,1.15,0,1,0,1.16,1.15,1.15,1.15,0,0,0-1.16-1.15m-3.31-39.83a1.15,1.15,0,1,0,1.16,1.15,1.15,1.15,0,0,0-1.16-1.15m3.31,36.54a1.15,1.15,0,1,0,1.16,1.15,1.15,1.15,0,0,0-1.16-1.15m-3.31-30a1.16,1.16,0,1,0,1.16,1.16,1.15,1.15,0,0,0-1.16-1.16m0,6.92A1.15,1.15,0,1,0,101.5,93a1.15,1.15,0,0,0-1.16-1.15M107,95.13a1.15,1.15,0,1,0,1.16,1.15A1.15,1.15,0,0,0,107,95.13m-6.63,0a1.15,1.15,0,1,0,1.16,1.15,1.15,1.15,0,0,0-1.16-1.15"/></g></g></svg>