<?xml version="1.0" encoding="UTF-8"?>
<svg id="Capa_2" data-name="Capa 2" xmlns="http://www.w3.org/2000/svg" viewBox="0 0 167.23 52.06">
  <defs>
    <style>
      .cls-1 {
        fill: #13110c;
      }

      .cls-2 {
        fill: #e50053;
      }
    </style>
  </defs>
  <g id="Layer_1" data-name="Layer 1">
    <g>
      <g>
        <path class="cls-2" d="M26.03,52.06C11.68,52.06,0,40.38,0,26.03S11.68,0,26.03,0s26.03,11.67,26.03,26.03-11.68,26.03-26.03,26.03Zm0-48.55C13.61,3.5,3.51,13.61,3.51,26.03s10.1,22.52,22.52,22.52,22.52-10.1,22.52-22.52S38.45,3.5,26.03,3.5Z"/>
        <path class="cls-2" d="M36.02,37.75H16.04V12.02l.92-.07c.28-.02,6.79-.53,9.07-.53s8.79,.5,9.06,.53l.92,.07v25.73Zm-17.98-2h15.97V13.87c-1.92-.14-6.28-.45-7.99-.45s-6.07,.31-7.99,.45v21.88Z"/>
        <rect class="cls-2" x="23.95" y="39.21" width="4.16" height="2.65"/>
        <path class="cls-2" d="M30.59,42.21h-9.13c0-.64,.52-1.16,1.16-1.16h6.81c.64,0,1.16,.52,1.16,1.16h0Z"/>
      </g>
      <g>
        <path class="cls-1" d="M66.15,21.73l-.54,1.51c-.05,.13-.14,.18-.27,.18h-2.54c-.18,0-.25-.11-.2-.27l2.54-6.88c.66-1.84,1.26-3.6,1.71-5.42,.04-.13,.12-.2,.27-.2h3.35c.14,0,.23,.07,.27,.2,.45,1.82,1.04,3.58,1.71,5.42l2.54,6.88c.05,.16-.02,.27-.2,.27h-2.54c-.13,0-.22-.05-.27-.18l-.54-1.51h-5.3Zm4.13-3.26c-.52-1.42-1.1-3.11-1.32-4.29-.05-.22-.27-.22-.32,0-.23,1.17-.79,2.85-1.31,4.29l-.25,.72h3.46l-.25-.72Z"/>
        <path class="cls-1" d="M87.72,23.19c0,.14-.09,.23-.23,.23h-3.21c-.14,0-.22-.05-.27-.18-.27-.63-.61-1.31-.9-1.91l-2.56-5.19c-.23-.47-.43-.88-.65-1.35-.14-.27-.32-.16-.31,.07,.16,1.13,.2,1.98,.2,3.28v5.05c0,.14-.09,.23-.23,.23h-2.45c-.14,0-.23-.09-.23-.23V10.89c0-.14,.09-.24,.23-.24h3.21c.14,0,.22,.05,.27,.18,.29,.63,.63,1.32,.92,1.91l2.58,5.23c.22,.47,.41,.89,.65,1.31,.12,.29,.32,.18,.29-.07-.18-1.12-.2-1.94-.2-3.24v-5.08c0-.14,.09-.24,.23-.24h2.44c.14,0,.23,.09,.23,.24v12.3Z"/>
        <path class="cls-1" d="M100.27,18.14c0,3.5-1.87,5.48-5.1,5.48s-5.12-1.99-5.12-5.48v-7.26c0-.14,.09-.24,.24-.24h2.45c.14,0,.23,.09,.23,.24v7.26c0,1.86,.81,2.88,2.2,2.88s2.2-1.03,2.2-2.88v-7.26c0-.14,.09-.24,.24-.24h2.43c.14,0,.23,.09,.23,.24v7.26Z"/>
        <path class="cls-1" d="M113.47,23.19c0,.14-.09,.23-.23,.23h-3.21c-.15,0-.22-.05-.27-.18-.27-.63-.61-1.31-.9-1.91l-2.56-5.19c-.23-.47-.43-.88-.65-1.35-.14-.27-.32-.16-.31,.07,.16,1.13,.2,1.98,.2,3.28v5.05c0,.14-.09,.23-.23,.23h-2.45c-.14,0-.23-.09-.23-.23V10.89c0-.14,.09-.24,.23-.24h3.21c.14,0,.22,.05,.27,.18,.29,.63,.63,1.32,.92,1.91l2.58,5.23c.22,.47,.41,.89,.65,1.31,.12,.29,.32,.18,.29-.07-.18-1.12-.2-1.94-.2-3.24v-5.08c0-.14,.09-.24,.23-.24h2.43c.14,0,.23,.09,.23,.24v12.3Z"/>
        <path class="cls-1" d="M124.16,23.19c-.97,.32-1.71,.43-2.7,.43-3.62,0-5.84-2.54-5.84-6.6s2.22-6.58,5.84-6.58c1.03,0,1.79,.09,2.68,.38l.83,.27c.14,.05,.2,.14,.14,.29l-.65,2.04c-.05,.14-.14,.2-.29,.14l-.85-.27c-.52-.16-1.04-.24-1.87-.24-1.8,0-2.9,1.46-2.9,3.96s1.1,4,2.9,4c.67,0,1.21-.06,1.85-.27l.85-.25c.15-.05,.25,0,.29,.14l.72,1.96c.05,.15,.02,.24-.14,.29l-.87,.29Z"/>
        <path class="cls-1" d="M130.43,23.19c0,.14-.09,.23-.23,.23h-2.45c-.14,0-.23-.09-.23-.23V10.89c0-.14,.09-.24,.23-.24h2.45c.14,0,.23,.09,.23,.24v12.3Z"/>
        <path class="cls-1" d="M144.06,17.03c0,4.04-2.18,6.6-5.73,6.6s-5.75-2.56-5.75-6.6,2.18-6.58,5.75-6.58,5.73,2.52,5.73,6.58Zm-8.54,0c0,2.47,1.06,4,2.81,4s2.79-1.53,2.79-4-1.04-3.96-2.79-3.96-2.81,1.44-2.81,3.96Z"/>
        <path class="cls-1" d="M149.32,17.93c-2.47-.92-3.37-1.82-3.37-3.79,0-2.36,1.79-3.69,4.63-3.69,1.04,0,2.02,.18,2.88,.47l1.19,.4c.16,.05,.2,.14,.16,.29l-.74,2.02c-.05,.14-.14,.2-.29,.14l-1.07-.32c-.72-.22-1.4-.38-2.14-.38-1.01,0-1.69,.43-1.69,1.08s.56,.92,1.58,1.3l1.51,.56c2.51,.94,3.41,1.87,3.41,3.84,0,2.47-1.68,3.79-4.74,3.79-1.08,0-2.05-.11-3.55-.6l-1.19-.38c-.16-.06-.2-.14-.16-.29l.72-2c.06-.14,.14-.2,.29-.14l1.26,.38c1.06,.32,1.86,.43,2.63,.43,.97,0,1.8-.24,1.8-1.19,0-.54-.63-.95-1.62-1.33l-1.51-.58Z"/>
        <path class="cls-1" d="M71.37,39.41c.14,0,.24,.09,.24,.23v2.07c0,.14-.09,.24-.24,.24h-7.91c-.14,0-.23-.09-.23-.24v-12.3c0-.14,.09-.23,.23-.23h2.45c.14,0,.23,.09,.23,.23v10h5.22Z"/>
        <path class="cls-1" d="M83.73,36.67c0,3.49-1.87,5.47-5.1,5.47s-5.12-1.98-5.12-5.47v-7.26c0-.14,.09-.23,.23-.23h2.45c.15,0,.23,.09,.23,.23v7.26c0,1.85,.81,2.88,2.2,2.88s2.2-1.03,2.2-2.88v-7.26c0-.14,.09-.23,.24-.23h2.43c.15,0,.24,.09,.24,.23v7.26Z"/>
        <path class="cls-1" d="M98.96,41.71c0,.14-.09,.24-.23,.24h-2.43c-.14,0-.23-.09-.23-.24v-3.8c0-1.35,.04-3.23,.21-4.54,.04-.25-.18-.31-.25-.07-.18,.49-.38,.97-.58,1.46l-.99,2.74c-.16,.47-.38,1.15-.6,1.8-.04,.14-.12,.2-.25,.2h-2.18c-.13,0-.22-.05-.25-.2-.22-.65-.43-1.33-.61-1.8l-.99-2.76c-.18-.49-.38-.95-.56-1.44-.09-.23-.31-.18-.27,.07,.18,1.31,.25,3.19,.25,4.54v3.8c0,.14-.09,.24-.23,.24h-2.45c-.14,0-.23-.09-.23-.24v-12.3c0-.14,.09-.23,.23-.23h3.64c.13,0,.21,.05,.25,.2,.13,.4,.27,.86,.4,1.22l.94,2.72c.29,.83,.65,1.93,.85,2.74,.05,.21,.23,.21,.29,0,.2-.83,.52-1.95,.79-2.74l.97-2.72c.14-.36,.29-.83,.4-1.22,.04-.13,.12-.2,.27-.2h3.62c.14,0,.23,.09,.23,.23v12.3Z"/>
        <path class="cls-1" d="M104.39,41.71c0,.14-.09,.24-.23,.24h-2.45c-.14,0-.24-.09-.24-.24v-12.3c0-.14,.09-.23,.24-.23h2.45c.14,0,.23,.09,.23,.23v12.3Z"/>
        <path class="cls-1" d="M117.76,41.71c0,.14-.09,.24-.23,.24h-3.21c-.14,0-.22-.05-.27-.18-.27-.63-.61-1.32-.9-1.91l-2.56-5.19c-.24-.47-.43-.88-.65-1.35-.14-.27-.32-.16-.31,.07,.16,1.13,.2,1.98,.2,3.28v5.04c0,.14-.09,.24-.24,.24h-2.45c-.14,0-.23-.09-.23-.24v-12.3c0-.14,.09-.23,.23-.23h3.21c.15,0,.22,.05,.27,.18,.29,.63,.63,1.31,.92,1.91l2.58,5.22c.22,.47,.41,.88,.65,1.32,.12,.29,.32,.18,.29-.08-.18-1.12-.2-1.94-.2-3.24v-5.08c0-.14,.09-.23,.23-.23h2.43c.14,0,.23,.09,.23,.23v12.3Z"/>
        <path class="cls-1" d="M131.39,35.56c0,4.03-2.18,6.59-5.73,6.59s-5.75-2.56-5.75-6.59,2.18-6.58,5.75-6.58,5.73,2.52,5.73,6.58Zm-8.54,0c0,2.47,1.06,4,2.81,4s2.79-1.53,2.79-4-1.04-3.96-2.79-3.96-2.81,1.44-2.81,3.96Z"/>
        <path class="cls-1" d="M136.64,36.45c-2.47-.92-3.37-1.82-3.37-3.78,0-2.36,1.79-3.7,4.63-3.7,1.05,0,2.02,.18,2.88,.47l1.19,.4c.16,.05,.2,.14,.16,.29l-.74,2.02c-.06,.14-.14,.2-.29,.14l-1.06-.32c-.72-.21-1.41-.38-2.14-.38-1.01,0-1.69,.43-1.69,1.08s.56,.92,1.58,1.3l1.51,.56c2.5,.94,3.41,1.88,3.41,3.84,0,2.47-1.68,3.78-4.74,3.78-1.08,0-2.05-.11-3.55-.59l-1.19-.38c-.16-.06-.2-.14-.16-.29l.72-2c.05-.14,.14-.2,.29-.14l1.26,.38c1.06,.32,1.86,.43,2.63,.43,.97,0,1.8-.24,1.8-1.19,0-.54-.63-.96-1.62-1.33l-1.51-.58Z"/>
        <path class="cls-1" d="M155.91,35.56c0,4.03-2.18,6.59-5.73,6.59s-5.75-2.56-5.75-6.59,2.18-6.58,5.75-6.58,5.73,2.52,5.73,6.58Zm-8.54,0c0,2.47,1.07,4,2.81,4s2.79-1.53,2.79-4-1.04-3.96-2.79-3.96-2.81,1.44-2.81,3.96Z"/>
        <path class="cls-1" d="M161.16,36.45c-2.47-.92-3.37-1.82-3.37-3.78,0-2.36,1.78-3.7,4.63-3.7,1.04,0,2.02,.18,2.88,.47l1.19,.4c.16,.05,.2,.14,.16,.29l-.74,2.02c-.05,.14-.14,.2-.29,.14l-1.06-.32c-.72-.21-1.41-.38-2.14-.38-1.01,0-1.69,.43-1.69,1.08s.56,.92,1.58,1.3l1.52,.56c2.5,.94,3.4,1.88,3.4,3.84,0,2.47-1.68,3.78-4.74,3.78-1.08,0-2.05-.11-3.55-.59l-1.19-.38c-.16-.06-.2-.14-.16-.29l.72-2c.06-.14,.15-.2,.29-.14l1.26,.38c1.06,.32,1.85,.43,2.63,.43,.97,0,1.8-.24,1.8-1.19,0-.54-.63-.96-1.62-1.33l-1.51-.58Z"/>
      </g>
    </g>
  </g>
</svg>