<?xml version="1.0" encoding="UTF-8"?>
<svg id="Capa_2" data-name="Capa 2" xmlns="http://www.w3.org/2000/svg" viewBox="0 0 205.29 52.05">
  <defs>
    <style>
      .cls-1 {
        fill: #13110c;
      }

      .cls-2 {
        fill: #e50053;
      }
    </style>
  </defs>
  <g id="Layer_1" data-name="Layer 1">
    <g>
      <g>
        <path class="cls-1" d="M66,23.19c0,.15-.09,.24-.23,.24h-2.45c-.14,0-.24-.09-.24-.24V10.88c0-.15,.09-.23,.24-.23h2.45c.14,0,.23,.09,.23,.23v12.3Z"/>
        <path class="cls-1" d="M81.4,23.19c0,.15-.09,.24-.24,.24h-2.43c-.14,0-.24-.09-.24-.24v-3.8c0-1.35,.04-3.22,.21-4.54,.04-.25-.18-.31-.25-.08-.18,.49-.38,.97-.58,1.46l-.99,2.74c-.16,.47-.38,1.15-.59,1.8-.04,.15-.12,.2-.25,.2h-2.18c-.13,0-.22-.05-.25-.2-.22-.65-.43-1.33-.61-1.8l-.99-2.76c-.18-.49-.38-.96-.56-1.44-.09-.23-.31-.18-.27,.08,.18,1.31,.25,3.19,.25,4.54v3.8c0,.15-.09,.24-.23,.24h-2.45c-.14,0-.23-.09-.23-.24V10.88c0-.15,.09-.23,.23-.23h3.64c.13,0,.22,.05,.25,.2,.13,.39,.27,.87,.4,1.22l.94,2.72c.29,.83,.65,1.93,.84,2.74,.06,.21,.24,.21,.29,0,.2-.83,.52-1.95,.79-2.74l.97-2.72c.14-.36,.29-.83,.4-1.22,.04-.13,.13-.2,.27-.2h3.62c.14,0,.24,.09,.24,.23v12.3Z"/>
        <path class="cls-1" d="M89.01,10.65c2.88,0,4.56,1.59,4.56,4.25,0,2.81-1.91,4.45-5.19,4.45h-1.55v3.84c0,.15-.09,.24-.23,.24h-2.45c-.14,0-.23-.09-.23-.24V10.88c0-.15,.09-.23,.23-.23h4.86Zm-2.18,6.16h1.55c1.42,0,2.25-.7,2.25-1.91,0-1.06-.6-1.69-1.62-1.69h-2.18v3.6Z"/>
        <path class="cls-1" d="M100.99,10.65c2.86,0,4.54,1.46,4.54,3.91,0,1.64-1.03,2.74-2.12,3.22-.25,.13-.23,.22-.02,.35,.79,.48,1.24,1.28,1.57,1.98l1.26,3.04c.05,.16-.02,.27-.18,.27h-2.6c-.14,0-.22-.06-.27-.18l-.79-1.93c-.65-1.57-1.23-2.43-3.22-2.43h-.5v4.3c0,.15-.09,.24-.23,.24h-2.45c-.14,0-.23-.09-.23-.24V10.88c0-.15,.09-.23,.23-.23h5.03Zm-.38,5.69c1.35,0,1.98-.5,1.98-1.57,0-.95-.65-1.56-1.6-1.56h-2.34v3.13h1.96Z"/>
        <path class="cls-1" d="M115.53,15.59c.14,0,.24,.09,.24,.23v2.07c0,.15-.09,.24-.24,.24h-4.41v2.75h5.89c.14,0,.23,.09,.23,.23v2.07c0,.15-.09,.24-.23,.24h-8.58c-.14,0-.23-.09-.23-.24V10.88c0-.15,.09-.23,.23-.23h8.67c.16,0,.24,.11,.2,.27l-.57,2.09c-.04,.12-.13,.2-.25,.2h-5.35v2.38h4.41Z"/>
        <path class="cls-1" d="M122.52,17.93c-2.47-.92-3.37-1.82-3.37-3.78,0-2.36,1.78-3.69,4.63-3.69,1.04,0,2.02,.18,2.88,.47l1.19,.4c.16,.05,.2,.14,.16,.29l-.74,2.02c-.05,.14-.14,.2-.29,.14l-1.06-.32c-.72-.22-1.41-.38-2.14-.38-1.01,0-1.69,.43-1.69,1.08s.56,.92,1.59,1.3l1.51,.56c2.5,.94,3.4,1.88,3.4,3.84,0,2.47-1.67,3.78-4.74,3.78-1.08,0-2.05-.11-3.55-.6l-1.19-.38c-.16-.05-.2-.14-.16-.29l.72-2c.05-.14,.14-.2,.29-.14l1.26,.38c1.06,.32,1.85,.43,2.63,.43,.97,0,1.8-.24,1.8-1.19,0-.54-.63-.95-1.62-1.33l-1.51-.58Z"/>
        <path class="cls-1" d="M133.59,23.19c0,.15-.09,.24-.24,.24h-2.45c-.14,0-.24-.09-.24-.24V10.88c0-.15,.09-.23,.24-.23h2.45c.14,0,.24,.09,.24,.23v12.3Z"/>
        <path class="cls-1" d="M147.23,17.03c0,4.03-2.18,6.59-5.73,6.59s-5.75-2.56-5.75-6.59,2.18-6.58,5.75-6.58,5.73,2.52,5.73,6.58Zm-8.54,0c0,2.46,1.06,4,2.81,4s2.79-1.53,2.79-4-1.05-3.96-2.79-3.96-2.81,1.44-2.81,3.96Zm5.91-10.31c.22,0,.27,.15,.13,.29l-2.02,2.14c-.07,.09-.16,.13-.29,.13h-2.25c-.2,0-.25-.13-.16-.29l1.17-2.11c.06-.11,.14-.16,.27-.16h3.15Z"/>
        <path class="cls-1" d="M160.22,23.19c0,.15-.09,.24-.23,.24h-3.21c-.14,0-.22-.06-.27-.18-.27-.63-.61-1.32-.9-1.91l-2.56-5.19c-.23-.47-.43-.88-.65-1.35-.14-.27-.32-.16-.31,.07,.16,1.13,.2,1.98,.2,3.28v5.04c0,.15-.09,.24-.23,.24h-2.45c-.14,0-.23-.09-.23-.24V10.88c0-.15,.09-.23,.23-.23h3.21c.14,0,.22,.05,.27,.18,.29,.63,.63,1.32,.92,1.91l2.58,5.22c.22,.47,.42,.88,.65,1.32,.13,.29,.32,.18,.29-.07-.18-1.12-.2-1.94-.2-3.24v-5.08c0-.15,.09-.23,.23-.23h2.43c.14,0,.23,.09,.23,.23v12.3Z"/>
        <path class="cls-1" d="M73.08,34.73c.14,0,.23,.09,.23,.23v5.97c0,.13-.05,.21-.2,.25l-1.67,.53-.22,.07c-.92,.29-1.58,.38-2.68,.38-3.62,0-5.82-2.54-5.82-6.58s2.2-6.59,5.82-6.59c.99,0,1.73,.13,2.67,.41l.93,.31c.16,.06,.2,.15,.14,.29l-.74,1.98c-.04,.14-.14,.2-.29,.14l-.86-.27c-.59-.2-1.13-.25-1.85-.25-1.8,0-2.88,1.48-2.88,3.98s1.08,3.98,2.88,3.98c.65,0,1.28-.05,1.8-.23l.2-.05v-1.98h-1.93c-.16,0-.23-.11-.2-.27l.59-2.09c.04-.12,.13-.2,.25-.2h3.82Z"/>
        <path class="cls-1" d="M80.91,29.18c2.86,0,4.54,1.46,4.54,3.91,0,1.64-1.03,2.74-2.12,3.22-.25,.13-.24,.21-.02,.34,.79,.49,1.24,1.28,1.57,1.98l1.26,3.04c.05,.16-.02,.27-.18,.27h-2.59c-.14,0-.22-.05-.27-.18l-.79-1.93c-.65-1.57-1.22-2.43-3.22-2.43h-.51v4.31c0,.14-.09,.23-.23,.23h-2.45c-.15,0-.23-.09-.23-.23v-12.31c0-.14,.09-.23,.23-.23h5.03Zm-.38,5.69c1.35,0,1.98-.51,1.98-1.57,0-.96-.65-1.57-1.6-1.57h-2.34v3.14h1.96Z"/>
        <path class="cls-1" d="M91.04,40.26l-.54,1.51c-.06,.13-.14,.18-.27,.18h-2.54c-.18,0-.25-.11-.2-.27l2.54-6.88c.67-1.84,1.26-3.6,1.71-5.42,.04-.12,.13-.2,.27-.2h3.35c.14,0,.24,.07,.27,.2,.45,1.82,1.04,3.59,1.71,5.42l2.54,6.88c.05,.16-.02,.27-.2,.27h-2.54c-.13,0-.22-.05-.27-.18l-.54-1.51h-5.3Zm4.13-3.26c-.52-1.42-1.1-3.11-1.32-4.29-.05-.21-.27-.21-.32,0-.24,1.17-.79,2.85-1.32,4.29l-.25,.72h3.46l-.25-.72Z"/>
        <path class="cls-1" d="M112.62,41.72c0,.14-.09,.23-.24,.23h-3.21c-.14,0-.22-.05-.27-.18-.27-.63-.61-1.32-.9-1.91l-2.56-5.19c-.23-.47-.43-.88-.65-1.35-.14-.27-.32-.16-.31,.07,.16,1.13,.2,1.98,.2,3.28v5.04c0,.14-.09,.23-.24,.23h-2.45c-.14,0-.24-.09-.24-.23v-12.31c0-.14,.09-.23,.24-.23h3.21c.14,0,.22,.05,.27,.18,.29,.63,.63,1.32,.92,1.91l2.58,5.23c.22,.47,.42,.88,.65,1.32,.13,.29,.32,.18,.29-.07-.18-1.12-.2-1.95-.2-3.25v-5.08c0-.14,.09-.23,.24-.23h2.43c.14,0,.24,.09,.24,.23v12.31Z"/>
        <path class="cls-1" d="M126.43,34.73c.14,0,.23,.09,.23,.23v2.07c0,.15-.09,.24-.23,.24h-4.6v4.45c0,.14-.09,.23-.23,.23h-2.45c-.14,0-.23-.09-.23-.23v-12.31c0-.14,.09-.23,.23-.23h8.67c.16,0,.24,.11,.2,.27l-.57,2.09c-.04,.13-.12,.2-.25,.2h-5.35v2.99h4.6Z"/>
        <path class="cls-1" d="M140.82,35.55c0,4.04-2.18,6.6-5.73,6.6s-5.75-2.56-5.75-6.6,2.18-6.57,5.75-6.57,5.73,2.52,5.73,6.57Zm-8.54,0c0,2.47,1.06,4,2.81,4s2.79-1.53,2.79-4-1.04-3.96-2.79-3.96-2.81,1.44-2.81,3.96Z"/>
        <path class="cls-1" d="M148.23,29.18c2.86,0,4.54,1.46,4.54,3.91,0,1.64-1.03,2.74-2.13,3.22-.25,.13-.23,.21-.02,.34,.79,.49,1.24,1.28,1.57,1.98l1.26,3.04c.06,.16-.02,.27-.18,.27h-2.59c-.15,0-.22-.05-.27-.18l-.79-1.93c-.65-1.57-1.23-2.43-3.23-2.43h-.5v4.31c0,.14-.09,.23-.23,.23h-2.45c-.14,0-.23-.09-.23-.23v-12.31c0-.14,.09-.23,.23-.23h5.03Zm-.38,5.69c1.35,0,1.98-.51,1.98-1.57,0-.96-.65-1.57-1.6-1.57h-2.34v3.14h1.97Z"/>
        <path class="cls-1" d="M168.33,41.72c0,.14-.09,.23-.23,.23h-2.43c-.14,0-.23-.09-.23-.23v-3.8c0-1.35,.04-3.22,.21-4.54,.04-.25-.18-.31-.25-.07-.18,.49-.38,.97-.58,1.46l-.99,2.74c-.16,.47-.38,1.15-.6,1.8-.04,.14-.12,.2-.25,.2h-2.18c-.13,0-.22-.06-.25-.2-.22-.65-.43-1.34-.61-1.8l-.99-2.76c-.18-.49-.38-.96-.56-1.44-.09-.24-.31-.18-.27,.07,.18,1.32,.25,3.19,.25,4.54v3.8c0,.14-.09,.23-.24,.23h-2.45c-.15,0-.24-.09-.24-.23v-12.31c0-.14,.09-.23,.24-.23h3.64c.13,0,.22,.05,.25,.2,.13,.4,.27,.87,.4,1.22l.94,2.72c.29,.83,.65,1.93,.85,2.74,.05,.21,.23,.21,.29,0,.2-.83,.52-1.95,.79-2.74l.97-2.72c.14-.36,.29-.83,.39-1.22,.04-.12,.13-.2,.27-.2h3.62c.14,0,.23,.09,.23,.23v12.31Z"/>
        <path class="cls-1" d="M173.76,40.26l-.54,1.51c-.06,.13-.14,.18-.27,.18h-2.54c-.18,0-.25-.11-.2-.27l2.54-6.88c.67-1.84,1.26-3.6,1.71-5.42,.04-.12,.13-.2,.27-.2h3.35c.14,0,.24,.07,.27,.2,.45,1.82,1.04,3.59,1.71,5.42l2.54,6.88c.05,.16-.02,.27-.2,.27h-2.54c-.13,0-.22-.05-.27-.18l-.54-1.51h-5.3Zm4.13-3.26c-.52-1.42-1.1-3.11-1.32-4.29-.06-.21-.27-.21-.32,0-.23,1.17-.79,2.85-1.31,4.29l-.25,.72h3.46l-.25-.72Z"/>
        <path class="cls-1" d="M192.54,31.5c0,.15-.09,.24-.23,.24h-3.55v9.98c0,.14-.09,.23-.24,.23h-2.43c-.14,0-.23-.09-.23-.23v-9.98h-3.57c-.15,0-.23-.09-.23-.24v-2.09c0-.14,.09-.23,.23-.23h10.02c.14,0,.23,.09,.23,.23v2.09Z"/>
        <path class="cls-1" d="M205.29,35.55c0,4.04-2.18,6.6-5.73,6.6s-5.74-2.56-5.74-6.6,2.18-6.57,5.74-6.57,5.73,2.52,5.73,6.57Zm-8.54,0c0,2.47,1.06,4,2.81,4s2.79-1.53,2.79-4-1.05-3.96-2.79-3.96-2.81,1.44-2.81,3.96Z"/>
      </g>
      <g>
        <path class="cls-2" d="M26.03,52.05C11.68,52.05,0,40.38,0,26.03S11.68,0,26.03,0s26.03,11.68,26.03,26.03-11.68,26.03-26.03,26.03Zm0-48.55C13.61,3.51,3.51,13.61,3.51,26.03s10.1,22.52,22.52,22.52,22.52-10.1,22.52-22.52S38.45,3.51,26.03,3.51Z"/>
        <path class="cls-2" d="M15.01,24.23c-2.96,0-5.37-2.41-5.37-5.37s2.41-5.38,5.37-5.38,5.38,2.41,5.38,5.38-2.41,5.37-5.38,5.37Zm0-9.24c-2.13,0-3.87,1.74-3.87,3.87s1.74,3.87,3.87,3.87,3.87-1.74,3.87-3.87-1.74-3.87-3.87-3.87Z"/>
        <path class="cls-2" d="M34.77,24.23v-1.5c2.14,0,3.87-1.74,3.87-3.87s-1.73-3.87-3.87-3.87H15.19v-1.5h19.58c2.96,0,5.37,2.41,5.37,5.38s-2.41,5.37-5.37,5.37Z"/>
        <path class="cls-2" d="M16.25,28.38c0,.68-.56,1.24-1.24,1.24s-1.24-.56-1.24-1.24,.55-1.24,1.24-1.24,1.24,.55,1.24,1.24Z"/>
        <circle class="cls-2" cx="15.01" cy="18.86" r="1.24"/>
        <path class="cls-2" d="M15.01,33.75c-2.96,0-5.37-2.41-5.37-5.37s2.41-5.37,5.37-5.37,5.38,2.41,5.38,5.37-2.41,5.37-5.38,5.37Zm0-9.24c-2.13,0-3.87,1.74-3.87,3.87s1.74,3.87,3.87,3.87,3.87-1.74,3.87-3.87-1.74-3.87-3.87-3.87Z"/>
        <path class="cls-2" d="M39.96,39.86H18.91v-11.84h1.5v10.34h18.05v-10.07c0-2.24-1.82-4.06-4.06-4.06H15.01v-1.5h19.39c3.06,0,5.56,2.5,5.56,5.56v11.57Z"/>
      </g>
    </g>
  </g>
</svg>