<?xml version="1.0" encoding="UTF-8"?>
<svg id="Capa_2" data-name="Capa 2" xmlns="http://www.w3.org/2000/svg" viewBox="0 0 213.66 52.05">
  <defs>
    <style>
      .cls-1 {
        fill: #13110c;
      }

      .cls-2 {
        fill: #e50053;
      }
    </style>
  </defs>
  <g id="Layer_1" data-name="Layer 1">
    <g>
      <g>
        <path class="cls-2" d="M26.02,52.05C11.67,52.05,0,40.38,0,26.03S11.67,0,26.02,0s26.03,11.67,26.03,26.03-11.68,26.02-26.03,26.02Zm0-48.55C13.61,3.5,3.5,13.61,3.5,26.03s10.1,22.52,22.52,22.52,22.52-10.1,22.52-22.52S38.44,3.5,26.02,3.5Z"/>
        <g>
          <path class="cls-2" d="M26.24,10.99h-5.44v1.98h5.44v26.09h-5.37v2h5.37c8.3,0,15.04-6.73,15.04-15.04s-6.73-15.04-15.04-15.04Z"/>
          <rect class="cls-2" x="16.79" y="12.97" width="4.01" height="1.98"/>
          <rect class="cls-2" x="14.78" y="14.95" width="2" height="1.98"/>
          <rect class="cls-2" x="12.78" y="16.94" width="2.01" height="4.15"/>
          <polygon class="cls-2" points="12.78 31.04 12.78 21.09 10.77 21.09 10.77 31.04 12.75 31.04 12.75 35.05 14.74 35.05 14.74 31.04 12.78 31.04"/>
          <rect class="cls-2" x="14.74" y="35.05" width="1.98" height="2"/>
          <rect class="cls-2" x="16.72" y="37.05" width="4.15" height="2.01"/>
        </g>
      </g>
      <g>
        <path class="cls-1" d="M66.19,23.18c0,.14-.09,.24-.24,.24h-2.45c-.15,0-.23-.09-.23-.24V10.88c0-.14,.09-.24,.23-.24h2.45c.14,0,.24,.09,.24,.24v12.3Z"/>
        <path class="cls-1" d="M81.59,23.18c0,.14-.09,.24-.24,.24h-2.43c-.14,0-.23-.09-.23-.24v-3.8c0-1.35,.04-3.23,.21-4.54,.04-.25-.18-.31-.25-.07-.18,.48-.38,.97-.58,1.46l-.99,2.74c-.16,.47-.38,1.15-.6,1.8-.04,.14-.12,.2-.25,.2h-2.18c-.13,0-.21-.05-.25-.2-.22-.65-.43-1.33-.61-1.8l-.99-2.76c-.18-.49-.38-.96-.56-1.44-.09-.24-.31-.18-.27,.07,.18,1.31,.25,3.19,.25,4.54v3.8c0,.14-.09,.24-.23,.24h-2.45c-.14,0-.23-.09-.23-.24V10.88c0-.14,.09-.24,.23-.24h3.64c.12,0,.21,.06,.25,.2,.13,.39,.27,.86,.4,1.22l.94,2.72c.29,.83,.65,1.93,.84,2.74,.06,.21,.24,.21,.29,0,.2-.83,.52-1.95,.79-2.74l.97-2.72c.14-.36,.29-.83,.4-1.22,.03-.13,.12-.2,.27-.2h3.62c.14,0,.24,.09,.24,.24v12.3Z"/>
        <path class="cls-1" d="M89.21,10.65c2.88,0,4.56,1.59,4.56,4.25,0,2.81-1.91,4.45-5.19,4.45h-1.55v3.84c0,.14-.09,.24-.23,.24h-2.45c-.15,0-.23-.09-.23-.24V10.88c0-.14,.09-.24,.23-.24h4.86Zm-2.18,6.16h1.55c1.42,0,2.25-.7,2.25-1.91,0-1.06-.6-1.69-1.62-1.69h-2.18v3.6Z"/>
        <path class="cls-1" d="M101.18,10.65c2.87,0,4.54,1.46,4.54,3.91,0,1.64-1.03,2.74-2.12,3.22-.25,.13-.24,.22-.02,.34,.79,.49,1.24,1.28,1.57,1.98l1.26,3.04c.05,.16-.02,.27-.18,.27h-2.59c-.14,0-.22-.06-.27-.18l-.79-1.93c-.65-1.57-1.22-2.43-3.22-2.43h-.51v4.3c0,.14-.09,.24-.23,.24h-2.45c-.15,0-.23-.09-.23-.24V10.88c0-.14,.09-.24,.23-.24h5.03Zm-.38,5.69c1.35,0,1.98-.5,1.98-1.56,0-.95-.65-1.57-1.6-1.57h-2.34v3.13h1.96Z"/>
        <path class="cls-1" d="M115.73,15.58c.14,0,.24,.09,.24,.24v2.07c0,.15-.09,.24-.24,.24h-4.41v2.76h5.89c.14,0,.23,.09,.23,.23v2.07c0,.14-.09,.24-.23,.24h-8.58c-.14,0-.23-.09-.23-.24V10.88c0-.14,.09-.24,.23-.24h8.67c.17,0,.23,.11,.2,.27l-.58,2.09c-.04,.12-.13,.2-.25,.2h-5.35v2.38h4.41Z"/>
        <path class="cls-1" d="M122.71,17.92c-2.47-.92-3.37-1.82-3.37-3.78,0-2.36,1.78-3.69,4.63-3.69,1.04,0,2.02,.18,2.88,.47l1.19,.4c.16,.05,.2,.15,.16,.29l-.74,2.02c-.06,.14-.14,.2-.29,.14l-1.07-.32c-.72-.22-1.4-.38-2.14-.38-1.01,0-1.69,.43-1.69,1.08s.56,.92,1.59,1.3l1.51,.56c2.5,.94,3.41,1.87,3.41,3.84,0,2.46-1.68,3.78-4.74,3.78-1.08,0-2.05-.11-3.55-.6l-1.19-.38c-.16-.05-.2-.14-.16-.29l.72-2c.05-.14,.14-.2,.29-.14l1.26,.38c1.06,.32,1.86,.43,2.63,.43,.97,0,1.8-.24,1.8-1.19,0-.54-.63-.96-1.62-1.33l-1.51-.58Z"/>
        <path class="cls-1" d="M133.79,23.18c0,.14-.09,.24-.23,.24h-2.45c-.14,0-.23-.09-.23-.24V10.88c0-.14,.09-.24,.23-.24h2.45c.14,0,.23,.09,.23,.24v12.3Z"/>
        <path class="cls-1" d="M147.42,17.03c0,4.03-2.18,6.59-5.73,6.59s-5.75-2.56-5.75-6.59,2.18-6.58,5.75-6.58,5.73,2.52,5.73,6.58Zm-8.54,0c0,2.46,1.06,4,2.81,4s2.79-1.53,2.79-4-1.05-3.96-2.79-3.96-2.81,1.44-2.81,3.96Zm5.91-10.31c.22,0,.27,.14,.13,.29l-2.02,2.15c-.07,.09-.16,.13-.29,.13h-2.25c-.2,0-.25-.13-.17-.29l1.17-2.11c.06-.11,.14-.16,.27-.16h3.15Z"/>
        <path class="cls-1" d="M160.42,23.18c0,.14-.09,.24-.23,.24h-3.21c-.15,0-.22-.06-.27-.18-.27-.63-.61-1.32-.9-1.91l-2.56-5.19c-.23-.47-.43-.88-.65-1.35-.14-.27-.32-.16-.31,.07,.16,1.14,.2,1.98,.2,3.28v5.04c0,.14-.09,.24-.23,.24h-2.45c-.15,0-.23-.09-.23-.24V10.88c0-.14,.09-.24,.23-.24h3.21c.14,0,.22,.06,.27,.18,.29,.63,.63,1.32,.92,1.91l2.58,5.22c.22,.47,.41,.88,.65,1.32,.13,.29,.32,.18,.29-.07-.18-1.12-.2-1.95-.2-3.24v-5.08c0-.14,.09-.24,.23-.24h2.43c.14,0,.23,.09,.23,.24v12.3Z"/>
        <path class="cls-1" d="M66.19,40.25l-.54,1.51c-.05,.13-.14,.18-.27,.18h-2.54c-.18,0-.25-.11-.2-.27l2.54-6.88c.67-1.84,1.26-3.6,1.71-5.42,.04-.13,.13-.2,.27-.2h3.35c.14,0,.23,.07,.27,.2,.45,1.82,1.04,3.58,1.71,5.42l2.54,6.88c.05,.16-.02,.27-.2,.27h-2.54c-.13,0-.22-.05-.27-.18l-.54-1.51h-5.3Zm4.12-3.26c-.52-1.42-1.1-3.12-1.31-4.29-.05-.21-.27-.21-.32,0-.23,1.17-.79,2.85-1.32,4.29l-.25,.72h3.46l-.25-.72Z"/>
        <path class="cls-1" d="M85.07,39.41c.14,0,.23,.09,.23,.23v2.07c0,.14-.09,.23-.23,.23h-7.91c-.15,0-.23-.09-.23-.23v-12.31c0-.14,.09-.24,.23-.24h2.45c.15,0,.23,.09,.23,.24v10h5.23Z"/>
        <path class="cls-1" d="M95.87,31.5c0,.15-.09,.24-.23,.24h-3.55v9.98c0,.14-.09,.23-.24,.23h-2.43c-.14,0-.24-.09-.24-.23v-9.98h-3.57c-.14,0-.24-.09-.24-.24v-2.09c0-.14,.09-.24,.24-.24h10.02c.15,0,.23,.09,.23,.24v2.09Z"/>
        <path class="cls-1" d="M98.87,40.25l-.54,1.51c-.05,.13-.15,.18-.27,.18h-2.54c-.18,0-.25-.11-.2-.27l2.54-6.88c.67-1.84,1.26-3.6,1.71-5.42,.04-.13,.13-.2,.27-.2h3.35c.14,0,.23,.07,.27,.2,.45,1.82,1.05,3.58,1.71,5.42l2.54,6.88c.05,.16-.02,.27-.2,.27h-2.54c-.13,0-.22-.05-.27-.18l-.54-1.51h-5.3Zm4.12-3.26c-.52-1.42-1.1-3.12-1.31-4.29-.05-.21-.27-.21-.32,0-.23,1.17-.79,2.85-1.32,4.29l-.25,.72h3.46l-.25-.72Z"/>
        <path class="cls-1" d="M118.09,29.17c3.6,0,5.76,2.49,5.76,6.39s-2.24,6.38-5.76,6.38h-4.47c-.14,0-.23-.09-.23-.23v-12.31c0-.14,.09-.24,.23-.24h4.47Zm-1.79,10.24h1.79c1.75,0,2.82-1.39,2.82-3.84s-1.08-3.84-2.82-3.84h-1.79v7.68Z"/>
        <path class="cls-1" d="M133.34,34.11c.14,0,.23,.09,.23,.24v2.07c0,.14-.09,.24-.23,.24h-4.42v2.76h5.89c.14,0,.23,.09,.23,.23v2.07c0,.14-.09,.23-.23,.23h-8.58c-.14,0-.23-.09-.23-.23v-12.31c0-.14,.09-.24,.23-.24h8.67c.16,0,.23,.11,.2,.27l-.58,2.09c-.04,.13-.12,.2-.25,.2h-5.35v2.38h4.42Z"/>
        <path class="cls-1" d="M144.74,34.72c.14,0,.23,.09,.23,.23v2.07c0,.14-.09,.24-.23,.24h-4.6v4.45c0,.14-.09,.23-.23,.23h-2.45c-.14,0-.23-.09-.23-.23v-12.31c0-.14,.09-.24,.23-.24h8.67c.16,0,.24,.11,.2,.27l-.58,2.09c-.04,.13-.13,.2-.25,.2h-5.35v2.99h4.6Z"/>
        <path class="cls-1" d="M151.27,41.71c0,.14-.09,.23-.23,.23h-2.45c-.14,0-.23-.09-.23-.23v-12.31c0-.14,.09-.24,.23-.24h2.45c.15,0,.23,.09,.23,.24v12.31Z"/>
        <path class="cls-1" d="M164.63,41.71c0,.14-.09,.23-.23,.23h-3.21c-.15,0-.22-.05-.27-.18-.27-.63-.61-1.32-.9-1.91l-2.56-5.19c-.23-.47-.43-.88-.65-1.35-.14-.27-.32-.16-.31,.07,.17,1.13,.2,1.98,.2,3.28v5.05c0,.14-.09,.23-.24,.23h-2.45c-.14,0-.23-.09-.23-.23v-12.31c0-.14,.09-.24,.23-.24h3.21c.14,0,.22,.06,.27,.18,.29,.63,.63,1.32,.92,1.91l2.58,5.23c.22,.47,.41,.88,.65,1.32,.12,.29,.32,.18,.29-.07-.18-1.12-.2-1.94-.2-3.24v-5.08c0-.14,.09-.24,.23-.24h2.43c.14,0,.23,.09,.23,.24v12.31Z"/>
        <path class="cls-1" d="M170.06,41.71c0,.14-.09,.23-.23,.23h-2.45c-.14,0-.24-.09-.24-.23v-12.31c0-.14,.09-.24,.24-.24h2.45c.14,0,.23,.09,.23,.24v12.31Z"/>
        <path class="cls-1" d="M180.76,41.71c-.97,.32-1.71,.43-2.7,.43-3.62,0-5.84-2.54-5.84-6.59s2.22-6.57,5.84-6.57c1.03,0,1.78,.09,2.68,.38l.83,.27c.14,.05,.2,.14,.14,.29l-.65,2.03c-.05,.15-.14,.2-.29,.15l-.84-.27c-.52-.16-1.04-.24-1.88-.24-1.8,0-2.9,1.46-2.9,3.96s1.1,4,2.9,4c.66,0,1.21-.05,1.85-.27l.85-.25c.14-.05,.25,0,.29,.14l.72,1.96c.05,.15,.02,.23-.14,.29l-.87,.29Z"/>
        <path class="cls-1" d="M187.03,41.71c0,.14-.09,.23-.23,.23h-2.45c-.14,0-.23-.09-.23-.23v-12.31c0-.14,.09-.24,.23-.24h2.45c.14,0,.23,.09,.23,.24v12.31Z"/>
        <path class="cls-1" d="M200.66,35.55c0,4.04-2.18,6.59-5.73,6.59s-5.75-2.56-5.75-6.59,2.18-6.57,5.75-6.57,5.73,2.52,5.73,6.57Zm-8.54,0c0,2.47,1.06,4,2.81,4s2.79-1.53,2.79-4-1.04-3.96-2.79-3.96-2.81,1.44-2.81,3.96Zm5.91-10.3c.21,0,.27,.14,.13,.29l-2.02,2.15c-.07,.09-.16,.13-.29,.13h-2.25c-.2,0-.25-.13-.16-.29l1.17-2.11c.05-.11,.14-.16,.27-.16h3.15Z"/>
        <path class="cls-1" d="M213.66,41.71c0,.14-.09,.23-.23,.23h-3.21c-.14,0-.22-.05-.27-.18-.27-.63-.61-1.32-.9-1.91l-2.56-5.19c-.23-.47-.43-.88-.65-1.35-.14-.27-.32-.16-.31,.07,.16,1.13,.2,1.98,.2,3.28v5.05c0,.14-.09,.23-.24,.23h-2.45c-.14,0-.24-.09-.24-.23v-12.31c0-.14,.09-.24,.24-.24h3.21c.14,0,.22,.06,.27,.18,.29,.63,.63,1.32,.92,1.91l2.58,5.23c.22,.47,.42,.88,.65,1.32,.13,.29,.32,.18,.29-.07-.18-1.12-.2-1.94-.2-3.24v-5.08c0-.14,.09-.24,.23-.24h2.43c.14,0,.23,.09,.23,.24v12.31Z"/>
      </g>
    </g>
  </g>
</svg>