<?xml version="1.0" encoding="UTF-8"?>
<svg id="Capa_2" data-name="Capa 2" xmlns="http://www.w3.org/2000/svg" viewBox="0 0 134.24 52.87">
  <defs>
    <style>
      .cls-1 {
        fill: #13110c;
      }

      .cls-2 {
        fill: #e50053;
      }
    </style>
  </defs>
  <g id="Layer_1" data-name="Layer 1">
    <g>
      <g>
        <path class="cls-1" d="M72.35,21.21c.15,0,.24,.09,.24,.24v2.11c0,.15-.09,.24-.24,.24h-8.03c-.15,0-.24-.09-.24-.24V11.05c0-.14,.09-.24,.24-.24h2.49c.15,0,.24,.09,.24,.24v10.16h5.31Z"/>
        <path class="cls-1" d="M82.24,15.83c.15,0,.24,.09,.24,.24v2.1c0,.15-.09,.24-.24,.24h-4.48v2.8h5.99c.15,0,.24,.09,.24,.24v2.11c0,.15-.09,.24-.24,.24h-8.71c-.14,0-.24-.09-.24-.24V11.05c0-.14,.09-.24,.24-.24h8.8c.17,0,.24,.11,.2,.27l-.59,2.12c-.04,.13-.13,.2-.26,.2h-5.44v2.42h4.48Z"/>
        <path class="cls-1" d="M96.29,13.18c0,.14-.09,.24-.24,.24h-3.6v10.14c0,.15-.09,.24-.24,.24h-2.47c-.14,0-.24-.09-.24-.24V13.42h-3.62c-.15,0-.24-.09-.24-.24v-2.12c0-.14,.09-.24,.24-.24h10.17c.15,0,.24,.09,.24,.24v2.12Z"/>
        <path class="cls-1" d="M103.64,10.82c2.91,0,4.61,1.48,4.61,3.97,0,1.67-1.04,2.78-2.16,3.27-.26,.13-.24,.22-.02,.35,.8,.5,1.26,1.3,1.59,2.01l1.28,3.09c.06,.17-.02,.28-.18,.28h-2.64c-.15,0-.22-.06-.28-.18l-.8-1.96c-.66-1.59-1.24-2.47-3.28-2.47h-.51v4.37c0,.15-.09,.24-.24,.24h-2.49c-.15,0-.24-.09-.24-.24V11.05c0-.14,.09-.24,.24-.24h5.11Zm-.38,5.78c1.37,0,2.01-.51,2.01-1.59,0-.97-.66-1.59-1.63-1.59h-2.38v3.18h2Z"/>
        <path class="cls-1" d="M113.93,22.07l-.55,1.54c-.05,.13-.15,.18-.27,.18h-2.58c-.18,0-.26-.11-.2-.28l2.58-6.99c.67-1.87,1.28-3.66,1.74-5.51,.04-.13,.13-.2,.28-.2h3.4c.15,0,.24,.07,.27,.2,.46,1.85,1.06,3.64,1.74,5.51l2.58,6.99c.05,.17-.02,.28-.2,.28h-2.58c-.13,0-.22-.06-.27-.18l-.55-1.54h-5.38Zm4.19-3.31c-.53-1.45-1.12-3.17-1.34-4.35-.05-.22-.27-.22-.33,0-.24,1.19-.81,2.89-1.34,4.35l-.26,.73h3.51l-.26-.73Z"/>
        <path class="cls-1" d="M128.07,18.21c-2.51-.93-3.42-1.85-3.42-3.84,0-2.4,1.81-3.75,4.7-3.75,1.06,0,2.05,.18,2.93,.48l1.21,.4c.16,.06,.2,.15,.16,.29l-.75,2.05c-.05,.15-.15,.2-.29,.15l-1.08-.33c-.73-.22-1.43-.38-2.18-.38-1.02,0-1.72,.44-1.72,1.1s.57,.93,1.61,1.32l1.54,.57c2.54,.95,3.46,1.9,3.46,3.9,0,2.51-1.7,3.84-4.81,3.84-1.1,0-2.09-.11-3.6-.6l-1.21-.38c-.17-.05-.2-.14-.17-.29l.73-2.03c.05-.15,.15-.2,.29-.15l1.28,.38c1.08,.33,1.89,.44,2.67,.44,.99,0,1.83-.24,1.83-1.21,0-.55-.64-.97-1.65-1.36l-1.54-.58Z"/>
        <path class="cls-1" d="M65.46,29.91c.97-.35,1.81-.47,2.67-.47,2.82,0,4.48,1.35,4.48,3.64,0,1.28-.49,1.96-1.48,2.49-.2,.11-.2,.22,0,.31,1.32,.6,1.92,1.74,1.92,3.1,0,2.41-1.83,3.84-4.91,3.84-1.02,0-1.96-.18-2.98-.51l-1.23-.42c-.16-.03-.2-.15-.14-.29l.75-1.96c.04-.15,.15-.2,.29-.15l1.17,.38c.8,.26,1.55,.38,2.14,.38,1.24,0,2-.62,2-1.63,0-.92-.68-1.53-1.81-1.53h-1.08c-.15,0-.24-.1-.24-.24v-2.05c0-.14,.09-.24,.24-.24h1.06c.88,0,1.39-.48,1.39-1.15,0-.88-.6-1.39-1.58-1.39-.66,0-1.24,.13-1.88,.35l-1.03,.35c-.14,.05-.24,0-.29-.15l-.7-2.01c-.04-.14,0-.24,.15-.29l1.08-.35Z"/>
        <path class="cls-1" d="M80.12,29.64c3.66,0,5.86,2.52,5.86,6.5s-2.27,6.48-5.86,6.48h-4.54c-.15,0-.24-.09-.24-.24v-12.5c0-.14,.09-.24,.24-.24h4.54Zm-1.81,10.39h1.81c1.78,0,2.87-1.41,2.87-3.9s-1.1-3.9-2.87-3.9h-1.81v7.8Z"/>
      </g>
      <g>
        <path class="cls-2" d="M26.44,52.87C11.86,52.87,0,41.01,0,26.44S11.86,0,26.44,0s26.44,11.86,26.44,26.44-11.86,26.43-26.44,26.43Zm0-49.31C13.82,3.56,3.56,13.82,3.56,26.44s10.26,22.87,22.88,22.87,22.87-10.26,22.87-22.87S39.05,3.56,26.44,3.56Z"/>
        <path class="cls-2" d="M24.85,13.94h6.24l9.33,26.38h-5.98l-1.74-5.42h-9.71l-1.79,5.42h-5.77L24.85,13.94Zm-.36,16.41h6.76l-3.33-10.38-3.42,10.38Z"/>
        <polygon class="cls-2" points="15.44 40.35 11.14 36.05 20.67 9.68 26.77 9.68 31.21 14.03 30.85 14.39 26.56 10.19 21.03 10.19 11.72 35.91 15.8 40 15.44 40.35"/>
      </g>
    </g>
  </g>
</svg>