<?xml version="1.0" encoding="UTF-8"?>
<svg id="Capa_2" data-name="Capa 2" xmlns="http://www.w3.org/2000/svg" xmlns:xlink="http://www.w3.org/1999/xlink" viewBox="0 0 551.03 551.03">
  <defs>
    <style>
      .cls-1 {
        fill: url(#Degradado_sin_nombre_3-2);
      }

      .cls-2 {
        fill: url(#Degradado_sin_nombre_3);
      }

      .cls-3 {
        fill: url(#Degradado_sin_nombre_3-3);
      }
    </style>
    <linearGradient id="Degradado_sin_nombre_3" data-name="Degradado sin nombre 3" x1="275.52" y1="837.32" x2="275.52" y2="292.17" gradientTransform="translate(0 -287.89)" gradientUnits="userSpaceOnUse">
      <stop offset="0" stop-color="#e09b3d"/>
      <stop offset=".3" stop-color="#c74c4d"/>
      <stop offset=".6" stop-color="#c21975"/>
      <stop offset="1" stop-color="#7024c4"/>
    </linearGradient>
    <linearGradient id="Degradado_sin_nombre_3-2" data-name="Degradado sin nombre 3" y2="292.17" xlink:href="#Degradado_sin_nombre_3"/>
    <linearGradient id="Degradado_sin_nombre_3-3" data-name="Degradado sin nombre 3" x1="418.31" y1="837.32" x2="418.31" y2="292.17" xlink:href="#Degradado_sin_nombre_3"/>
  </defs>
  <g id="Layer_1" data-name="Layer 1">
    <g>
      <path class="cls-2" d="M386.88,0H164.16C73.64,0,0,73.64,0,164.16v222.72c0,90.52,73.64,164.16,164.16,164.16h222.72c90.52,0,164.16-73.64,164.16-164.16V164.16c0-90.52-73.64-164.16-164.16-164.16Zm108.72,386.88c0,60.04-48.68,108.72-108.72,108.72H164.16c-60.04,0-108.72-48.68-108.72-108.72V164.16c0-60.05,48.68-108.72,108.72-108.72h222.72c60.04,0,108.72,48.68,108.72,108.72v222.72h0Z"/>
      <path class="cls-1" d="M275.52,133c-78.58,0-142.52,63.93-142.52,142.52s63.93,142.52,142.52,142.52,142.52-63.93,142.52-142.52-63.93-142.52-142.52-142.52Zm0,229.6c-48.1,0-87.08-38.99-87.08-87.08s38.99-87.08,87.08-87.08,87.08,38.99,87.08,87.08-38.99,87.08-87.08,87.08Z"/>
      <circle class="cls-3" cx="418.31" cy="134.07" r="34.15"/>
    </g>
  </g>
</svg>