<svg xmlns="http://www.w3.org/2000/svg" viewBox="0 0 43.85 49"><defs><style>.cls-1{fill:#fff;}.cls-2{fill:none;stroke:#616160;stroke-linecap:round;stroke-linejoin:round;stroke-width:0;}</style></defs><g id="Capa_2" data-name="Capa 2"><g id="Capa_1-2" data-name="Capa 1"><path class="cls-1" d="M23.19,31.83h-.63s-.12-.1-.1-.19l-1.14-.11.81-.54-.24-.16-1,.65s-.23.24.25.27a5.16,5.16,0,0,1,.81.11l-1.25.22.14-.22a6.27,6.27,0,0,1-1.41.27.59.59,0,0,0,.49.3c.31,0,3.41-.46,3.41-.46l-.59,0Z"/><path class="cls-1" d="M35.8,21.77a28,28,0,0,0,.43-4.61c.43-5.72,1.1-8.28,1.71-9.68S39.5,4.42,39.68,4s0-.36-.33,0a9,9,0,0,1-1,.87s.31-3.1.41-4-.35-1-.44-.6a12.25,12.25,0,0,1-2.76,4.53c-2,2.25-6.92,7.08-8.87,8.32A6.93,6.93,0,0,0,24,16.29a3,3,0,0,1-2-2.95c0-.44,0-1.17-.37-1.17s-.34.13-.39.57a7.12,7.12,0,0,1-.46,1.41s-.1-.21-.32-.62-.43.13-.43.13a8.84,8.84,0,0,1-.76,2.61c-.45.54-1.52-.55-1.52-.55-2.6-2.21-4-3-7.89-5S1.38,2,1.38,2,.46.12.73,1.89a24.94,24.94,0,0,0,1.85,5A3.4,3.4,0,0,1,1.41,5.5C1,4.81.9,5.12.9,5.12c.22,1.48,1.31,4.12,3.36,8s2,8.07,2.36,9.43a3.13,3.13,0,0,0,.63,1.31,7.25,7.25,0,0,0-1.2,4c0,.2,0,.4,0,.6l-.24-.49A34.72,34.72,0,0,0,0,40.24c0,.45.3.08.3.08l2-2c-.48,3.41.18,5.77.73,6.62s.68,0,.68,0c.23-2.65,2-3.22,2-3.22l.16.27c-.43.54-.65.87-.65.87.23-.28.45-.55.68-.81a4.93,4.93,0,0,0,.86,1.1,8,8,0,0,1,1.66,2.06c.19.52.38.17.38.17a2.52,2.52,0,0,1,.11-2.33s.52.49.89.78.35-.08.35-.08a1.48,1.48,0,0,1-.29-1.57c.72.56,1.39,1,2,1.46l-.11.22.12-.21a31.5,31.5,0,0,0,5.06,2.79c1,.53.13,1.65-.11,1.65s-.36.45,0,.43a9.91,9.91,0,0,0,1.36-.27l-.16.3c-.16.29.11.38.11.38a2.7,2.7,0,0,1,1.41-.89,6.82,6.82,0,0,0,1-.52l-.1.41.19.11a7,7,0,0,1,1-.79c.69-.47.89-.35.89-.35a3.12,3.12,0,0,1-.48,1.51c-.33.54.21.41.21.41,1.5-1.77,3.85-2.89,6.4-3.85a15,15,0,0,0,2.72-1.42c.63.79,1.3,1.65,2,2.61,0,0-.83-1.11-2-2.63.78-.51,1.45-1,1.89-1.35l.91.78a1.58,1.58,0,0,1-.37.9c-.3.25.08.4.08.4a3.36,3.36,0,0,0,.87-.81l1.19,1-1.14-1.06a6.53,6.53,0,0,0,1-1.89c.9.6,1.28,2.67,1.14,3.23s.38.43.38.43a8.39,8.39,0,0,0,1.38-3.29l.55.33-.53-.39a16.64,16.64,0,0,0,.34-2.35A6.88,6.88,0,0,1,43,43.2c.11.55.43.21.43.21a16.11,16.11,0,0,0-.95-6.21,8,8,0,0,1,.87.76c.37.39.46,0,.46,0-2.56-6.59-5.29-9.65-5.29-9.65A10,10,0,0,0,35.8,21.77Zm1.65,6.36A7,7,0,0,1,24.8,32.3,8.79,8.79,0,0,0,26.28,34a7.13,7.13,0,0,1-2.93-7c.17-.52.34-1,.52-1.38a7,7,0,0,1,13.58,2.45ZM27.34,36.9l-.92.47c-.35-.39-.67-.74-1-1,0,0-.17.44-.44.08,0,0-.39,0-.08.24a9.35,9.35,0,0,1,1.06.9,4,4,0,0,1-1,.38,2.84,2.84,0,0,1-1.9-.36c-.47-.34-1.26-.95-.76-1.33a5.72,5.72,0,0,0,1.84-2c.32-.83.34-1.27-.7-1.46a11.25,11.25,0,0,0-3.1.21s-1.05.44-.7,1a6.7,6.7,0,0,0,1.52,2,.55.55,0,0,1,.22.57,1.1,1.1,0,0,1-.66.62c-.32.16-1.65.65-1.65.65a1.31,1.31,0,0,1-.62-.1L17,37c.26-.26.41-.39.41-.39-.22,0-.57-.24-.57-.24l-.32.4-.88-.4c.45-.27.71-.41.71-.41s-.49.06-.46-.14-.4,0-.4,0l-.35.28-.73-.35c.31-.12.48-.17.48-.17-.33-.26.38-.63.38-.63l-.08-.07a7.32,7.32,0,0,0,4.77-4L20,30.8a1.92,1.92,0,0,1,2.16-1c.45,0,.89.47,1.16.83A7.67,7.67,0,0,0,28,35.34c-.08,0-.14,0-.08.07s0,.38,0,.38l.77.4-1,.56-.45-.41s-.63-.47-.62-.66-.22.55-.22.55A5,5,0,0,1,27.34,36.9Zm-5.62-3.33a10.19,10.19,0,0,1,1.36-.22c.43,0,.73.15.6.57a1.59,1.59,0,0,1-.68.71C23,33.65,21.72,33.57,21.72,33.57Zm6.51,1.85a7.7,7.7,0,0,0,1.26.3L29,36Zm5.75-25a5.24,5.24,0,0,0,2.85-1.9s-.27,1.39-.65,2.6A43.24,43.24,0,0,0,35.47,17a6.53,6.53,0,0,1-.73,2.93,4.1,4.1,0,0,0-.38.38.41.41,0,0,1,.49,0,4.14,4.14,0,0,0-.14,1.41,7.64,7.64,0,0,0-3.36-1.18,7.32,7.32,0,0,0,1.52-3.29c-.56,1.59-1,2.77-1.94,3.26h-.35a7.08,7.08,0,0,0-1.13.09c-.94-.62-1.12-2.86-.19-5.18C30.39,12.61,31.86,11.1,34,10.41ZM12.2,13.58a2.46,2.46,0,0,0,.87.76,11.09,11.09,0,0,1,1.74,1.25l-1.47-1.82c3.82,1.88,4.46,3.2,4.78,3.58a1.09,1.09,0,0,0,.89.33,6.08,6.08,0,0,1-1.46,1.6,2.13,2.13,0,0,0,1.14-.68,12.07,12.07,0,0,0,1.51-2.44s0,.6,0,1.25.38,0,.38,0l1-2.74c.59,3.48,2.08,3.7,2.49,3.63s.19-.7.19-.7a9.32,9.32,0,0,1,2.85-3.36,5.21,5.21,0,0,1-.3.56.84.84,0,0,0-.08.71,14.93,14.93,0,0,1,2.63-2.63c.7-.28.44.46.44.46a17.48,17.48,0,0,0-1.33,3.17c-.48,2.22-.15,3.58.51,4.21a7.65,7.65,0,0,0-4.2,2.49,11.14,11.14,0,0,0-1.95,3.42c-.31.75-1.36.43-1.69.38s-.6-.77-.8-1.21a7.31,7.31,0,0,0-7-5.25h-.29a.14.14,0,0,0,0-.06c.48-1.54-.53-3.71-1.57-4.94a33.73,33.73,0,0,1-2.09-2.84A9.35,9.35,0,0,1,12.2,13.58Zm-6.61.57c-.32-1.08-2.06-5-2.06-5S6.91,12,8.3,13A13.31,13.31,0,0,1,12.1,17c1,1.7.79,3.36.29,3.44s-.91-.36-1.3-1.14a4.58,4.58,0,0,0-1.62-1.46,5.31,5.31,0,0,1,1.68,2.06,4.69,4.69,0,0,0,.67.75A7.32,7.32,0,0,0,8,22.84H8C7.09,19.06,5.91,15.23,5.59,14.15Zm4.8,7.74.49-.42a6.53,6.53,0,0,1,5.26.09l.15.17a5.19,5.19,0,0,1,.66.35l-.27-.23a8.17,8.17,0,0,1,1.56,1.22l.06.07a6.2,6.2,0,0,1,1.82,3.35,6.41,6.41,0,0,1,.1,1.28.19.19,0,0,1,0,.08s0,.06,0,.09,0,.24,0,.35l-.06.55,0,.15-.06.35c0,.13-.07.27-.11.4l-.06.21a4.68,4.68,0,0,1-.18.48l0,.07c-.08.19-.16.36-.23.49l-.1.16a6.72,6.72,0,1,1-9-9.26ZM6.13,40c-.13-.49-.46-.24-.46-.24a23.93,23.93,0,0,0-2.22,2.74,23.38,23.38,0,0,1,.73-7.08c.23-.74-.33-.35-.33-.35L2.14,36.77a20.8,20.8,0,0,1,4.07-7.39,7.31,7.31,0,0,0,6.57,5.71l-.12,0h-.1l0,0-.45.15c-4.72,1.63-5.86,3.07-5.86,3.07,1.75-1.57,6.13-2.66,6.54-2.79s.43.19.43.19a25.11,25.11,0,0,0-6.67,5.42A8.41,8.41,0,0,1,6.13,40Zm3.61.6a1.5,1.5,0,0,0-.93-.35s-.41,1.3-.4.73-.44-1.11-.3-.71a3.63,3.63,0,0,1-.3,1.79,2.31,2.31,0,0,0,0,1.14A8.1,8.1,0,0,1,6.64,41.3,24,24,0,0,1,13.82,36l.81.51A28.5,28.5,0,0,0,10.15,41Zm.43.39A22.37,22.37,0,0,1,15,36.73a3.07,3.07,0,0,0,.36.2l.69.37a41.09,41.09,0,0,0-3.73,5.47C11.43,42.1,10.65,41.43,10.17,41Zm16.16,4.06A11.35,11.35,0,0,0,23.49,47a2.48,2.48,0,0,0-.11-1.44,12.3,12.3,0,0,1-1.6.95c-.2,0,.19-.71.19-.71l-.57.44c-.32.22-1.68,1.22-1.68,1.22a8.23,8.23,0,0,0,.54-1c.18-.46-.12-.22-.57,0a5.49,5.49,0,0,0-1,.73,5.23,5.23,0,0,0-3.15-2.52,14.53,14.53,0,0,1-3.13-1.81,29.08,29.08,0,0,1,4.08-5.3c1.3.67,2.6,1.21,3.15.87a4.32,4.32,0,0,1,1.57-.73h1a1,1,0,0,1,.46.19c.25.18.92.55,1.06.7a1.2,1.2,0,0,0,1,.25c.1,0,.79-.4,1.66-.86a59.67,59.67,0,0,1,4.28,4.79A14.91,14.91,0,0,1,26.33,45.07Zm4.4-2.4c-1.26-1.62-2.74-3.49-4-4.93l1-.53c.51.42,1.18,1,2.05,1.84s1.65,1.52,2.48,2.26A19.77,19.77,0,0,1,30.73,42.67Zm2.72-.52c.29-.22.45-.36.45-.36a1.42,1.42,0,0,1,.35,1.1Zm4.44.31A6.4,6.4,0,0,0,37.18,41l.91.56A7.6,7.6,0,0,1,37.89,42.46Zm1.84-7.81c2.67,2.42,2.93,6.65,2.93,6.65A7.77,7.77,0,0,0,37.83,38c-.35,0,.11.48.11.48a6.4,6.4,0,0,1,.17,2.94c-.33-.22-.7-.45-1.1-.68a2.27,2.27,0,0,0-1.67-1l-1.61-.89,1.47.89h-.08c-.37,0-.16.7-.16.7a4.1,4.1,0,0,1-.68-.7c-.16-.27-.6-.05-.6-.05a18.67,18.67,0,0,1-1.29,1.44L28,37.08l1.18-.63c1.13.59,2.84,1.49,4.57,2.44l-4.14-2.53-.11-.07.57-.31,6,2.9s-3.85-2-5.79-3l.16-.09h.17a7.63,7.63,0,0,0,7.53-6.4l.08.17a23.36,23.36,0,0,1,4.52,6.91A5.57,5.57,0,0,0,39.73,34.65Z"/><path class="cls-2" d="M18.3,23.14l-.06-.07"/><path class="cls-2" d="M20.21,28.29l-.06.55"/><path class="cls-2" d="M20.12,29l-.06.35"/><path class="cls-2" d="M19.71,30.43l0,.07"/><path class="cls-2" d="M20,29.74l-.06.21"/></g></g></svg>