<svg xmlns="http://www.w3.org/2000/svg" viewBox="0 0 625.86 212.17"><defs><style>.cls-1{fill:#fff;}</style></defs><g id="Capa_2" data-name="Capa 2"><g id="Capa_1-2" data-name="Capa 1"><path class="cls-1" d="M0,56H25.5V67.78h.37a30.43,30.43,0,0,1,4.34-4.9,33.06,33.06,0,0,1,6.28-4.53A39.33,39.33,0,0,1,44.35,55a30.94,30.94,0,0,1,9-1.3,46.32,46.32,0,0,1,18.11,3.42,40.35,40.35,0,0,1,13.95,9.61,43,43,0,0,1,9,14.69,53.57,53.57,0,0,1,3.13,18.66,56.57,56.57,0,0,1-2.86,18,49.63,49.63,0,0,1-8.13,15.24A39.67,39.67,0,0,1,73.73,144a36.61,36.61,0,0,1-17.19,4,47.45,47.45,0,0,1-16.16-2.68,25.73,25.73,0,0,1-12.29-9.15h-.37v67.65H0Zm25.5,44.9q0,10.17,5.82,16.45t16.36,6.28q10.51,0,16.35-6.28t5.82-16.45Q69.85,90.7,64,84.4T47.68,78.12q-10.55,0-16.36,6.28T25.5,100.85"/><path class="cls-1" d="M583.75,144.66H558.26V132.83h-.38a30.86,30.86,0,0,1-4.34,4.9,33.06,33.06,0,0,1-6.28,4.53,39.24,39.24,0,0,1-7.85,3.32,31,31,0,0,1-9.06,1.29,46.31,46.31,0,0,1-18.11-3.41,40.58,40.58,0,0,1-13.95-9.61,43,43,0,0,1-9-14.69,53.59,53.59,0,0,1-3.14-18.67,56.52,56.52,0,0,1,2.87-18,49.47,49.47,0,0,1,8.13-15.25A39.77,39.77,0,0,1,510,56.61a36.42,36.42,0,0,1,17.18-4,47.55,47.55,0,0,1,16.17,2.68,25.82,25.82,0,0,1,12.29,9.14H556V0h27.71ZM558.26,99.75q0-10.16-5.82-16.44c-3.89-4.19-9.33-6.28-16.36-6.28s-12.47,2.09-16.35,6.28-5.82,9.67-5.82,16.44,1.94,12.26,5.82,16.45,9.33,6.28,16.35,6.28,12.47-2.09,16.36-6.28,5.82-9.67,5.82-16.45"/><rect class="cls-1" x="108.32" y="55.95" width="27.72" height="89.81"/><polygon class="cls-1" points="174.32 97.71 144.38 55.95 177.09 55.95 192.98 80.34 208.32 55.95 239.18 55.95 209.98 97.71 244.54 145.75 211.83 145.75 192.24 115.82 171.18 145.75 138.84 145.75 174.32 97.71"/><path class="cls-1" d="M332,130.23a44.11,44.11,0,0,1-16.81,13.12A50.35,50.35,0,0,1,294.1,148a56.58,56.58,0,0,1-19.5-3.33,46.75,46.75,0,0,1-15.89-9.51,44.55,44.55,0,0,1-10.62-14.88,46.94,46.94,0,0,1-3.88-19.4,47,47,0,0,1,3.88-19.4,44.55,44.55,0,0,1,10.62-14.88,47.07,47.07,0,0,1,15.89-9.51,56.58,56.58,0,0,1,19.5-3.33,44.33,44.33,0,0,1,17.46,3.33,36.45,36.45,0,0,1,13.3,9.51,43.28,43.28,0,0,1,8.41,14.88,60,60,0,0,1,3,19.4v8.69h-64.3a21.92,21.92,0,0,0,7.21,12.65,20.38,20.38,0,0,0,13.67,4.72,20.76,20.76,0,0,0,11.55-3.06,30.89,30.89,0,0,0,8.22-7.85ZM308.51,90.69a16.06,16.06,0,0,0-4.62-12,16.42,16.42,0,0,0-12.38-5A20.27,20.27,0,0,0,277.37,79a16.89,16.89,0,0,0-3.88,5.36,17.66,17.66,0,0,0-1.57,6.38Z"/><rect class="cls-1" x="347.53" y="6.06" width="27.71" height="139.69"/><path class="cls-1" d="M474.33,130.23a44.14,44.14,0,0,1-16.82,13.12A50.32,50.32,0,0,1,436.45,148,56.48,56.48,0,0,1,417,144.64a46.79,46.79,0,0,1-15.9-9.51,44.83,44.83,0,0,1-10.62-14.88,46.94,46.94,0,0,1-3.88-19.4,47,47,0,0,1,3.88-19.4,44.83,44.83,0,0,1,10.62-14.88A47.11,47.11,0,0,1,417,57.06a56.48,56.48,0,0,1,19.49-3.33,44.33,44.33,0,0,1,17.46,3.33,36.49,36.49,0,0,1,13.31,9.51,43.43,43.43,0,0,1,8.4,14.88,60,60,0,0,1,3,19.4v8.69H414.27a21.92,21.92,0,0,0,7.21,12.65,20.4,20.4,0,0,0,13.67,4.72,20.76,20.76,0,0,0,11.55-3.06,30.92,30.92,0,0,0,8.23-7.85ZM450.86,90.69a16.06,16.06,0,0,0-4.62-12,16.41,16.41,0,0,0-12.38-5,20.73,20.73,0,0,0-8.13,1.48,20.39,20.39,0,0,0-6,3.78,16.76,16.76,0,0,0-3.89,5.36,17.86,17.86,0,0,0-1.57,6.38Z"/><path class="cls-1" d="M591.86,129.86a17.35,17.35,0,0,1,1.29-6.65,16.27,16.27,0,0,1,3.61-5.45,16.58,16.58,0,0,1,5.45-3.61,17.79,17.79,0,0,1,13.3,0,16.68,16.68,0,0,1,5.45,3.61,16.4,16.4,0,0,1,3.6,5.45,17.66,17.66,0,0,1,0,13.3,16.28,16.28,0,0,1-9,9.06,17.79,17.79,0,0,1-13.3,0,16.34,16.34,0,0,1-9.06-9.06,17.32,17.32,0,0,1-1.29-6.65"/><path class="cls-1" d="M64.12,172.66H58.33a.51.51,0,0,0-.55.55v29.08a.52.52,0,0,0,.55.56h5.79a.52.52,0,0,0,.56-.56V173.21A.51.51,0,0,0,64.12,172.66Z"/><path class="cls-1" d="M91.33,181.47a7.33,7.33,0,0,0-4.86,1.88c-.72.55-1.19.76-2,0a7.76,7.76,0,0,0-5.15-1.92,7.5,7.5,0,0,0-4.68,1.75c-.68.6-.94.64-1.36,0l-.56-.89a.65.65,0,0,0-.63-.39h-3a.52.52,0,0,0-.55.56v19.79a.52.52,0,0,0,.55.56h5.67a.52.52,0,0,0,.55-.56V191.82c0-2.85.94-4.34,3-4.34,1.53,0,2.26,1,2.26,2.64v12.17a.52.52,0,0,0,.55.56h5.62a.52.52,0,0,0,.55-.56V191.82c0-2.85,1.07-4.34,3-4.34,1.61,0,2.25,1,2.25,2.72v12.09a.52.52,0,0,0,.55.56H98.7a.52.52,0,0,0,.55-.56V189.35C99.25,184.37,96.44,181.47,91.33,181.47Z"/><path class="cls-1" d="M113.85,181.47a7.83,7.83,0,0,0-5.45,1.92c-.38.34-.72.47-1.07,0l-.63-1a.66.66,0,0,0-.64-.39h-3a.52.52,0,0,0-.56.56v29.12a.52.52,0,0,0,.56.55h5.66a.51.51,0,0,0,.55-.55v-9.24l1,.42a6.74,6.74,0,0,0,2.86.52c6.13,0,9.87-4.22,9.87-10.95S119.51,181.47,113.85,181.47Zm-1.24,15.89a5.94,5.94,0,0,1-2.59-.56l-.85-.38v-4.73c0-2.6,1.23-4.21,3.4-4.21,2.43,0,3.84,1.83,3.84,4.89S115.08,197.36,112.61,197.36Z"/><path class="cls-1" d="M138.5,181.47c-3,.09-4.68.77-6.51,2.68-.51.56-.68.43-1.07-.12l-1.1-1.7a.66.66,0,0,0-.64-.39h-3a.52.52,0,0,0-.55.56v19.79a.52.52,0,0,0,.55.56h5.67a.52.52,0,0,0,.55-.56v-3.44c0-8.52,1.45-11.16,6.13-11.37.38,0,.55-.17.55-.56V182A.51.51,0,0,0,138.5,181.47Z"/><path class="cls-1" d="M160.13,188.67c0-4.39-3.28-7.2-8.6-7.2-6.69,0-10.56,4.22-10.56,10.95s3.79,10.9,10.77,10.9a18.8,18.8,0,0,0,4-.47l2.64-.64a.51.51,0,0,0,.42-.68l-1.19-4.43a.46.46,0,0,0-.64-.38l-2.55.55a15.57,15.57,0,0,1-2.73.3,3.8,3.8,0,0,1-3.87-2.13l5-.72C157.74,194,160.13,192.08,160.13,188.67Zm-12.69,2.43a3.76,3.76,0,0,1,3.83-3.88c1.71,0,2.55.51,2.55,1.53s-.63,1.54-1.95,1.67Z"/><path class="cls-1" d="M173.75,190.24l-3.62-.85c-.72-.21-1.1-.68-1.1-1.11,0-.67.63-1.06,1.74-1.06a21.66,21.66,0,0,1,4,.43l2.17.51a.47.47,0,0,0,.64-.38l1.28-4.43a.48.48,0,0,0-.38-.68l-2.13-.51a26,26,0,0,0-5.54-.69c-5.23,0-8.3,2.52-8.3,6.81,0,3.24,1.88,5.12,6,6.05l3.37.85c.85.22,1.23.73,1.23,1.28,0,.72-.59,1.15-1.66,1.15a27.22,27.22,0,0,1-5.24-.68l-2-.51a.46.46,0,0,0-.64.38l-1.27,4.51a.49.49,0,0,0,.38.69l2.26.55a26.71,26.71,0,0,0,6.51.77c5.19,0,8.26-2.56,8.26-6.86C179.67,193.14,177.84,191.22,173.75,190.24Z"/><path class="cls-1" d="M189.72,181.94h-8.39a.52.52,0,0,0-.55.56v4.81a.51.51,0,0,0,.55.55h2.22v14.43a.52.52,0,0,0,.55.56h5.62a.52.52,0,0,0,.55-.56V182.5A.52.52,0,0,0,189.72,181.94Z"/><path class="cls-1" d="M186.36,179.22c2.42,0,3.78-1.49,3.78-3.92s-1.36-3.87-3.78-3.87a3.5,3.5,0,0,0-3.8,3.87C182.56,177.73,184,179.22,186.36,179.22Z"/><path class="cls-1" d="M200.62,179.13h4.55a.83.83,0,0,0,.68-.34l4.17-6.26c.22-.38.09-.68-.38-.68h-6.26a.59.59,0,0,0-.63.43l-2.56,6.21C200,178.88,200.23,179.13,200.62,179.13Z"/><path class="cls-1" d="M203.26,181.47c-6.43,0-10.39,4.26-10.39,10.9s4,10.95,10.39,10.95,10.34-4.22,10.34-10.95S209.64,181.47,203.26,181.47Zm0,15.88c-2.34,0-3.79-1.87-3.79-5s1.45-4.89,3.79-4.89,3.74,1.83,3.74,4.89S205.55,197.35,203.26,197.35Z"/><path class="cls-1" d="M227.23,181.47a7.62,7.62,0,0,0-4.94,1.8c-.64.55-.9.59-1.32-.05l-.56-.89a.66.66,0,0,0-.64-.39h-3a.52.52,0,0,0-.55.56v19.79a.52.52,0,0,0,.55.56h5.67a.52.52,0,0,0,.55-.56V191.82c0-2.85,1.14-4.34,3.19-4.34,1.49,0,2.38,1,2.38,2.72v12.09a.52.52,0,0,0,.56.56h5.66a.52.52,0,0,0,.55-.56V189.35C235.31,184.37,232.25,181.47,227.23,181.47Z"/><path class="cls-1" d="M253.83,181.77a16.11,16.11,0,0,0-4.64.64l-1.62.47a.44.44,0,0,0-.34.59l.94,3.16a.45.45,0,0,0,.6.34l1.53-.47a11.56,11.56,0,0,1,3.32-.43c3.15,0,4.81,1.41,4.81,4v.26h-5.32c-5,0-7.75,2.55-7.75,6.56s2.64,6.43,7.37,6.43a7.49,7.49,0,0,0,5.83-2.26c.55-.51.81-.51,1.06.08l.34,1.32a.53.53,0,0,0,.56.39h2.13a.42.42,0,0,0,.46-.47V189.9C263.11,184.75,259.58,181.77,253.83,181.77Zm4.6,12.56c0,3.15-1.83,4.81-5.19,4.81-2.05,0-3.2-1-3.2-2.68,0-1.45,1-2.43,3.07-2.43h5.32Z"/><path class="cls-1" d="M281.29,199.27c-.13-.3-.29-.3-.59-.25h-.3c-.55,0-.85-.43-.85-1.15V172.79a.43.43,0,0,0-.47-.47h-3.79a.43.43,0,0,0-.47.47v25.08c0,3.44,2.09,5.45,5.58,5.45a5.11,5.11,0,0,0,2-.39.44.44,0,0,0,.21-.64Z"/><path class="cls-1" d="M292.83,181.77a16.06,16.06,0,0,0-4.64.64l-1.62.47a.44.44,0,0,0-.34.59l.94,3.16a.44.44,0,0,0,.59.34l1.54-.47a11.51,11.51,0,0,1,3.32-.43c3.15,0,4.81,1.41,4.81,4v.26h-5.32c-5,0-7.75,2.55-7.75,6.56s2.64,6.43,7.36,6.43a7.5,7.5,0,0,0,5.84-2.26c.55-.51.81-.51,1.06.08l.34,1.32a.53.53,0,0,0,.56.39h2.12a.43.43,0,0,0,.47-.47V189.9C302.11,184.75,298.58,181.77,292.83,181.77Zm4.6,12.56c0,3.15-1.83,4.81-5.2,4.81-2,0-3.19-1-3.19-2.68,0-1.45,1-2.43,3.07-2.43h5.32Z"/><path class="cls-1" d="M332.59,182.2h-4a.62.62,0,0,0-.55.34l-3,7.15a35,35,0,0,0-2,7c-.13.46-.6.46-.69,0a43.21,43.21,0,0,0-2-7l-3-7.15a.62.62,0,0,0-.55-.34h-4c-.35,0-.52.21-.39.55l4.22,10.05c1.27,3.32,2.55,6.94,3.27,9.66a.53.53,0,0,0,.56.39h4.51a.51.51,0,0,0,.55-.39c.73-2.72,2-6.38,3.28-9.66L333,182.75C333.11,182.41,332.94,182.2,332.59,182.2Z"/><path class="cls-1" d="M339.32,177.73a2.88,2.88,0,1,0-2.85-2.9A2.63,2.63,0,0,0,339.32,177.73Z"/><path class="cls-1" d="M341.7,182.2h-6.34a.43.43,0,0,0-.47.47v3.27a.42.42,0,0,0,.47.47h2.09v16a.42.42,0,0,0,.46.47h3.79a.43.43,0,0,0,.47-.47V182.67A.43.43,0,0,0,341.7,182.2Z"/><path class="cls-1" d="M357,191l-4.26-1.11c-1.32-.38-1.91-1-1.91-2,0-1.16,1.14-1.88,3.1-1.88a16.4,16.4,0,0,1,4.13.51l1.88.51a.43.43,0,0,0,.59-.34l.9-3.19a.45.45,0,0,0-.34-.6l-1.88-.46a20.81,20.81,0,0,0-5.28-.69c-4.93,0-7.79,2.3-7.79,6.14,0,3.06,1.66,4.89,5.2,5.78l4.3,1.11c1.4.43,2,1.07,2,2.09,0,1.32-1.19,2.13-3.28,2.13a22,22,0,0,1-5.45-.73l-1.53-.42a.42.42,0,0,0-.56.29l-1,3.2a.44.44,0,0,0,.34.59l1.66.47a23.7,23.7,0,0,0,6.52.9c5,0,8-2.43,8-6.43C362.35,193.82,360.69,191.91,357,191Z"/><path class="cls-1" d="M376.27,182.2h-4.76v-6.3c0-.34-.22-.47-.56-.39l-3.78,1.28a.51.51,0,0,0-.39.51v4.9h-2.09a.42.42,0,0,0-.46.47v3.27a.42.42,0,0,0,.46.47h2.09v10.35c0,4.13,2.34,6.56,6.39,6.56a6.24,6.24,0,0,0,2.89-.73.45.45,0,0,0,.21-.64l-1.36-2.89c-.12-.3-.34-.34-.64-.21a3.33,3.33,0,0,1-1.1.17c-1,0-1.66-.81-1.66-2.26V186.41h4.76a.43.43,0,0,0,.47-.47v-3.27A.43.43,0,0,0,376.27,182.2Z"/><path class="cls-1" d="M386.83,181.77a16.11,16.11,0,0,0-4.64.64l-1.61.47a.44.44,0,0,0-.35.59l.94,3.16a.45.45,0,0,0,.6.34l1.53-.47a11.56,11.56,0,0,1,3.32-.43c3.15,0,4.81,1.41,4.81,4v.26h-5.32c-5,0-7.75,2.55-7.75,6.56s2.64,6.43,7.37,6.43a7.49,7.49,0,0,0,5.83-2.26c.55-.51.81-.51,1.06.08l.34,1.32a.53.53,0,0,0,.56.39h2.13a.43.43,0,0,0,.47-.47V189.9C396.12,184.75,392.58,181.77,386.83,181.77Zm4.6,12.56c0,3.15-1.83,4.81-5.19,4.81-2,0-3.2-1-3.2-2.68,0-1.45,1-2.43,3.07-2.43h5.32Z"/><path class="cls-1" d="M425.62,172.32h-3.79a.43.43,0,0,0-.47.47v10.26l-1.23-.55a8.45,8.45,0,0,0-3.79-.73c-6,0-9.54,4.09-9.54,10.73s3.36,10.82,8.94,10.82a7.77,7.77,0,0,0,5.92-2.65c.43-.46.72-.38.85,0l.47,1.79a.44.44,0,0,0,.51.39h2.13a.43.43,0,0,0,.47-.47V172.79A.43.43,0,0,0,425.62,172.32Zm-4.22,20.43c0,3.58-1.7,6.27-4.89,6.27s-5-2.47-5-6.52,1.92-6.47,5.15-6.47a8.29,8.29,0,0,1,3.5.73l1.27.59Z"/><path class="cls-1" d="M447.59,188.54c0-4.21-3.11-6.77-8.22-6.77-6.22,0-9.88,4.13-9.88,10.77s3.62,10.78,10.05,10.78a18,18,0,0,0,4.34-.56l2-.51a.44.44,0,0,0,.34-.6l-.85-3.19a.45.45,0,0,0-.6-.34l-1.87.47a11.42,11.42,0,0,1-3.36.43c-2.68,0-4.39-1.41-4.86-3.67l6.69-1C445.58,193.69,447.59,191.82,447.59,188.54Zm-13.37,3.15c.34-3.91,2.25-5.66,5.06-5.66,2.3,0,3.62.89,3.62,2.59,0,1.11-.81,1.8-2.3,2Z"/><path class="cls-1" d="M469.55,182.2h-4.76v-6.3c0-.34-.22-.47-.56-.39l-3.79,1.28a.51.51,0,0,0-.38.51v4.9H458a.43.43,0,0,0-.47.47v3.27a.43.43,0,0,0,.47.47h2.09v10.35c0,4.13,2.34,6.56,6.39,6.56a6.28,6.28,0,0,0,2.89-.73.45.45,0,0,0,.21-.64l-1.36-2.89c-.13-.3-.34-.34-.64-.21a3.33,3.33,0,0,1-1.1.17c-1,0-1.66-.81-1.66-2.26V186.41h4.76a.43.43,0,0,0,.47-.47v-3.27A.43.43,0,0,0,469.55,182.2Z"/><path class="cls-1" d="M481.82,181.77c-6.09,0-9.84,4.17-9.84,10.73s3.75,10.82,9.84,10.82,9.79-4.18,9.79-10.82S487.86,181.77,481.82,181.77Zm0,17.25c-3.24,0-5.16-2.43-5.16-6.52s1.92-6.47,5.16-6.47,5.1,2.43,5.1,6.47S485,199,481.82,199Z"/><path class="cls-1" d="M512.81,172.32H509a.43.43,0,0,0-.47.47v10.26l-1.23-.55a8.39,8.39,0,0,0-3.79-.73c-6,0-9.54,4.09-9.54,10.73s3.36,10.82,8.94,10.82a7.77,7.77,0,0,0,5.92-2.65c.43-.46.72-.38.85,0l.47,1.79a.44.44,0,0,0,.51.39h2.13a.43.43,0,0,0,.47-.47V172.79A.43.43,0,0,0,512.81,172.32Zm-4.22,20.43c0,3.58-1.7,6.27-4.89,6.27s-5-2.47-5-6.52,1.92-6.47,5.16-6.47a8.21,8.21,0,0,1,3.49.73l1.27.59Z"/><path class="cls-1" d="M526.52,181.77c-6.09,0-9.83,4.17-9.83,10.73s3.74,10.82,9.83,10.82,9.79-4.18,9.79-10.82S532.56,181.77,526.52,181.77Zm0,17.25c-3.24,0-5.15-2.43-5.15-6.52s1.91-6.47,5.15-6.47,5.11,2.43,5.11,6.47S529.67,199,526.52,199Z"/><path class="cls-1" d="M550.1,191l-4.26-1.11c-1.32-.38-1.91-1-1.91-2,0-1.16,1.15-1.88,3.11-1.88a16.4,16.4,0,0,1,4.13.51l1.87.51a.44.44,0,0,0,.6-.34l.89-3.19a.44.44,0,0,0-.34-.6l-1.87-.46a20.94,20.94,0,0,0-5.28-.69c-4.94,0-7.79,2.3-7.79,6.14,0,3.06,1.66,4.89,5.19,5.78l4.3,1.11c1.4.43,2,1.07,2,2.09,0,1.32-1.19,2.13-3.28,2.13a21.89,21.89,0,0,1-5.44-.73l-1.54-.42a.41.41,0,0,0-.55.29l-1,3.2a.44.44,0,0,0,.34.59l1.66.47a23.69,23.69,0,0,0,6.51.9c5,0,8-2.43,8-6.43C555.47,193.82,553.81,191.91,550.1,191Z"/></g></g></svg>