<svg xmlns="http://www.w3.org/2000/svg" viewBox="0 0 1107.85 40.64"><defs><style>.cls-1{fill:#e40053;}.cls-2{fill:#fff;}</style></defs><g id="Capa_2" data-name="Capa 2"><g id="Capa_1-2" data-name="Capa 1"><path class="cls-1" d="M20,40.32a20,20,0,1,1,20-20A20,20,0,0,1,20,40.32ZM20,3A17.31,17.31,0,1,0,37.32,20.32,17.33,17.33,0,0,0,20,3Z"/><path class="cls-1" d="M32.59,26.72H8V12.35H32.59ZM9.5,25.18H31.05V13.89H9.5Z"/><rect class="cls-1" x="19.13" y="27.73" width="2.29" height="4.7"/><path class="cls-1" d="M22.79,32.69h-5a.83.83,0,0,1,.82-.83H22a.83.83,0,0,1,.83.83Z"/><path class="cls-1" d="M17.38,10.53h0a1,1,0,0,1,1,1v0a0,0,0,0,1,0,0H16.43a0,0,0,0,1,0,0v0A1,1,0,0,1,17.38,10.53Z"/><rect class="cls-1" x="17.11" y="11.14" width="0.54" height="1.49"/><path class="cls-1" d="M23.16,10.53h0a1,1,0,0,1,1,1v0a0,0,0,0,1,0,0H22.2a0,0,0,0,1,0,0v0A1,1,0,0,1,23.16,10.53Z"/><rect class="cls-1" x="22.89" y="11.14" width="0.55" height="1.49"/><path class="cls-1" d="M28.93,10.53h0a1,1,0,0,1,1,1v0a0,0,0,0,1,0,0H28a0,0,0,0,1,0,0v0A1,1,0,0,1,28.93,10.53Z"/><rect class="cls-1" x="28.66" y="11.14" width="0.54" height="1.49"/><path class="cls-1" d="M11.61,10.53h0a1,1,0,0,1,1,1v0a0,0,0,0,1,0,0H10.66a0,0,0,0,1,0,0v0a1,1,0,0,1,1-1Z"/><rect class="cls-1" x="11.34" y="11.14" width="0.54" height="1.49"/><path class="cls-2" d="M52.4,10.72c2.22,0,3.51,1.22,3.51,3.27s-1.47,3.42-4,3.42H50.73v2.95a.17.17,0,0,1-.18.18H48.66a.17.17,0,0,1-.17-.18V10.9a.17.17,0,0,1,.17-.18Zm-1.67,4.74h1.19c1.09,0,1.73-.54,1.73-1.47a1.17,1.17,0,0,0-1.25-1.3H50.73Z"/><path class="cls-2" d="M58.75,19.24l-.41,1.16a.2.2,0,0,1-.21.14h-2c-.14,0-.19-.08-.15-.21L58,15a43.37,43.37,0,0,0,1.32-4.16.19.19,0,0,1,.2-.16h2.58a.21.21,0,0,1,.21.16A40.63,40.63,0,0,0,63.6,15l2,5.29c0,.13,0,.21-.16.21h-2a.2.2,0,0,1-.21-.14l-.41-1.16Zm3.18-2.51a22.7,22.7,0,0,1-1-3.29c-.05-.17-.21-.17-.25,0a25.05,25.05,0,0,1-1,3.29l-.19.56h2.66Z"/><path class="cls-2" d="M75.34,20.36a.17.17,0,0,1-.18.18H72.69a.19.19,0,0,1-.2-.14c-.21-.48-.47-1-.7-1.47l-2-4c-.18-.37-.34-.68-.5-1s-.25-.13-.24.05a15.41,15.41,0,0,1,.16,2.52v3.88a.17.17,0,0,1-.18.18H67.18a.17.17,0,0,1-.18-.18V10.9a.17.17,0,0,1,.18-.18h2.47a.2.2,0,0,1,.21.14c.22.49.48,1,.7,1.47l2,4c.17.35.32.67.5,1s.25.13.22-.06a14.07,14.07,0,0,1-.15-2.49V10.9a.17.17,0,0,1,.18-.18h1.87a.17.17,0,0,1,.18.18Z"/><path class="cls-2" d="M84.91,12.51a.16.16,0,0,1-.18.18H82v7.67a.17.17,0,0,1-.18.18H80a.17.17,0,0,1-.18-.18V12.69H77a.18.18,0,0,1-.19-.18V10.9a.18.18,0,0,1,.19-.18h7.69a.16.16,0,0,1,.18.18Z"/><path class="cls-2" d="M87.22,19.24l-.41,1.16a.2.2,0,0,1-.21.14H84.65c-.14,0-.2-.08-.15-.21l2-5.29a40.63,40.63,0,0,0,1.31-4.16.21.21,0,0,1,.21-.16h2.58a.21.21,0,0,1,.21.16A40.63,40.63,0,0,0,92.07,15l2,5.29c0,.13,0,.21-.15.21h-2a.2.2,0,0,1-.21-.14l-.42-1.16Zm3.17-2.51a24,24,0,0,1-1-3.29c0-.17-.2-.17-.25,0a24.89,24.89,0,0,1-1,3.29l-.19.56h2.66Z"/><path class="cls-2" d="M101.73,18.59a.17.17,0,0,1,.18.18v1.59a.17.17,0,0,1-.18.18H95.65a.17.17,0,0,1-.18-.18V10.9a.17.17,0,0,1,.18-.18h1.88a.17.17,0,0,1,.18.18v7.69Z"/><path class="cls-2" d="M109.84,18.59a.17.17,0,0,1,.18.18v1.59a.17.17,0,0,1-.18.18h-6.08a.17.17,0,0,1-.18-.18V10.9a.17.17,0,0,1,.18-.18h1.88a.17.17,0,0,1,.18.18v7.69Z"/><path class="cls-2" d="M113.93,19.24l-.41,1.16a.21.21,0,0,1-.21.14h-2c-.14,0-.2-.08-.16-.21l2-5.29a40.63,40.63,0,0,0,1.31-4.16.21.21,0,0,1,.21-.16h2.57a.19.19,0,0,1,.21.16A43.37,43.37,0,0,0,118.78,15l2,5.29c0,.13,0,.21-.15.21h-2a.2.2,0,0,1-.21-.14L118,19.24Zm3.17-2.51a24,24,0,0,1-1-3.29c0-.17-.2-.17-.25,0a24.89,24.89,0,0,1-1,3.29l-.19.56h2.66Z"/><path class="cls-2" d="M124.63,16.32c-1.9-.71-2.59-1.4-2.59-2.91,0-1.82,1.37-2.84,3.56-2.84a7,7,0,0,1,2.21.36l.92.31a.16.16,0,0,1,.12.22L128.29,13c0,.11-.11.15-.23.11l-.81-.25a5.56,5.56,0,0,0-1.65-.29c-.78,0-1.3.33-1.3.83s.43.7,1.22,1l1.16.42c1.92.73,2.62,1.45,2.62,3,0,1.9-1.29,2.91-3.65,2.91a8.07,8.07,0,0,1-2.72-.45L122,20a.17.17,0,0,1-.12-.23l.55-1.53c0-.11.11-.16.22-.11l1,.29a6.64,6.64,0,0,0,2,.33c.75,0,1.39-.18,1.39-.92,0-.41-.48-.73-1.25-1Z"/><path class="cls-2" d="M54.75,32.83a.17.17,0,0,1,.18.18V34.6a.17.17,0,0,1-.18.18H48.66a.17.17,0,0,1-.17-.18V25.14a.17.17,0,0,1,.17-.18h1.89a.17.17,0,0,1,.18.18v7.69Z"/><path class="cls-2" d="M62.23,28.76a.17.17,0,0,1,.18.18v1.59a.17.17,0,0,1-.18.18H58.84v2.12h4.53a.17.17,0,0,1,.18.18V34.6a.17.17,0,0,1-.18.18h-6.6a.17.17,0,0,1-.17-.18V25.14a.17.17,0,0,1,.17-.18h6.67c.12,0,.18.08.15.21l-.44,1.6a.2.2,0,0,1-.2.16H58.84v1.83Z"/><path class="cls-2" d="M68.83,25c2.77,0,4.43,1.91,4.43,4.92s-1.72,4.9-4.43,4.9H65.4a.17.17,0,0,1-.18-.18V25.14A.17.17,0,0,1,65.4,25Zm-1.37,7.87h1.37c1.34,0,2.17-1.07,2.17-2.95s-.83-2.95-2.17-2.95H67.46Z"/><path class="cls-1" d="M288.39,40.32a20,20,0,1,1,20-20A20,20,0,0,1,288.39,40.32Zm0-37.31A17.31,17.31,0,1,0,305.7,20.32,17.32,17.32,0,0,0,288.39,3Z"/><rect class="cls-1" x="286.14" y="28.48" width="3.64" height="4.34"/><path class="cls-1" d="M292,33.13h-8a1,1,0,0,1,1-1h5.95a1,1,0,0,1,1,1Z"/><rect class="cls-1" x="286.14" y="7.61" width="3.64" height="3.17"/><path class="cls-1" d="M295,17.44H279.67V10.16H295l4.2,3.64Zm-14.13-1.15h13.7l2.87-2.49-2.87-2.49h-13.7Z"/><path class="cls-1" d="M295.88,27.09H280.59l-4.2-3.65,4.2-3.64h15.29ZM281,25.93h13.71V21H281l-2.87,2.49Z"/><path class="cls-2" d="M319.32,23.55c-1.9-.7-2.59-1.4-2.59-2.9,0-1.82,1.37-2.84,3.56-2.84a7,7,0,0,1,2.21.36l.92.3a.16.16,0,0,1,.12.22L323,20.24c0,.11-.11.16-.22.11l-.81-.25a5.9,5.9,0,0,0-1.65-.29c-.78,0-1.3.34-1.3.84s.43.7,1.22,1l1.16.43c1.92.72,2.62,1.44,2.62,2.95,0,1.9-1.29,2.91-3.65,2.91a7.84,7.84,0,0,1-2.72-.46l-.92-.29a.16.16,0,0,1-.12-.22l.55-1.54a.15.15,0,0,1,.22-.11l1,.29a6.69,6.69,0,0,0,2,.34c.75,0,1.39-.19,1.39-.92,0-.41-.49-.73-1.25-1Z"/><path class="cls-2" d="M331.22,21.75a.17.17,0,0,1,.18.18v1.59a.17.17,0,0,1-.18.19h-3.39v2.11h4.53a.17.17,0,0,1,.18.18v1.6a.17.17,0,0,1-.18.18h-6.59a.17.17,0,0,1-.18-.18V18.14a.17.17,0,0,1,.18-.18h6.66c.12,0,.18.08.15.21l-.44,1.6a.2.2,0,0,1-.2.16h-4.11v1.82Z"/><path class="cls-2" d="M339.9,27.78a.22.22,0,0,1-.21-.14c-.2-.49-.47-1-.69-1.47l-2-4c-.18-.36-.33-.68-.49-1-.12-.2-.25-.12-.24.06a16.66,16.66,0,0,1,.15,2.52V27.6a.17.17,0,0,1-.18.18h-1.88a.17.17,0,0,1-.18-.18V18.14a.17.17,0,0,1,.18-.18h2.46a.19.19,0,0,1,.21.14c.22.48.49,1,.71,1.47l2,4c.16.36.32.68.5,1s.24.14.22-.05a14.12,14.12,0,0,1-.15-2.5v-3.9a.17.17,0,0,1,.17-.18h1.88a.17.17,0,0,1,.18.18V27.6a.17.17,0,0,1-.18.18Zm-3.75-11.9a1.44,1.44,0,0,1,1.41-.84,2.38,2.38,0,0,1,.94.25l.4.16a1.2,1.2,0,0,0,.27.08.29.29,0,0,0,.29-.2l.07-.13a.21.21,0,0,1,.21-.12h1.14c.14,0,.2.08.13.21l-.38.76a1.44,1.44,0,0,1-1.42.8,2.53,2.53,0,0,1-.89-.22l-.45-.18a1.12,1.12,0,0,0-.28-.08c-.08,0-.18,0-.28.19l-.05.13a.25.25,0,0,1-.23.12H335.9c-.14,0-.19-.08-.13-.21Z"/><path class="cls-2" d="M346.72,26.48l-.42,1.16a.21.21,0,0,1-.2.14h-2c-.14,0-.2-.09-.16-.21l2-5.29a42.58,42.58,0,0,0,1.31-4.17.2.2,0,0,1,.21-.15H350a.2.2,0,0,1,.21.15,42.67,42.67,0,0,0,1.32,4.17l1.95,5.29c0,.12,0,.21-.15.21h-1.95a.22.22,0,0,1-.21-.14l-.42-1.16ZM349.89,24a24.55,24.55,0,0,1-1-3.3c0-.16-.21-.16-.25,0a26.6,26.6,0,0,1-1,3.3l-.19.55h2.66Z"/><path class="cls-2" d="M361.23,25.82a.17.17,0,0,1,.18.18v1.6a.17.17,0,0,1-.18.18h-6.08a.17.17,0,0,1-.18-.18V18.14a.17.17,0,0,1,.18-.18H357a.17.17,0,0,1,.18.18v7.68Z"/><path class="cls-2" d="M368.71,21.75a.17.17,0,0,1,.19.18v1.59a.17.17,0,0,1-.19.19h-3.39v2.11h4.53A.17.17,0,0,1,370,26v1.6a.17.17,0,0,1-.18.18h-6.59a.17.17,0,0,1-.18-.18V18.14a.17.17,0,0,1,.18-.18h6.66c.12,0,.18.08.15.21l-.44,1.6a.2.2,0,0,1-.2.16h-4.11v1.82Z"/><path class="cls-2" d="M379.34,19.74a.17.17,0,0,1-.18.19h-2.72V27.6a.17.17,0,0,1-.18.18h-1.87a.17.17,0,0,1-.18-.18V19.93h-2.75a.18.18,0,0,1-.18-.19v-1.6a.17.17,0,0,1,.18-.18h7.7a.16.16,0,0,1,.18.18Z"/><path class="cls-2" d="M383.1,27.6a.17.17,0,0,1-.18.18H381a.17.17,0,0,1-.18-.18V18.14A.17.17,0,0,1,381,18h1.88a.17.17,0,0,1,.18.18Z"/><path class="cls-2" d="M391.33,27.6a6,6,0,0,1-2.08.33c-2.78,0-4.48-1.95-4.48-5.07s1.7-5.05,4.48-5.05a6,6,0,0,1,2.06.29l.64.21c.11,0,.15.1.11.22l-.5,1.56a.15.15,0,0,1-.22.11l-.65-.21a4.68,4.68,0,0,0-1.44-.18c-1.38,0-2.23,1.13-2.23,3.05s.85,3.08,2.23,3.08a4.39,4.39,0,0,0,1.43-.21l.65-.2a.15.15,0,0,1,.22.12l.55,1.5c0,.12,0,.18-.11.23Z"/><path class="cls-2" d="M396.14,26.48l-.42,1.16a.2.2,0,0,1-.2.14h-1.95c-.14,0-.2-.09-.16-.21l2-5.29a40,40,0,0,0,1.31-4.17.2.2,0,0,1,.21-.15h2.57a.18.18,0,0,1,.21.15A42.67,42.67,0,0,0,401,22.28l1.95,5.29c0,.12,0,.21-.15.21h-2a.22.22,0,0,1-.21-.14l-.42-1.16ZM399.31,24a24.55,24.55,0,0,1-1-3.3c0-.16-.21-.16-.25,0a26.6,26.6,0,0,1-1,3.3l-.19.55h2.66Z"/><path class="cls-1" d="M448.29,40.33a20,20,0,1,1,20-20A20,20,0,0,1,448.29,40.33Zm0-37.32A17.31,17.31,0,1,0,465.6,20.32,17.32,17.32,0,0,0,448.29,3Z"/><path class="cls-1" d="M456,29.33H440.61V9.55l.71-.06c.21,0,5.21-.4,7-.4s6.75.39,7,.4l.71.06Zm-13.81-1.54h12.27V11c-1.47-.1-4.82-.34-6.13-.34s-4.67.24-6.14.34Z"/><rect class="cls-1" x="446.69" y="30.45" width="3.2" height="2.04"/><path class="cls-1" d="M451.79,32.76h-7a.89.89,0,0,1,.89-.89h5.23a.89.89,0,0,1,.89.89Z"/><path class="cls-2" d="M479.12,17l-.41,1.16a.2.2,0,0,1-.21.14h-1.95c-.14,0-.19-.08-.15-.21l2-5.29a42.67,42.67,0,0,0,1.32-4.17.19.19,0,0,1,.2-.15h2.58a.21.21,0,0,1,.21.15A40,40,0,0,0,484,12.82l1.95,5.29c.05.13,0,.21-.15.21h-1.95a.2.2,0,0,1-.21-.14L483.2,17Zm3.18-2.51a22.55,22.55,0,0,1-1-3.3c0-.16-.2-.16-.24,0a26.09,26.09,0,0,1-1,3.3l-.2.55h2.66Z"/><path class="cls-2" d="M495.71,18.14a.17.17,0,0,1-.18.18h-2.47a.2.2,0,0,1-.21-.14c-.2-.49-.47-1-.69-1.47l-2-4c-.18-.36-.34-.67-.5-1-.11-.2-.25-.12-.24.06a15.46,15.46,0,0,1,.15,2.52v3.88a.16.16,0,0,1-.17.18h-1.89a.17.17,0,0,1-.18-.18V8.68a.17.17,0,0,1,.18-.18H490a.2.2,0,0,1,.21.14c.22.48.48,1,.7,1.47l2,4c.17.36.32.68.5,1s.25.14.22-.05a14.07,14.07,0,0,1-.15-2.49V8.68a.17.17,0,0,1,.18-.18h1.87a.17.17,0,0,1,.18.18Z"/><path class="cls-2" d="M505.35,14.26c0,2.69-1.44,4.21-3.92,4.21S497.5,17,497.5,14.26V8.68a.17.17,0,0,1,.18-.18h1.89a.16.16,0,0,1,.17.18v5.58c0,1.43.63,2.22,1.69,2.22s1.69-.79,1.69-2.22V8.68a.17.17,0,0,1,.18-.18h1.87a.17.17,0,0,1,.18.18Z"/><path class="cls-2" d="M515.5,18.14a.17.17,0,0,1-.18.18h-2.46a.19.19,0,0,1-.21-.14c-.21-.49-.47-1-.7-1.47l-2-4c-.18-.36-.34-.67-.5-1-.11-.2-.25-.12-.24.06a15.41,15.41,0,0,1,.16,2.52v3.88a.17.17,0,0,1-.18.18h-1.89a.17.17,0,0,1-.18-.18V8.68a.17.17,0,0,1,.18-.18h2.47a.2.2,0,0,1,.21.14c.22.48.48,1,.7,1.47l2,4c.17.36.32.68.5,1s.25.14.22-.05a14.07,14.07,0,0,1-.15-2.49V8.68a.17.17,0,0,1,.18-.18h1.87a.17.17,0,0,1,.18.18Z"/><path class="cls-2" d="M523.72,18.14a6,6,0,0,1-2.08.33c-2.78,0-4.49-1.95-4.49-5.07s1.71-5.05,4.49-5.05a6.26,6.26,0,0,1,2.06.29l.64.21a.15.15,0,0,1,.11.22l-.5,1.56c0,.11-.11.16-.22.11l-.65-.2a4.36,4.36,0,0,0-1.44-.19c-1.39,0-2.23,1.13-2.23,3.05s.84,3.08,2.23,3.08a4.39,4.39,0,0,0,1.43-.21l.65-.19a.15.15,0,0,1,.22.11l.55,1.5c0,.12,0,.19-.11.23Z"/><path class="cls-2" d="M528.53,18.14a.17.17,0,0,1-.18.18h-1.88a.17.17,0,0,1-.18-.18V8.68a.17.17,0,0,1,.18-.18h1.88a.17.17,0,0,1,.18.18Z"/><path class="cls-2" d="M539,13.4c0,3.1-1.67,5.07-4.4,5.07s-4.42-2-4.42-5.07,1.68-5.05,4.42-5.05S539,10.29,539,13.4Zm-6.56,0c0,1.9.82,3.08,2.16,3.08s2.14-1.18,2.14-3.08-.8-3.05-2.14-3.05S532.45,11.46,532.45,13.4Z"/><path class="cls-2" d="M543.05,14.1c-1.9-.71-2.59-1.4-2.59-2.91,0-1.82,1.37-2.84,3.56-2.84a7,7,0,0,1,2.21.36l.92.3c.12.05.15.11.12.22l-.57,1.56c0,.11-.1.15-.22.11l-.82-.25a5.46,5.46,0,0,0-1.64-.3c-.78,0-1.3.34-1.3.84s.43.7,1.21,1l1.17.43c1.92.72,2.62,1.44,2.62,3,0,1.9-1.29,2.91-3.65,2.91a7.84,7.84,0,0,1-2.72-.46l-.92-.29a.16.16,0,0,1-.12-.22l.55-1.54a.15.15,0,0,1,.22-.11l1,.29a6.69,6.69,0,0,0,2,.34c.75,0,1.39-.18,1.39-.92,0-.41-.49-.73-1.25-1Z"/><path class="cls-2" d="M483.14,30.61a.16.16,0,0,1,.18.17v1.6a.17.17,0,0,1-.18.18h-6.08a.17.17,0,0,1-.18-.18V22.92a.17.17,0,0,1,.18-.18H479a.16.16,0,0,1,.17.18v7.69Z"/><path class="cls-2" d="M492.64,28.5c0,2.69-1.44,4.21-3.92,4.21s-3.94-1.52-3.94-4.21V22.92a.17.17,0,0,1,.18-.18h1.89a.17.17,0,0,1,.18.18V28.5c0,1.43.62,2.22,1.69,2.22s1.69-.79,1.69-2.22V22.92a.17.17,0,0,1,.18-.18h1.86a.17.17,0,0,1,.19.18Z"/><path class="cls-2" d="M504.34,32.38a.17.17,0,0,1-.17.18H502.3a.17.17,0,0,1-.18-.18V29.46a28.83,28.83,0,0,1,.16-3.49c0-.2-.14-.24-.19-.06-.14.38-.29.75-.44,1.12l-.77,2.11-.46,1.38a.17.17,0,0,1-.19.15h-1.67a.18.18,0,0,1-.2-.15c-.16-.5-.33-1-.47-1.38L497.13,27c-.14-.37-.29-.73-.43-1.11-.07-.18-.23-.14-.21.06a28.82,28.82,0,0,1,.2,3.49v2.92a.17.17,0,0,1-.18.18h-1.89a.16.16,0,0,1-.17-.18V22.92a.16.16,0,0,1,.17-.18h2.8a.17.17,0,0,1,.19.15c.1.31.21.67.31.94l.72,2.09c.22.64.5,1.49.65,2.11,0,.17.18.17.22,0,.15-.64.4-1.5.61-2.11l.75-2.09a8,8,0,0,0,.3-.94.2.2,0,0,1,.21-.15h2.79a.17.17,0,0,1,.17.18Z"/><path class="cls-2" d="M508.52,32.38a.17.17,0,0,1-.18.18h-1.88a.17.17,0,0,1-.18-.18V22.92a.17.17,0,0,1,.18-.18h1.88a.17.17,0,0,1,.18.18Z"/><path class="cls-2" d="M518.79,32.38a.17.17,0,0,1-.18.18h-2.46a.2.2,0,0,1-.21-.14c-.21-.49-.47-1-.69-1.47l-2-4c-.18-.36-.33-.67-.5-1-.11-.2-.25-.12-.23.06a16.66,16.66,0,0,1,.15,2.52v3.88a.17.17,0,0,1-.18.18h-1.88a.17.17,0,0,1-.18-.18V22.92a.17.17,0,0,1,.18-.18h2.46a.2.2,0,0,1,.21.14c.22.48.48,1,.7,1.47l2,4c.16.36.31.68.49,1s.25.14.22-.05a15.14,15.14,0,0,1-.15-2.5v-3.9a.17.17,0,0,1,.18-.18h1.87a.17.17,0,0,1,.18.18Z"/><path class="cls-2" d="M529.27,27.64c0,3.1-1.68,5.07-4.41,5.07s-4.41-2-4.41-5.07,1.67-5.05,4.41-5.05S529.27,24.53,529.27,27.64Zm-6.57,0c0,1.9.82,3.08,2.16,3.08S527,29.54,527,27.64s-.8-3-2.15-3S522.7,25.7,522.7,27.64Z"/><path class="cls-2" d="M533.31,28.33c-1.9-.7-2.59-1.39-2.59-2.9,0-1.82,1.37-2.84,3.56-2.84a7,7,0,0,1,2.21.36l.92.3a.16.16,0,0,1,.12.22L537,25c0,.11-.11.16-.22.11l-.82-.24a5.5,5.5,0,0,0-1.64-.29c-.78,0-1.31.33-1.31.83s.43.7,1.22,1l1.17.43c1.92.72,2.61,1.44,2.61,2.95,0,1.9-1.28,2.91-3.64,2.91a7.92,7.92,0,0,1-2.73-.46l-.91-.29a.16.16,0,0,1-.13-.22l.56-1.54a.15.15,0,0,1,.22-.11l1,.29a6.69,6.69,0,0,0,2,.34c.75,0,1.39-.19,1.39-.92,0-.41-.49-.73-1.25-1Z"/><path class="cls-2" d="M548.12,27.64c0,3.1-1.68,5.07-4.41,5.07s-4.41-2-4.41-5.07,1.67-5.05,4.41-5.05S548.12,24.53,548.12,27.64Zm-6.57,0c0,1.9.82,3.08,2.16,3.08s2.15-1.18,2.15-3.08-.8-3-2.15-3S541.55,25.7,541.55,27.64Z"/><path class="cls-2" d="M552.15,28.33c-1.89-.7-2.58-1.39-2.58-2.9,0-1.82,1.37-2.84,3.55-2.84a7,7,0,0,1,2.22.36l.91.3c.13,0,.16.11.13.22L555.81,25c0,.11-.11.16-.22.11l-.82-.24a5.51,5.51,0,0,0-1.65-.29c-.77,0-1.3.33-1.3.83s.43.7,1.22,1l1.17.43c1.92.72,2.61,1.44,2.61,2.95,0,1.9-1.29,2.91-3.64,2.91a7.92,7.92,0,0,1-2.73-.46l-.91-.29a.16.16,0,0,1-.13-.22L550,30.2a.15.15,0,0,1,.22-.11l1,.29a6.59,6.59,0,0,0,2,.34c.75,0,1.38-.19,1.38-.92,0-.41-.48-.73-1.24-1Z"/><path class="cls-2" d="M204,16.3a.17.17,0,0,1,.18.19V18.1a.17.17,0,0,1-.18.19h-6.18a.17.17,0,0,1-.18-.19V8.5a.17.17,0,0,1,.18-.18h1.91a.17.17,0,0,1,.19.18v7.8Z"/><path class="cls-2" d="M211.55,12.17a.17.17,0,0,1,.18.18V14a.17.17,0,0,1-.18.18H208.1V16.3h4.6a.17.17,0,0,1,.19.19V18.1a.17.17,0,0,1-.19.19H206a.17.17,0,0,1-.18-.19V8.5a.17.17,0,0,1,.18-.18h6.76c.13,0,.19.08.16.21l-.45,1.63a.2.2,0,0,1-.2.15H208.1v1.86Z"/><path class="cls-2" d="M222.35,10.13a.17.17,0,0,1-.19.18h-2.77V18.1a.17.17,0,0,1-.18.19h-1.9a.17.17,0,0,1-.18-.19V10.31h-2.79a.17.17,0,0,1-.18-.18V8.5a.17.17,0,0,1,.18-.18h7.82a.17.17,0,0,1,.19.18Z"/><path class="cls-2" d="M228,8.32c2.23,0,3.54,1.13,3.54,3a2.7,2.7,0,0,1-1.66,2.51c-.2.1-.18.17,0,.27a3.35,3.35,0,0,1,1.22,1.55l1,2.38c.05.12,0,.21-.13.21h-2a.21.21,0,0,1-.21-.14l-.62-1.51c-.51-1.22-1-1.9-2.52-1.9h-.39V18.1a.17.17,0,0,1-.19.19h-1.91a.17.17,0,0,1-.18-.19V8.5a.17.17,0,0,1,.18-.18Zm-.3,4.44c1.06,0,1.55-.39,1.55-1.22A1.17,1.17,0,0,0,228,10.31h-1.83v2.45Z"/><path class="cls-2" d="M235.91,17l-.42,1.19a.23.23,0,0,1-.21.14h-2c-.14,0-.2-.09-.15-.21l2-5.38a43.92,43.92,0,0,0,1.34-4.23.2.2,0,0,1,.21-.15h2.61a.2.2,0,0,1,.22.15,41.2,41.2,0,0,0,1.33,4.23l2,5.38c0,.12,0,.21-.16.21h-2a.22.22,0,0,1-.21-.14L240,17Zm3.22-2.54a23.55,23.55,0,0,1-1-3.35c0-.17-.21-.17-.25,0a25.84,25.84,0,0,1-1,3.35l-.19.56h2.7Z"/><path class="cls-2" d="M246.78,14c-1.93-.72-2.64-1.42-2.64-3,0-1.84,1.4-2.88,3.62-2.88a6.93,6.93,0,0,1,2.25.37l.93.31a.16.16,0,0,1,.13.22l-.58,1.57a.16.16,0,0,1-.23.12l-.83-.26a6,6,0,0,0-1.67-.29c-.79,0-1.32.34-1.32.84s.44.72,1.24,1l1.18.43c1.95.73,2.66,1.46,2.66,3,0,1.93-1.31,3-3.7,3a8.09,8.09,0,0,1-2.77-.46l-.93-.3c-.13,0-.16-.11-.13-.22l.56-1.56c0-.12.12-.16.23-.12l1,.3a6.87,6.87,0,0,0,2.06.34c.76,0,1.4-.19,1.4-.93,0-.42-.49-.75-1.26-1Z"/><path class="cls-2" d="M198.66,23a5.79,5.79,0,0,1,2.05-.37c2.17,0,3.45,1,3.45,2.8A1.9,1.9,0,0,1,203,27.33c-.16.09-.16.18,0,.24A2.47,2.47,0,0,1,204.49,30c0,1.86-1.4,3-3.77,3a7.41,7.41,0,0,1-2.29-.4l-.94-.32c-.13,0-.15-.12-.11-.23l.57-1.5a.16.16,0,0,1,.23-.12l.9.3a5.56,5.56,0,0,0,1.64.3c1,0,1.54-.48,1.54-1.26s-.52-1.17-1.39-1.17H200a.18.18,0,0,1-.19-.19V26.74a.17.17,0,0,1,.19-.18h.81c.68,0,1.07-.36,1.07-.88,0-.68-.46-1.07-1.21-1.07a4.52,4.52,0,0,0-1.45.26l-.79.27a.15.15,0,0,1-.22-.11l-.54-1.55c0-.11,0-.18.12-.22Z"/><path class="cls-2" d="M209.92,22.78c2.81,0,4.5,1.94,4.5,5s-1.74,5-4.5,5h-3.49a.17.17,0,0,1-.18-.18V23a.17.17,0,0,1,.18-.18Zm-1.39,8h1.39c1.36,0,2.21-1.09,2.21-3s-.85-3-2.21-3h-1.39Z"/><path class="cls-1" d="M168.66,40.64A20.32,20.32,0,1,1,189,20.32,20.35,20.35,0,0,1,168.66,40.64Zm0-37.9a17.58,17.58,0,1,0,17.58,17.58A17.59,17.59,0,0,0,168.66,2.74Z"/><path class="cls-1" d="M167.44,10.71h4.79L179.41,31h-4.6l-1.34-4.17H166L164.63,31H160.2Zm-.28,12.62h5.19l-2.56-8Z"/><polygon class="cls-1" points="160.21 31.02 156.9 27.71 164.22 7.44 168.92 7.44 172.32 10.78 172.05 11.06 168.76 7.83 164.5 7.83 157.35 27.6 160.49 30.74 160.21 31.02"/><rect class="cls-1" x="781.01" y="23.59" width="10.92" height="1.54"/><path class="cls-1" d="M800.09,25.13h-2.75V23.59h1.21V19.86a.56.56,0,0,0-.56-.56h-3.91L789.88,14H777l-2.06,6v3.57h.94v1.54h-2.48V19.77l2.5-7.27h14.76l4.2,5.26H798a2.1,2.1,0,0,1,2.1,2.1Z"/><path class="cls-1" d="M778.73,28A3.22,3.22,0,1,1,782,24.74,3.23,3.23,0,0,1,778.73,28Zm0-5.1a1.88,1.88,0,1,0,1.87,1.88A1.88,1.88,0,0,0,778.73,22.86Z"/><path class="cls-1" d="M794.4,28a3.22,3.22,0,1,1,3.22-3.22A3.22,3.22,0,0,1,794.4,28Zm0-5.1a1.88,1.88,0,1,0,1.87,1.88A1.88,1.88,0,0,0,794.4,22.86Z"/><path class="cls-1" d="M786.22,40.32a20,20,0,1,1,20-20A20,20,0,0,1,786.22,40.32Zm0-37.31a17.31,17.31,0,1,0,17.31,17.31A17.32,17.32,0,0,0,786.22,3Z"/><rect class="cls-1" x="777.18" y="17.05" width="12.54" height="1.15" transform="translate(217.77 559.95) rotate(-45.08)"/><rect class="cls-1" x="780.13" y="17.43" width="12.54" height="0.38" transform="translate(217.87 561.23) rotate(-45)"/><path class="cls-2" d="M818.74,8.5c2.21,0,3.49,1.12,3.49,3A2.67,2.67,0,0,1,820.6,14c-.19.09-.18.16,0,.26a3.36,3.36,0,0,1,1.2,1.52l1,2.34c0,.13,0,.21-.14.21h-2a.2.2,0,0,1-.21-.14l-.61-1.48c-.5-1.21-.94-1.87-2.48-1.87h-.39v3.31a.17.17,0,0,1-.18.18h-1.88a.17.17,0,0,1-.18-.18V8.68a.17.17,0,0,1,.18-.18Zm-.29,4.38c1,0,1.53-.39,1.53-1.21a1.15,1.15,0,0,0-1.24-1.2h-1.8v2.41Z"/><path class="cls-2" d="M832.64,13.4c0,3.1-1.68,5.07-4.4,5.07s-4.42-2-4.42-5.07,1.68-5.05,4.42-5.05S832.64,10.29,832.64,13.4Zm-6.56,0c0,1.9.81,3.08,2.16,3.08s2.14-1.18,2.14-3.08-.8-3-2.14-3S826.08,11.46,826.08,13.4Z"/><path class="cls-2" d="M841.68,10.29a.17.17,0,0,1-.18.18h-2.73v7.67a.17.17,0,0,1-.18.18h-1.87a.17.17,0,0,1-.18-.18V10.47H833.8a.17.17,0,0,1-.18-.18V8.68a.17.17,0,0,1,.18-.18h7.7a.17.17,0,0,1,.18.18Z"/><path class="cls-2" d="M850.91,14.26c0,2.69-1.44,4.21-3.92,4.21s-3.93-1.52-3.93-4.21V8.68a.17.17,0,0,1,.18-.18h1.88a.17.17,0,0,1,.18.18v5.58c0,1.43.62,2.22,1.69,2.22s1.69-.79,1.69-2.22V8.68a.17.17,0,0,1,.18-.18h1.87a.17.17,0,0,1,.18.18Z"/><path class="cls-2" d="M859,16.37a.17.17,0,0,1,.18.18v1.59a.17.17,0,0,1-.18.18H852.9a.17.17,0,0,1-.18-.18V8.68a.17.17,0,0,1,.18-.18h1.88a.17.17,0,0,1,.18.18v7.69Z"/><path class="cls-2" d="M863.07,17l-.41,1.16a.22.22,0,0,1-.21.14h-2c-.13,0-.19-.08-.15-.21l2-5.29a42.58,42.58,0,0,0,1.31-4.17.21.21,0,0,1,.21-.15h2.57a.2.2,0,0,1,.21.15,42.67,42.67,0,0,0,1.32,4.17l2,5.29c0,.13,0,.21-.15.21h-2a.2.2,0,0,1-.21-.14L867.14,17Zm3.17-2.51a23.7,23.7,0,0,1-1-3.3c0-.16-.21-.16-.25,0a26.09,26.09,0,0,1-1,3.3l-.19.56h2.66Z"/><path class="cls-2" d="M877.2,18.14a5.94,5.94,0,0,1-2.07.33c-2.79,0-4.49-1.95-4.49-5.07s1.7-5.05,4.49-5.05a6.3,6.3,0,0,1,2.06.29l.64.21a.15.15,0,0,1,.11.22l-.5,1.56c0,.12-.11.16-.22.12l-.65-.21a4.47,4.47,0,0,0-1.44-.18c-1.39,0-2.23,1.12-2.23,3s.84,3.08,2.23,3.08a4.08,4.08,0,0,0,1.42-.21l.65-.19a.14.14,0,0,1,.22.11L878,17.7a.15.15,0,0,1-.11.22Z"/><path class="cls-2" d="M882,18.14a.17.17,0,0,1-.18.18H880a.17.17,0,0,1-.18-.18V8.68A.17.17,0,0,1,880,8.5h1.89a.17.17,0,0,1,.18.18Z"/><path class="cls-2" d="M892.5,13.4c0,3.1-1.68,5.07-4.41,5.07s-4.41-2-4.41-5.07,1.67-5.05,4.41-5.05S892.5,10.29,892.5,13.4Zm-6.57,0c0,1.9.82,3.08,2.16,3.08s2.15-1.18,2.15-3.08-.8-3-2.15-3S885.93,11.46,885.93,13.4Zm4.54-7.92c.17,0,.21.11.1.23L889,7.35a.25.25,0,0,1-.22.1h-1.73c-.15,0-.19-.1-.13-.22l.9-1.62a.23.23,0,0,1,.21-.13Z"/><path class="cls-2" d="M902.49,18.14a.17.17,0,0,1-.18.18h-2.47a.2.2,0,0,1-.21-.14c-.2-.48-.46-1-.69-1.47l-2-4c-.18-.35-.33-.67-.5-1-.11-.21-.25-.13-.24.05a15.6,15.6,0,0,1,.15,2.52v3.88a.16.16,0,0,1-.18.18h-1.88a.17.17,0,0,1-.18-.18V8.68a.17.17,0,0,1,.18-.18h2.47a.2.2,0,0,1,.21.14c.22.48.48,1,.7,1.47l2,4c.17.37.32.68.5,1s.25.14.22-.05a14.07,14.07,0,0,1-.15-2.49V8.68a.17.17,0,0,1,.18-.18h1.87a.17.17,0,0,1,.18.18Z"/><path class="cls-2" d="M821.57,28.25c-.51,1.42-.94,2.77-1.3,4.16a.21.21,0,0,1-.21.15h-2.45a.21.21,0,0,1-.21-.15c-.36-1.39-.79-2.74-1.3-4.16l-2-5.3c0-.13,0-.21.15-.21h2a.2.2,0,0,1,.21.14l1.33,3.67a20.91,20.91,0,0,1,.91,3.2.14.14,0,0,0,.27,0,20.91,20.91,0,0,1,.91-3.2l1.33-3.67a.2.2,0,0,1,.21-.14h2c.14,0,.19.08.15.21Z"/><path class="cls-2" d="M830.54,26.54a.17.17,0,0,1,.18.18v1.59a.17.17,0,0,1-.18.18h-3.4v2.12h4.53a.16.16,0,0,1,.18.18v1.59a.17.17,0,0,1-.18.18h-6.59a.17.17,0,0,1-.18-.18V22.92a.17.17,0,0,1,.18-.18h6.66c.13,0,.18.08.15.21l-.44,1.61a.2.2,0,0,1-.19.15h-4.12v1.83Z"/><path class="cls-2" d="M841.59,32.38a.16.16,0,0,1-.17.18h-1.88a.16.16,0,0,1-.17-.18V28.49h-3.6v3.89a.17.17,0,0,1-.19.18H833.7a.17.17,0,0,1-.18-.18V22.92a.17.17,0,0,1,.18-.18h1.88a.17.17,0,0,1,.19.18v3.62h3.6V22.92a.16.16,0,0,1,.17-.18h1.88a.16.16,0,0,1,.17.18Z"/><path class="cls-2" d="M845.79,32.38a.17.17,0,0,1-.18.18h-1.89a.17.17,0,0,1-.18-.18V22.92a.17.17,0,0,1,.18-.18h1.89a.17.17,0,0,1,.18.18Z"/><path class="cls-2" d="M854,32.38a6,6,0,0,1-2.08.33c-2.78,0-4.49-1.95-4.49-5.06s1.71-5.06,4.49-5.06a6.26,6.26,0,0,1,2.06.29l.64.21a.15.15,0,0,1,.11.22l-.5,1.56c0,.12-.11.16-.22.12l-.65-.21a4.39,4.39,0,0,0-1.44-.18c-1.39,0-2.23,1.12-2.23,3s.84,3.07,2.23,3.07a4.39,4.39,0,0,0,1.43-.21l.65-.2a.15.15,0,0,1,.22.12l.55,1.51c0,.11,0,.18-.11.22Z"/><path class="cls-2" d="M864.29,28.5c0,2.69-1.44,4.21-3.92,4.21s-3.93-1.52-3.93-4.21V22.92a.17.17,0,0,1,.18-.18h1.88a.16.16,0,0,1,.18.18V28.5c0,1.43.63,2.22,1.69,2.22s1.69-.79,1.69-2.22V22.92a.17.17,0,0,1,.18-.18h1.87a.17.17,0,0,1,.18.18Z"/><path class="cls-2" d="M872.36,30.61a.16.16,0,0,1,.18.18v1.59a.17.17,0,0,1-.18.18h-6.08a.17.17,0,0,1-.18-.18V22.92a.17.17,0,0,1,.18-.18h1.88a.17.17,0,0,1,.18.18v7.69Z"/><path class="cls-2" d="M876.45,31.26,876,32.42a.2.2,0,0,1-.21.14h-2c-.14,0-.2-.08-.15-.21l1.95-5.29A40,40,0,0,0,877,22.89a.21.21,0,0,1,.21-.15h2.58a.21.21,0,0,1,.21.15,40,40,0,0,0,1.31,4.17l2,5.29c0,.13,0,.21-.15.21h-2a.2.2,0,0,1-.21-.14l-.42-1.16Zm3.17-2.51a24,24,0,0,1-1-3.29c0-.17-.2-.17-.25,0a26,26,0,0,1-1,3.29l-.19.56h2.66Z"/><path class="cls-2" d="M888.74,22.74c2.21,0,3.49,1.12,3.49,3a2.66,2.66,0,0,1-1.63,2.47c-.19.1-.18.17,0,.27a3.36,3.36,0,0,1,1.2,1.52l1,2.34c0,.13,0,.21-.14.21h-2a.2.2,0,0,1-.21-.14l-.61-1.48c-.5-1.21-.94-1.87-2.48-1.87h-.39v3.31a.17.17,0,0,1-.18.18h-1.88a.17.17,0,0,1-.18-.18V22.92a.17.17,0,0,1,.18-.18Zm-.29,4.38c1,0,1.53-.39,1.53-1.21a1.15,1.15,0,0,0-1.24-1.2h-1.8v2.41Z"/><path class="cls-1" d="M963.62,40.32a20,20,0,1,1,20-20A20,20,0,0,1,963.62,40.32Zm0-37.31a17.31,17.31,0,1,0,17.31,17.31A17.33,17.33,0,0,0,963.62,3Z"/><path class="cls-1" d="M963.79,8.76h-4.18v1.53h4.18V30.34h-4.13v1.54h4.13a11.56,11.56,0,1,0,0-23.12Z"/><rect class="cls-1" x="956.52" y="10.29" width="3.08" height="1.52"/><rect class="cls-1" x="954.98" y="11.81" width="1.54" height="1.52"/><rect class="cls-1" x="953.44" y="13.33" width="1.54" height="3.19"/><polygon class="cls-1" points="953.44 24.17 953.44 16.52 951.9 16.52 951.9 24.17 953.42 24.17 953.42 27.25 954.95 27.25 954.95 24.17 953.44 24.17"/><rect class="cls-1" x="954.95" y="27.25" width="1.53" height="1.54"/><rect class="cls-1" x="956.47" y="28.79" width="3.19" height="1.54"/><path class="cls-2" d="M994.5,18.13a.17.17,0,0,1-.18.19h-1.88a.17.17,0,0,1-.18-.19V8.68a.16.16,0,0,1,.18-.18h1.88a.17.17,0,0,1,.18.18Z"/><path class="cls-2" d="M1006.34,18.13a.17.17,0,0,1-.18.19h-1.88a.17.17,0,0,1-.17-.19V15.21a28.93,28.93,0,0,1,.16-3.49c0-.19-.14-.23-.19-.05-.14.37-.29.75-.44,1.12l-.77,2.11c-.12.36-.29.88-.46,1.38a.17.17,0,0,1-.19.15h-1.67a.18.18,0,0,1-.2-.15c-.16-.5-.33-1-.47-1.38l-.76-2.12c-.14-.38-.29-.74-.43-1.11-.07-.18-.23-.14-.21.05a28.93,28.93,0,0,1,.2,3.49v2.92a.17.17,0,0,1-.18.19h-1.89c-.11,0-.17-.07-.17-.19V8.68a.16.16,0,0,1,.17-.18h2.8a.18.18,0,0,1,.2.15c.09.3.2.66.3.94l.72,2.09c.22.64.5,1.49.65,2.11,0,.16.18.16.22,0,.15-.64.4-1.5.61-2.11l.75-2.09a9.37,9.37,0,0,0,.3-.94.2.2,0,0,1,.21-.15h2.79a.17.17,0,0,1,.18.18Z"/><path class="cls-2" d="M1012.19,8.5c2.21,0,3.5,1.22,3.5,3.27s-1.47,3.42-4,3.42h-1.19v2.94a.17.17,0,0,1-.18.19h-1.88a.17.17,0,0,1-.18-.19V8.68a.17.17,0,0,1,.18-.18Zm-1.68,4.73h1.19c1.1,0,1.73-.54,1.73-1.46a1.16,1.16,0,0,0-1.24-1.3h-1.68Z"/><path class="cls-2" d="M1021.39,8.5c2.2,0,3.49,1.12,3.49,3a2.68,2.68,0,0,1-1.63,2.48c-.2.1-.18.17,0,.27a3.32,3.32,0,0,1,1.21,1.52l1,2.34c0,.12,0,.21-.13.21h-2a.2.2,0,0,1-.2-.14l-.61-1.48c-.5-1.21-1-1.87-2.48-1.87h-.39v3.3a.17.17,0,0,1-.18.19h-1.88a.17.17,0,0,1-.18-.19V8.68a.17.17,0,0,1,.18-.18Zm-.29,4.37c1,0,1.52-.38,1.52-1.2a1.15,1.15,0,0,0-1.23-1.2h-1.8v2.4Z"/><path class="cls-2" d="M1032.57,12.29a.17.17,0,0,1,.18.18v1.59a.17.17,0,0,1-.18.19h-3.39v2.11h4.53a.17.17,0,0,1,.18.18v1.59a.17.17,0,0,1-.18.19h-6.59a.17.17,0,0,1-.18-.19V8.68a.17.17,0,0,1,.18-.18h6.66c.12,0,.18.08.15.21l-.44,1.6a.2.2,0,0,1-.2.16h-4.11v1.82Z"/><path class="cls-2" d="M1037.94,14.09c-1.9-.7-2.59-1.4-2.59-2.91,0-1.81,1.37-2.83,3.56-2.83a6.74,6.74,0,0,1,2.21.36l.92.3a.16.16,0,0,1,.12.22l-.56,1.55c0,.11-.11.16-.22.11l-.82-.25a5.9,5.9,0,0,0-1.65-.29c-.77,0-1.3.34-1.3.83s.43.71,1.22,1l1.16.43c1.92.72,2.62,1.44,2.62,3,0,1.9-1.29,2.91-3.65,2.91a8.16,8.16,0,0,1-2.72-.46l-.92-.29a.16.16,0,0,1-.12-.22l.55-1.54a.15.15,0,0,1,.22-.11l1,.29a6.69,6.69,0,0,0,2,.34c.75,0,1.39-.19,1.39-.92,0-.41-.49-.73-1.25-1Z"/><path class="cls-2" d="M1046.45,18.13a.17.17,0,0,1-.18.19h-1.88a.17.17,0,0,1-.18-.19V8.68a.17.17,0,0,1,.18-.18h1.88a.17.17,0,0,1,.18.18Z"/><path class="cls-2" d="M1056.93,13.4c0,3.1-1.67,5.07-4.4,5.07s-4.42-2-4.42-5.07,1.68-5.05,4.42-5.05S1056.93,10.28,1056.93,13.4Zm-6.56,0c0,1.9.81,3.08,2.16,3.08s2.14-1.18,2.14-3.08-.8-3.05-2.14-3.05S1050.37,11.46,1050.37,13.4Zm4.54-7.92c.17,0,.21.11.1.22l-1.55,1.65a.28.28,0,0,1-.23.1h-1.73c-.15,0-.19-.1-.12-.23l.9-1.62a.21.21,0,0,1,.21-.12Z"/><path class="cls-2" d="M1066.92,18.13a.17.17,0,0,1-.18.19h-2.46a.21.21,0,0,1-.21-.14c-.21-.49-.47-1-.69-1.47l-2-4c-.18-.36-.33-.68-.5-1-.11-.2-.25-.12-.23.06a16.66,16.66,0,0,1,.15,2.52v3.87a.17.17,0,0,1-.18.19h-1.88a.17.17,0,0,1-.18-.19V8.68a.17.17,0,0,1,.18-.18h2.46a.2.2,0,0,1,.21.14c.22.48.49,1,.71,1.47l2,4c.16.36.32.68.5,1s.24.14.22-.05a14.12,14.12,0,0,1-.15-2.5V8.68a.16.16,0,0,1,.17-.18h1.87a.16.16,0,0,1,.18.18Z"/><path class="cls-2" d="M994.5,31.25l-.42,1.17a.2.2,0,0,1-.2.14h-2a.15.15,0,0,1-.15-.21l2-5.29A40.12,40.12,0,0,0,995,22.89a.2.2,0,0,1,.21-.15h2.57a.2.2,0,0,1,.21.15,40.12,40.12,0,0,0,1.32,4.17l1.95,5.29a.15.15,0,0,1-.15.21h-2a.2.2,0,0,1-.2-.14l-.42-1.17Zm3.17-2.5a23.18,23.18,0,0,1-1-3.3c0-.16-.21-.16-.25,0a26.6,26.6,0,0,1-1,3.3l-.2.55h2.66Z"/><path class="cls-2" d="M1009,30.6a.17.17,0,0,1,.18.18v1.6a.17.17,0,0,1-.18.18h-6.08a.17.17,0,0,1-.18-.18V22.92a.17.17,0,0,1,.18-.18h1.88a.17.17,0,0,1,.18.18V30.6Z"/><path class="cls-2" d="M1017.31,24.52a.16.16,0,0,1-.18.18h-2.73v7.68a.17.17,0,0,1-.18.18h-1.87a.17.17,0,0,1-.18-.18V24.7h-2.74a.16.16,0,0,1-.18-.18v-1.6a.17.17,0,0,1,.18-.18h7.7a.17.17,0,0,1,.18.18Z"/><path class="cls-2" d="M1019.62,31.25l-.42,1.17a.2.2,0,0,1-.21.14h-2c-.14,0-.19-.09-.15-.21l2-5.29a42.67,42.67,0,0,0,1.32-4.17.18.18,0,0,1,.21-.15h2.57a.2.2,0,0,1,.21.15,40,40,0,0,0,1.31,4.17l2,5.29c0,.12,0,.21-.16.21h-2a.21.21,0,0,1-.21-.14l-.41-1.17Zm3.17-2.5a23.18,23.18,0,0,1-1-3.3c0-.16-.21-.16-.25,0a26.6,26.6,0,0,1-1,3.3l-.2.55H1023Z"/><path class="cls-2" d="M1034.39,22.74c2.77,0,4.43,1.91,4.43,4.91s-1.72,4.91-4.43,4.91H1031a.17.17,0,0,1-.18-.18V22.92a.17.17,0,0,1,.18-.18ZM1033,30.6h1.38c1.34,0,2.17-1.06,2.17-3s-.83-2.95-2.17-2.95H1033Z"/><path class="cls-2" d="M1046.11,26.53a.17.17,0,0,1,.18.18V28.3a.18.18,0,0,1-.18.19h-3.4V30.6h4.53a.17.17,0,0,1,.18.18v1.6a.17.17,0,0,1-.18.18h-6.59a.17.17,0,0,1-.18-.18V22.92a.17.17,0,0,1,.18-.18h6.66c.13,0,.18.08.15.21l-.44,1.6a.19.19,0,0,1-.19.15h-4.12v1.83Z"/><path class="cls-2" d="M1054.87,27a.17.17,0,0,1,.18.18v1.59a.17.17,0,0,1-.18.19h-3.53v3.42a.17.17,0,0,1-.18.18h-1.89a.16.16,0,0,1-.17-.18V22.92a.16.16,0,0,1,.17-.18h6.66c.13,0,.19.08.16.21l-.45,1.6a.18.18,0,0,1-.19.15h-4.11V27Z"/><path class="cls-2" d="M1059.89,32.38a.17.17,0,0,1-.18.18h-1.88a.17.17,0,0,1-.18-.18V22.92a.17.17,0,0,1,.18-.18h1.88a.17.17,0,0,1,.18.18Z"/><path class="cls-2" d="M1070.16,32.38a.17.17,0,0,1-.18.18h-2.46a.2.2,0,0,1-.21-.14c-.21-.49-.47-1-.69-1.47l-2-4c-.18-.36-.33-.68-.5-1-.11-.2-.25-.12-.23.06a16.66,16.66,0,0,1,.15,2.52v3.88a.17.17,0,0,1-.18.18H1062a.17.17,0,0,1-.18-.18V22.92a.17.17,0,0,1,.18-.18h2.46a.2.2,0,0,1,.21.14c.22.48.48,1,.7,1.46l2,4c.17.36.32.68.5,1s.25.14.22-.05a15.14,15.14,0,0,1-.15-2.5v-3.9a.17.17,0,0,1,.18-.18H1070a.17.17,0,0,1,.18.18Z"/><path class="cls-2" d="M1074.34,32.38a.17.17,0,0,1-.18.18h-1.89a.17.17,0,0,1-.18-.18V22.92a.17.17,0,0,1,.18-.18h1.89a.17.17,0,0,1,.18.18Z"/><path class="cls-2" d="M1082.56,32.38a6,6,0,0,1-2.08.33c-2.78,0-4.48-1.95-4.48-5.07s1.7-5.05,4.48-5.05a6.36,6.36,0,0,1,2.07.29l.63.2a.17.17,0,0,1,.12.23l-.5,1.56c0,.11-.12.15-.23.11l-.65-.21a4.68,4.68,0,0,0-1.44-.18c-1.38,0-2.23,1.13-2.23,3.05s.85,3.07,2.23,3.07a4.38,4.38,0,0,0,1.43-.2l.65-.2a.15.15,0,0,1,.22.11l.55,1.51c.05.11,0,.18-.1.22Z"/><path class="cls-2" d="M1087.37,32.38a.17.17,0,0,1-.18.18h-1.88a.17.17,0,0,1-.18-.18V22.92a.17.17,0,0,1,.18-.18h1.88a.17.17,0,0,1,.18.18Z"/><path class="cls-2" d="M1097.85,27.64c0,3.1-1.67,5.07-4.4,5.07s-4.42-2-4.42-5.07,1.68-5.05,4.42-5.05S1097.85,24.52,1097.85,27.64Zm-6.56,0c0,1.9.82,3.07,2.16,3.07s2.15-1.17,2.15-3.07-.81-3.05-2.15-3.05S1091.29,25.7,1091.29,27.64Zm4.54-7.92c.17,0,.21.11.1.22l-1.55,1.65a.27.27,0,0,1-.22.1h-1.74c-.15,0-.19-.1-.12-.23l.9-1.62a.21.21,0,0,1,.21-.12Z"/><path class="cls-2" d="M1107.85,32.38a.17.17,0,0,1-.18.18h-2.47a.2.2,0,0,1-.21-.14c-.2-.49-.47-1-.69-1.47l-2-4c-.18-.36-.34-.68-.5-1-.11-.2-.25-.12-.24.06a15.46,15.46,0,0,1,.15,2.52v3.88a.17.17,0,0,1-.18.18h-1.88a.17.17,0,0,1-.18-.18V22.92a.17.17,0,0,1,.18-.18h2.47a.19.19,0,0,1,.2.14c.22.48.49,1,.71,1.46l2,4c.16.36.32.68.5,1s.25.14.22-.05a14.12,14.12,0,0,1-.15-2.5v-3.9a.17.17,0,0,1,.18-.18h1.87a.17.17,0,0,1,.18.18Z"/><path class="cls-2" d="M634.06,18.14a.17.17,0,0,1-.18.18H632a.17.17,0,0,1-.18-.18V8.68A.17.17,0,0,1,632,8.5h1.89a.17.17,0,0,1,.18.18Z"/><path class="cls-2" d="M645.9,18.14a.18.18,0,0,1-.19.18h-1.86a.17.17,0,0,1-.19-.18V15.22a28.83,28.83,0,0,1,.17-3.49c0-.2-.14-.24-.19-.06-.14.38-.29.75-.45,1.12l-.76,2.11L642,16.28a.19.19,0,0,1-.2.16h-1.67a.19.19,0,0,1-.2-.16c-.16-.5-.33-1-.47-1.38l-.76-2.12c-.14-.37-.29-.73-.43-1.11-.07-.18-.23-.14-.21.06a28.82,28.82,0,0,1,.2,3.49v2.92a.17.17,0,0,1-.18.18h-1.89a.17.17,0,0,1-.18-.18V8.68a.17.17,0,0,1,.18-.18H639a.17.17,0,0,1,.19.15c.1.31.21.67.31.94l.72,2.1c.22.63.5,1.48.65,2.1,0,.17.18.17.22,0,.15-.64.4-1.49.61-2.1l.75-2.1a8,8,0,0,0,.3-.94.21.21,0,0,1,.21-.15h2.78a.18.18,0,0,1,.19.18Z"/><path class="cls-2" d="M651.74,8.5c2.22,0,3.51,1.22,3.51,3.27s-1.47,3.42-4,3.42h-1.19v3a.17.17,0,0,1-.18.18H648a.17.17,0,0,1-.18-.18V8.68A.17.17,0,0,1,648,8.5Zm-1.67,4.74h1.19c1.09,0,1.73-.54,1.73-1.47a1.17,1.17,0,0,0-1.25-1.3h-1.67Z"/><path class="cls-2" d="M661,8.5c2.2,0,3.49,1.12,3.49,3A2.67,2.67,0,0,1,662.8,14c-.19.1-.17.17,0,.27A3.32,3.32,0,0,1,664,15.77l1,2.34c0,.13,0,.21-.14.21h-2a.19.19,0,0,1-.2-.14L662,16.7c-.5-1.21-.95-1.87-2.48-1.87h-.39v3.31a.17.17,0,0,1-.18.18h-1.88a.17.17,0,0,1-.18-.18V8.68a.17.17,0,0,1,.18-.18Zm-.29,4.38c1,0,1.52-.39,1.52-1.21a1.15,1.15,0,0,0-1.23-1.2h-1.8v2.41Z"/><path class="cls-2" d="M672.13,12.3a.16.16,0,0,1,.18.17v1.6a.17.17,0,0,1-.18.18h-3.39v2.12h4.53a.17.17,0,0,1,.18.18v1.59a.17.17,0,0,1-.18.18h-6.59a.17.17,0,0,1-.18-.18V8.68a.17.17,0,0,1,.18-.18h6.66a.15.15,0,0,1,.15.21l-.44,1.61a.2.2,0,0,1-.2.15h-4.11V12.3Z"/><path class="cls-2" d="M677.5,14.09c-1.9-.7-2.59-1.39-2.59-2.9,0-1.81,1.37-2.84,3.56-2.84a7.12,7.12,0,0,1,2.22.36l.91.3a.17.17,0,0,1,.12.23l-.56,1.55c0,.11-.12.15-.23.11l-.81-.25a5.56,5.56,0,0,0-1.65-.29c-.78,0-1.3.33-1.3.83s.43.7,1.22,1l1.16.43c1.92.72,2.62,1.44,2.62,3,0,1.9-1.29,2.91-3.65,2.91A7.87,7.87,0,0,1,675.8,18l-.92-.29a.16.16,0,0,1-.12-.22l.55-1.54a.15.15,0,0,1,.22-.11l1,.3a7,7,0,0,0,2,.33c.75,0,1.39-.18,1.39-.92,0-.41-.49-.73-1.25-1Z"/><path class="cls-2" d="M686,18.14a.17.17,0,0,1-.18.18H684a.17.17,0,0,1-.18-.18V8.68A.17.17,0,0,1,684,8.5h1.88a.17.17,0,0,1,.18.18Z"/><path class="cls-2" d="M696.49,13.41c0,3.1-1.68,5.06-4.4,5.06s-4.42-2-4.42-5.06,1.68-5.06,4.42-5.06S696.49,10.29,696.49,13.41Zm-6.56,0c0,1.89.81,3.07,2.16,3.07s2.14-1.18,2.14-3.07-.8-3.05-2.14-3.05S689.93,11.46,689.93,13.41Zm4.54-7.93c.16,0,.21.11.09.22L693,7.35a.25.25,0,0,1-.22.1h-1.73c-.15,0-.19-.1-.12-.22l.9-1.62a.21.21,0,0,1,.21-.13Z"/><path class="cls-2" d="M706.48,18.14a.17.17,0,0,1-.18.18h-2.46a.2.2,0,0,1-.21-.14c-.21-.48-.47-1-.69-1.47l-2-4c-.18-.36-.33-.67-.5-1-.11-.21-.25-.13-.23.05a16.66,16.66,0,0,1,.15,2.52v3.88a.17.17,0,0,1-.18.18h-1.88a.17.17,0,0,1-.18-.18V8.68a.17.17,0,0,1,.18-.18h2.46a.2.2,0,0,1,.21.14c.22.49.48,1,.71,1.47l2,4c.16.36.31.68.49,1s.25.14.23-.05a14,14,0,0,1-.16-2.49V8.68a.17.17,0,0,1,.18-.18h1.87a.17.17,0,0,1,.18.18Z"/><path class="cls-2" d="M639.5,27a.17.17,0,0,1,.18.17v4.59a.17.17,0,0,1-.15.19l-1.29.41-.17.05a6.08,6.08,0,0,1-2.06.29c-2.78,0-4.47-1.95-4.47-5.05s1.69-5.07,4.47-5.07a6.46,6.46,0,0,1,2,.32l.72.23c.12.05.15.11.11.22l-.57,1.53c0,.11-.11.15-.22.11l-.66-.21A4.35,4.35,0,0,0,636,24.6c-1.38,0-2.22,1.13-2.22,3.06s.84,3.06,2.22,3.06a4.38,4.38,0,0,0,1.39-.18l.15,0V29h-1.48c-.13,0-.18-.08-.16-.21l.46-1.6a.19.19,0,0,1,.19-.15Z"/><path class="cls-2" d="M645.52,22.74c2.2,0,3.49,1.12,3.49,3a2.68,2.68,0,0,1-1.64,2.48c-.19.09-.18.16,0,.26A3.32,3.32,0,0,1,648.57,30l1,2.34c.05.13,0,.21-.13.21h-2a.2.2,0,0,1-.21-.14l-.61-1.48c-.49-1.21-.94-1.87-2.47-1.87h-.39v3.31a.17.17,0,0,1-.18.18h-1.88a.16.16,0,0,1-.18-.18V22.92a.16.16,0,0,1,.18-.18Zm-.29,4.38c1,0,1.52-.39,1.52-1.21a1.15,1.15,0,0,0-1.23-1.2h-1.8v2.41Z"/><path class="cls-2" d="M653.31,31.26l-.42,1.16a.2.2,0,0,1-.2.14h-2c-.14,0-.19-.08-.15-.21l1.95-5.29a40.12,40.12,0,0,0,1.32-4.17.21.21,0,0,1,.21-.15h2.57a.21.21,0,0,1,.21.15,40.12,40.12,0,0,0,1.32,4.17l2,5.29c0,.13,0,.21-.15.21h-2a.2.2,0,0,1-.2-.14l-.42-1.16Zm3.17-2.51a22.42,22.42,0,0,1-1-3.3c0-.16-.21-.16-.25,0a26.09,26.09,0,0,1-1,3.3l-.2.55h2.66Z"/><path class="cls-2" d="M669.89,32.38a.17.17,0,0,1-.18.18h-2.46a.2.2,0,0,1-.21-.14c-.21-.49-.47-1-.69-1.47l-2-4c-.18-.35-.33-.67-.5-1s-.25-.13-.23.05a16.66,16.66,0,0,1,.15,2.52v3.88a.17.17,0,0,1-.18.18h-1.88a.17.17,0,0,1-.18-.18V22.92a.17.17,0,0,1,.18-.18h2.46a.2.2,0,0,1,.21.14c.22.48.48,1,.71,1.47l2,4c.17.36.32.68.5,1s.25.14.22-.05a15.08,15.08,0,0,1-.15-2.49V22.92a.17.17,0,0,1,.18-.18h1.87a.17.17,0,0,1,.18.18Z"/><path class="cls-2" d="M680.51,27a.17.17,0,0,1,.18.17v1.6a.17.17,0,0,1-.18.18H677v3.42a.16.16,0,0,1-.18.18h-1.88a.17.17,0,0,1-.18-.18V22.92a.17.17,0,0,1,.18-.18h6.66c.13,0,.18.08.15.21l-.44,1.61a.19.19,0,0,1-.19.15H677V27Z"/><path class="cls-2" d="M691.56,27.64c0,3.1-1.67,5.07-4.4,5.07s-4.42-2-4.42-5.07,1.68-5.05,4.42-5.05S691.56,24.53,691.56,27.64Zm-6.56,0c0,1.9.82,3.08,2.16,3.08s2.15-1.18,2.15-3.08-.81-3-2.15-3S685,25.7,685,27.64Z"/><path class="cls-2" d="M697.26,22.74c2.21,0,3.49,1.12,3.49,3a2.69,2.69,0,0,1-1.63,2.48c-.19.09-.18.16,0,.26a3.36,3.36,0,0,1,1.2,1.52l1,2.34c0,.13,0,.21-.14.21h-2a.2.2,0,0,1-.21-.14l-.61-1.48c-.5-1.21-.94-1.87-2.48-1.87h-.39v3.31a.17.17,0,0,1-.18.18H693.4a.17.17,0,0,1-.18-.18V22.92a.17.17,0,0,1,.18-.18ZM697,27.12c1,0,1.53-.39,1.53-1.21a1.15,1.15,0,0,0-1.24-1.2h-1.8v2.41Z"/><path class="cls-2" d="M712.71,32.38a.17.17,0,0,1-.18.18h-1.87a.17.17,0,0,1-.18-.18V29.46a28.83,28.83,0,0,1,.17-3.49c0-.2-.14-.24-.2-.06-.13.38-.29.75-.44,1.12l-.76,2.11c-.12.36-.29.89-.46,1.38a.18.18,0,0,1-.19.16h-1.68a.19.19,0,0,1-.19-.16c-.17-.49-.33-1-.47-1.38L705.5,27c-.14-.37-.3-.73-.43-1.11-.07-.18-.24-.14-.21.06a28.82,28.82,0,0,1,.19,3.49v2.92a.17.17,0,0,1-.18.18H703a.17.17,0,0,1-.18-.18V22.92a.17.17,0,0,1,.18-.18h2.8a.18.18,0,0,1,.19.15c.1.31.21.67.31.94l.72,2.1c.22.63.49,1.48.65,2.1,0,.17.18.17.22,0,.15-.64.4-1.5.61-2.1l.75-2.1a8,8,0,0,0,.3-.94.21.21,0,0,1,.21-.15h2.78a.17.17,0,0,1,.18.18Z"/><path class="cls-2" d="M716.88,31.26l-.41,1.16a.2.2,0,0,1-.21.14h-2c-.14,0-.19-.08-.15-.21l2-5.29a42.67,42.67,0,0,0,1.32-4.17.19.19,0,0,1,.2-.15h2.58a.21.21,0,0,1,.21.15,40,40,0,0,0,1.31,4.17l2,5.29c0,.13,0,.21-.16.21h-1.95a.2.2,0,0,1-.21-.14L721,31.26Zm3.18-2.51a22.42,22.42,0,0,1-1-3.3c0-.16-.21-.16-.25,0a26.09,26.09,0,0,1-1,3.3l-.2.55h2.66Z"/><path class="cls-2" d="M731.32,24.53a.17.17,0,0,1-.18.18h-2.72v7.67a.17.17,0,0,1-.18.18h-1.87a.17.17,0,0,1-.18-.18V24.71h-2.74a.16.16,0,0,1-.18-.18V22.92a.16.16,0,0,1,.18-.18h7.69a.17.17,0,0,1,.18.18Z"/><path class="cls-2" d="M741.12,27.64c0,3.1-1.67,5.07-4.4,5.07s-4.42-2-4.42-5.07,1.68-5.05,4.42-5.05S741.12,24.53,741.12,27.64Zm-6.56,0c0,1.9.82,3.08,2.16,3.08s2.15-1.18,2.15-3.08-.81-3-2.15-3S734.56,25.7,734.56,27.64Z"/><path class="cls-1" d="M603.33,40.32a20,20,0,1,1,20-20A20,20,0,0,1,603.33,40.32Zm0-37.31a17.31,17.31,0,1,0,17.32,17.31A17.33,17.33,0,0,0,603.33,3Z"/><path class="cls-1" d="M594.87,18.94A4.13,4.13,0,1,1,599,14.81,4.13,4.13,0,0,1,594.87,18.94Zm0-7.1a3,3,0,1,0,3,3A3,3,0,0,0,594.87,11.84Z"/><path class="cls-1" d="M610.05,18.94V17.79a3,3,0,1,0,0-5.95H595V10.68h15a4.13,4.13,0,0,1,0,8.26Z"/><path class="cls-1" d="M595.82,22.12a1,1,0,1,1-1-.95A1,1,0,0,1,595.82,22.12Z"/><circle class="cls-1" cx="594.87" cy="14.81" r="0.95"/><path class="cls-1" d="M594.87,26.25A4.13,4.13,0,1,1,599,22.12,4.13,4.13,0,0,1,594.87,26.25Zm0-7.1a3,3,0,1,0,3,3A3,3,0,0,0,594.87,19.15Z"/><path class="cls-1" d="M614,31H597.86v-9.1H599v8h13.87V22.06a3.12,3.12,0,0,0-3.12-3.12h-14.9V17.79h14.9A4.27,4.27,0,0,1,614,22.06Z"/></g></g></svg>