<?xml version="1.0" encoding="UTF-8"?>
<svg id="Capa_2" data-name="Capa 2" xmlns="http://www.w3.org/2000/svg" viewBox="0 0 662.1 172.36">
  <defs>
    <style>
      .cls-1 {
        fill: #13110c;
      }

      .cls-2, .cls-3 {
        fill: #fff;
      }

      .cls-4 {
        fill: #e1194e;
      }

      .cls-5 {
        fill: #b61037;
      }

      .cls-6 {
        fill: #ccd2d3;
      }

      .cls-7 {
        fill: #e50053;
      }

      .cls-8 {
        fill: #322e2b;
      }

      .cls-9 {
        fill: #f192b0;
        opacity: .8;
      }

      .cls-3 {
        stroke: #fff;
        stroke-miterlimit: 10;
        stroke-width: .63px;
      }

      .cls-10 {
        fill: #ed6d91;
        opacity: .7;
      }
    </style>
  </defs>
  <g id="Layer_1" data-name="Layer 1">
    <g>
      <g>
        <path class="cls-1" d="M183.1,49.53h19.52v9.05h.28c.85-1.22,1.95-2.47,3.32-3.75,1.36-1.27,2.97-2.43,4.81-3.47,1.84-1.04,3.84-1.89,6.01-2.55,2.17-.66,4.47-.99,6.93-.99,5.09,0,9.71,.87,13.86,2.61,4.15,1.75,7.71,4.2,10.68,7.35,2.97,3.16,5.26,6.91,6.86,11.24,1.6,4.34,2.4,9.1,2.4,14.28,0,4.81-.73,9.4-2.19,13.79-1.46,4.38-3.53,8.27-6.22,11.67-2.68,3.4-5.96,6.1-9.83,8.13-3.87,2.03-8.25,3.04-13.15,3.04-4.43,0-8.55-.68-12.37-2.05-3.82-1.37-6.95-3.7-9.41-7h-.28v51.77h-21.21V49.53Zm19.52,34.37c0,5.19,1.48,9.38,4.45,12.59,2.97,3.2,7.14,4.81,12.52,4.81s9.54-1.6,12.51-4.81c2.97-3.21,4.46-7.4,4.46-12.59s-1.48-9.38-4.46-12.59c-2.97-3.2-7.14-4.81-12.51-4.81s-9.55,1.6-12.52,4.81c-2.97,3.21-4.45,7.4-4.45,12.59Z"/>
        <path class="cls-1" d="M629.87,117.42h-19.51v-9.05h-.29c-.85,1.23-1.95,2.48-3.32,3.75-1.36,1.27-2.97,2.43-4.81,3.47-1.84,1.04-3.84,1.88-6.01,2.54-2.17,.66-4.48,.99-6.93,.99-5.09,0-9.71-.87-13.86-2.61-4.15-1.75-7.71-4.2-10.68-7.36-2.97-3.16-5.25-6.91-6.86-11.24-1.6-4.34-2.4-9.1-2.4-14.28,0-4.81,.73-9.41,2.19-13.79,1.46-4.38,3.53-8.27,6.22-11.67,2.69-3.39,5.96-6.11,9.83-8.13,3.87-2.03,8.25-3.04,13.15-3.04,4.43,0,8.56,.68,12.37,2.05,3.82,1.36,6.95,3.7,9.41,7h.28V6.71h21.21V117.42Zm-19.51-34.37c0-5.19-1.49-9.38-4.45-12.59-2.97-3.21-7.14-4.81-12.52-4.81s-9.55,1.6-12.52,4.81c-2.97,3.2-4.45,7.4-4.45,12.59s1.48,9.38,4.45,12.59c2.97,3.2,7.14,4.81,12.52,4.81s9.54-1.6,12.52-4.81c2.97-3.21,4.45-7.4,4.45-12.59Z"/>
        <rect class="cls-1" x="266" y="49.53" width="21.22" height="68.73"/>
        <path class="cls-1" d="M316.52,81.5l-22.91-31.96h25.03l12.16,18.67,11.74-18.67h23.62l-22.35,31.96,26.45,36.77h-25.03l-14.99-22.91-16.12,22.91h-24.75l27.15-36.77Z"/>
        <path class="cls-1" d="M437.18,106.38c-3.39,4.34-7.68,7.69-12.87,10.04-5.18,2.36-10.56,3.53-16.12,3.53s-10.25-.85-14.92-2.54c-4.67-1.69-8.72-4.12-12.16-7.28-3.44-3.16-6.15-6.95-8.13-11.38-1.98-4.43-2.97-9.38-2.97-14.85s.99-10.42,2.97-14.85c1.98-4.43,4.69-8.23,8.13-11.38,3.44-3.16,7.5-5.59,12.16-7.28,4.67-1.7,9.64-2.55,14.92-2.55,4.9,0,9.35,.85,13.36,2.55,4.01,1.7,7.4,4.12,10.18,7.28,2.78,3.16,4.92,6.95,6.43,11.38,1.51,4.43,2.26,9.38,2.26,14.85v6.65h-49.21c.85,4.06,2.69,7.28,5.51,9.69,2.83,2.4,6.31,3.61,10.46,3.61,3.49,0,6.44-.78,8.84-2.33,2.4-1.55,4.5-3.56,6.29-6.01l14.85,10.89Zm-17.96-30.26c.09-3.58-1.08-6.65-3.54-9.19-2.45-2.55-5.61-3.82-9.47-3.82-2.36,0-4.43,.38-6.22,1.13-1.79,.75-3.32,1.72-4.6,2.9-1.27,1.18-2.26,2.55-2.97,4.1-.71,1.56-1.11,3.18-1.2,4.88h28Z"/>
        <path class="cls-1" d="M449.08,11.35h21.21V118.26h-21.21V11.35Z"/>
        <path class="cls-1" d="M546.13,106.38c-3.39,4.34-7.68,7.69-12.87,10.04-5.19,2.36-10.56,3.53-16.12,3.53s-10.25-.85-14.92-2.54c-4.67-1.69-8.72-4.12-12.16-7.28-3.44-3.16-6.15-6.95-8.13-11.38-1.98-4.43-2.97-9.38-2.97-14.85s.99-10.42,2.97-14.85c1.98-4.43,4.69-8.23,8.13-11.38,3.45-3.16,7.5-5.59,12.16-7.28,4.67-1.7,9.64-2.55,14.92-2.55,4.9,0,9.35,.85,13.36,2.55,4,1.7,7.4,4.12,10.18,7.28,2.78,3.16,4.92,6.95,6.43,11.38,1.51,4.43,2.26,9.38,2.26,14.85v6.65h-49.21c.85,4.06,2.68,7.28,5.52,9.69,2.83,2.4,6.31,3.61,10.46,3.61,3.49,0,6.43-.78,8.84-2.33,2.41-1.55,4.5-3.56,6.3-6.01l14.85,10.89Zm-17.96-30.26c.09-3.58-1.09-6.65-3.53-9.19-2.46-2.55-5.61-3.82-9.47-3.82-2.36,0-4.44,.38-6.22,1.13-1.79,.75-3.32,1.72-4.59,2.9-1.27,1.18-2.26,2.55-2.97,4.1-.71,1.56-1.11,3.18-1.2,4.88h28Z"/>
        <path class="cls-7" d="M636.08,106.1c0-1.79,.33-3.49,.99-5.09,.66-1.6,1.58-2.99,2.76-4.17,1.18-1.18,2.57-2.1,4.17-2.76,1.6-.66,3.3-.99,5.09-.99s3.49,.33,5.09,.99c1.6,.66,2.99,1.58,4.17,2.76,1.18,1.18,2.1,2.57,2.76,4.17,.66,1.6,.99,3.3,.99,5.09s-.33,3.49-.99,5.09c-.66,1.6-1.58,2.99-2.76,4.17-1.18,1.18-2.57,2.1-4.17,2.76-1.61,.66-3.3,.99-5.09,.99s-3.49-.33-5.09-.99c-1.6-.66-2.99-1.58-4.17-2.76-1.18-1.18-2.1-2.57-2.76-4.17-.66-1.6-.99-3.3-.99-5.09Z"/>
      </g>
      <g>
        <path class="cls-7" d="M232.6,161.54c0,.26-.16,.42-.42,.42h-4.43c-.26,0-.42-.16-.42-.42v-22.25c0-.26,.16-.42,.42-.42h4.43c.26,0,.42,.16,.42,.42v22.25Z"/>
        <path class="cls-7" d="M239.18,146.94c.33,.49,.52,.46,1.04,0,1.27-1.04,2.64-1.34,3.58-1.34,1.37,0,2.9,.49,3.94,1.47,.62,.55,.98,.39,1.53-.03,1.53-1.24,2.77-1.43,3.71-1.43,3.91,0,6.06,2.22,6.06,6.03v9.91c0,.26-.16,.42-.42,.42h-4.3c-.26,0-.42-.16-.42-.42v-9.25c0-1.34-.49-2.09-1.73-2.09-1.5,0-2.31,1.14-2.31,3.32v8.02c0,.26-.16,.42-.42,.42h-4.3c-.26,0-.42-.16-.42-.42v-9.32c0-1.27-.55-2.02-1.73-2.02-1.56,0-2.28,1.14-2.28,3.32v8.02c0,.26-.16,.42-.42,.42h-4.33c-.26,0-.42-.16-.42-.42v-15.15c0-.26,.16-.42,.42-.42h2.31c.23,0,.39,.1,.49,.29l.42,.68Z"/>
        <path class="cls-7" d="M265.25,147.04c.26,.39,.52,.29,.82,.03,1.37-1.17,2.74-1.47,4.17-1.47,4.33,0,7,3.23,7,8.34s-2.87,8.38-7.56,8.38c-.95,0-1.56-.13-2.18-.39l-.78-.33v7.07c0,.26-.16,.42-.42,.42h-4.33c-.26,0-.42-.16-.42-.42v-22.29c0-.26,.16-.42,.42-.42h2.31c.23,0,.39,.1,.49,.29l.49,.78Zm2.05,10.3c.55,.29,1.34,.42,1.99,.42,1.89,0,2.9-1.43,2.9-3.81s-1.08-3.75-2.93-3.75c-1.66,0-2.61,1.24-2.61,3.23v3.62l.65,.29Z"/>
        <path class="cls-7" d="M289.53,149.77c0,.29-.13,.42-.42,.42-3.58,.16-4.69,2.18-4.69,8.7v2.64c0,.26-.16,.42-.42,.42h-4.33c-.26,0-.42-.16-.42-.42v-15.15c0-.26,.16-.42,.42-.42h2.31c.23,0,.39,.1,.49,.29l.85,1.3c.29,.42,.42,.52,.81,.1,1.4-1.47,2.71-1.99,4.99-2.05,.26,0,.42,.16,.42,.42v3.75Z"/>
        <path class="cls-7" d="M302.33,161.96c-1.14,.26-2.25,.36-3.09,.36-5.35,0-8.25-3.23-8.25-8.34s2.96-8.38,8.08-8.38c4.07,0,6.58,2.15,6.58,5.51,0,2.61-1.82,4.11-5.57,4.63l-3.81,.55c.62,1.14,1.43,1.63,2.97,1.63,.68,0,1.63-.13,2.08-.23l1.96-.42c.26-.07,.42,.03,.49,.29l.91,3.39c.07,.29-.06,.46-.33,.52l-2.02,.49Zm-3-9.52c1.01-.1,1.5-.55,1.5-1.27,0-.78-.65-1.17-1.96-1.17-1.4,0-2.83,.91-2.93,2.96l3.39-.52Z"/>
        <path class="cls-7" d="M312.04,155.44c-3.16-.72-4.59-2.15-4.59-4.63,0-3.29,2.35-5.21,6.35-5.21,1.5,0,3.06,.26,4.24,.52l1.63,.39c.26,.07,.39,.26,.29,.52l-.98,3.39c-.07,.26-.23,.36-.49,.29l-1.66-.39c-.88-.2-2.25-.33-3.03-.33-.85,0-1.33,.29-1.33,.81,0,.33,.29,.69,.85,.85l2.77,.65c3.13,.75,4.53,2.22,4.53,4.76,0,3.29-2.35,5.25-6.32,5.25-1.44,0-3.16-.13-4.99-.59l-1.73-.42c-.26-.06-.39-.26-.29-.52l.98-3.46c.07-.26,.23-.36,.49-.29l1.53,.39c1.4,.36,3.39,.52,4.01,.52,.82,0,1.27-.33,1.27-.88,0-.42-.29-.81-.95-.98l-2.57-.65Z"/>
        <path class="cls-7" d="M328.72,161.54c0,.26-.16,.42-.42,.42h-4.3c-.26,0-.42-.16-.42-.42v-11.05h-1.7c-.26,0-.42-.16-.42-.42v-3.68c0-.26,.16-.42,.42-.42h6.42c.26,0,.42,.16,.42,.42v15.15Zm-.1-20.66c0,1.86-1.04,3-2.9,3s-2.9-1.14-2.9-3,1.08-2.97,2.9-2.97,2.9,1.08,2.9,2.97Z"/>
        <path class="cls-7" d="M346.58,153.94c0,5.15-3.03,8.38-7.92,8.38s-7.95-3.23-7.95-8.38,3.03-8.34,7.95-8.34,7.92,3.26,7.92,8.34Zm-10.82,0c0,2.38,1.11,3.81,2.9,3.81s2.87-1.43,2.87-3.81-1.11-3.75-2.87-3.75-2.9,1.4-2.9,3.75Zm7.79-15.7c.36,0,.46,.23,.29,.52l-3.19,4.79c-.13,.16-.29,.26-.52,.26h-3.49c-.29,0-.46-.2-.33-.49l1.96-4.76c.1-.23,.23-.33,.49-.33h4.79Z"/>
        <path class="cls-7" d="M352.22,146.94c.33,.49,.52,.46,1.01,.03,1.3-1.11,2.8-1.37,3.78-1.37,3.84,0,6.19,2.22,6.19,6.03v9.91c0,.26-.16,.42-.42,.42h-4.33c-.26,0-.42-.16-.42-.42v-9.25c0-1.34-.68-2.09-1.82-2.09-1.57,0-2.44,1.14-2.44,3.32v8.02c0,.26-.16,.42-.42,.42h-4.33c-.26,0-.42-.16-.42-.42v-15.15c0-.26,.16-.42,.42-.42h2.31c.23,0,.39,.1,.49,.29l.42,.68Z"/>
        <path class="cls-7" d="M373.82,146.32c1.11-.33,2.22-.49,3.55-.49,4.4,0,7.1,2.28,7.1,6.22v9.55c0,.23-.13,.36-.36,.36h-1.63c-.23,0-.36-.1-.42-.29l-.26-1.01c-.2-.46-.39-.46-.82-.06-1.01,1.11-2.48,1.73-4.46,1.73-3.62,0-5.63-1.86-5.63-4.92s2.08-5.02,5.93-5.02h4.07v-.19c0-1.99-1.27-3.06-3.68-3.06-.95,0-1.76,.1-2.54,.33l-1.17,.36c-.23,.06-.39-.03-.46-.26l-.72-2.41c-.06-.23,.03-.39,.26-.46l1.24-.36Zm3,8.9c-1.59,0-2.35,.75-2.35,1.86,0,1.27,.88,2.05,2.44,2.05,2.57,0,3.98-1.27,3.98-3.68v-.23h-4.07Z"/>
        <path class="cls-7" d="M397.05,158.15c0,.55,.23,.88,.65,.88h.23c.23-.03,.36-.03,.46,.2l.98,2.31c.1,.23,.03,.39-.16,.49-.46,.2-1.01,.29-1.5,.29-2.67,0-4.27-1.53-4.27-4.17v-19.19c0-.23,.13-.36,.36-.36h2.9c.23,0,.36,.13,.36,.36v19.19Z"/>
        <path class="cls-7" d="M403.66,146.32c1.11-.33,2.22-.49,3.55-.49,4.4,0,7.1,2.28,7.1,6.22v9.55c0,.23-.13,.36-.36,.36h-1.63c-.23,0-.36-.1-.42-.29l-.26-1.01c-.2-.46-.39-.46-.81-.06-1.01,1.11-2.48,1.73-4.46,1.73-3.62,0-5.64-1.86-5.64-4.92s2.09-5.02,5.93-5.02h4.07v-.19c0-1.99-1.27-3.06-3.68-3.06-.94,0-1.76,.1-2.54,.33l-1.17,.36c-.23,.06-.39-.03-.46-.26l-.71-2.41c-.07-.23,.03-.39,.26-.46l1.24-.36Zm3,8.9c-1.6,0-2.35,.75-2.35,1.86,0,1.27,.88,2.05,2.44,2.05,2.58,0,3.98-1.27,3.98-3.68v-.23h-4.07Z"/>
        <path class="cls-7" d="M434.72,154.27c-.98,2.51-1.95,5.31-2.51,7.4-.06,.2-.2,.29-.42,.29h-3.45c-.23,0-.36-.1-.43-.29-.55-2.09-1.53-4.85-2.51-7.4l-3.23-7.69c-.1-.26,.03-.42,.29-.42h3.03c.2,0,.32,.1,.42,.26l2.31,5.48c.72,1.92,1.3,3.91,1.56,5.38,.07,.36,.42,.36,.52,0,.23-1.47,.81-3.49,1.56-5.38l2.31-5.48c.1-.16,.23-.26,.42-.26h3.03c.26,0,.39,.16,.29,.42l-3.22,7.69Z"/>
        <path class="cls-7" d="M444.98,161.6c0,.23-.13,.36-.36,.36h-2.9c-.23,0-.36-.13-.36-.36v-12.22h-1.6c-.23,0-.36-.13-.36-.36v-2.51c0-.23,.13-.36,.36-.36h4.85c.23,0,.36,.13,.36,.36v15.09Zm-.03-21.08c0,1.4-.78,2.22-2.15,2.22s-2.18-.81-2.18-2.22,.82-2.18,2.18-2.18,2.15,.81,2.15,2.18Z"/>
        <path class="cls-7" d="M451.99,154.95c-2.71-.68-3.98-2.09-3.98-4.43,0-2.93,2.18-4.69,5.96-4.69,1.47,0,2.96,.23,4.04,.52l1.43,.36c.23,.06,.33,.23,.26,.46l-.68,2.44c-.06,.23-.23,.33-.46,.26l-1.43-.39c-.88-.26-2.18-.39-3.16-.39-1.5,0-2.38,.55-2.38,1.44,0,.75,.46,1.2,1.47,1.5l3.26,.85c2.83,.72,4.11,2.18,4.11,4.53,0,3.06-2.28,4.92-6.13,4.92-1.69,0-3.39-.23-4.98-.68l-1.27-.36c-.23-.07-.32-.23-.26-.45l.75-2.45c.06-.19,.23-.29,.42-.23l1.17,.33c1.24,.36,2.96,.55,4.17,.55,1.6,0,2.51-.62,2.51-1.63,0-.78-.46-1.27-1.53-1.6l-3.29-.85Z"/>
        <path class="cls-7" d="M471.08,146.16c.23,0,.36,.13,.36,.36v2.51c0,.23-.13,.36-.36,.36h-3.65v7.92c0,1.11,.49,1.73,1.27,1.73,.29,0,.59-.03,.85-.13,.23-.1,.39-.07,.49,.16l1.04,2.21c.1,.2,.03,.36-.16,.49-.59,.33-1.43,.55-2.21,.55-3.1,0-4.89-1.86-4.89-5.02v-7.92h-1.6c-.23,0-.36-.13-.36-.36v-2.51c0-.23,.13-.36,.36-.36h1.6v-3.75c0-.2,.1-.33,.29-.39l2.9-.98c.26-.07,.42,.03,.42,.29v4.82h3.65Z"/>
        <path class="cls-7" d="M475.61,146.32c1.11-.33,2.22-.49,3.55-.49,4.4,0,7.1,2.28,7.1,6.22v9.55c0,.23-.13,.36-.36,.36h-1.63c-.23,0-.36-.1-.42-.29l-.26-1.01c-.2-.46-.39-.46-.82-.06-1.01,1.11-2.48,1.73-4.46,1.73-3.62,0-5.64-1.86-5.64-4.92s2.08-5.02,5.93-5.02h4.07v-.19c0-1.99-1.27-3.06-3.68-3.06-.94,0-1.76,.1-2.54,.33l-1.17,.36c-.23,.06-.39-.03-.46-.26l-.71-2.41c-.07-.23,.03-.39,.26-.46l1.24-.36Zm3,8.9c-1.6,0-2.35,.75-2.35,1.86,0,1.27,.88,2.05,2.44,2.05,2.57,0,3.98-1.27,3.98-3.68v-.23h-4.07Z"/>
        <path class="cls-7" d="M509.2,161.6c0,.23-.13,.36-.36,.36h-1.63c-.23,0-.36-.1-.39-.29l-.36-1.37c-.1-.29-.33-.36-.65,0-1.17,1.3-2.74,2.02-4.53,2.02-4.27,0-6.84-3.19-6.84-8.28s2.74-8.21,7.3-8.21c1.11,0,1.99,.13,2.9,.55l.95,.42v-7.85c0-.23,.13-.36,.36-.36h2.9c.23,0,.36,.13,.36,.36v22.65Zm-4.56-11.96c-.78-.36-1.66-.55-2.67-.55-2.48,0-3.98,1.86-3.94,4.95,0,3.1,1.43,4.99,3.84,4.99s3.75-2.05,3.75-4.79v-4.14l-.98-.46Z"/>
        <path class="cls-7" d="M522.82,161.89c-1.17,.29-2.28,.42-3.32,.42-4.92,0-7.69-3.19-7.69-8.24s2.8-8.24,7.56-8.24c3.91,0,6.29,1.96,6.29,5.18,0,2.51-1.53,3.94-4.79,4.43l-5.12,.78c.36,1.73,1.66,2.8,3.71,2.8,.91,0,1.89-.1,2.57-.33l1.43-.36c.23-.07,.39,.03,.46,.26l.65,2.44c.06,.23-.03,.39-.26,.46l-1.5,.39Zm-2.51-9.25c1.14-.2,1.76-.72,1.76-1.57,0-1.3-1.01-1.99-2.77-1.99-2.15,0-3.62,1.34-3.88,4.33l4.89-.78Z"/>
        <path class="cls-7" d="M542.47,146.16c.23,0,.36,.13,.36,.36v2.51c0,.23-.13,.36-.36,.36h-3.65v7.92c0,1.11,.49,1.73,1.27,1.73,.29,0,.59-.03,.85-.13,.23-.1,.39-.07,.49,.16l1.04,2.21c.1,.2,.03,.36-.16,.49-.59,.33-1.43,.55-2.22,.55-3.1,0-4.89-1.86-4.89-5.02v-7.92h-1.6c-.23,0-.36-.13-.36-.36v-2.51c0-.23,.13-.36,.36-.36h1.6v-3.75c0-.2,.1-.33,.29-.39l2.9-.98c.26-.07,.42,.03,.42,.29v4.82h3.65Z"/>
        <path class="cls-7" d="M559.35,154.04c0,5.08-2.87,8.28-7.5,8.28s-7.53-3.19-7.53-8.28,2.87-8.21,7.53-8.21,7.5,3.19,7.5,8.21Zm-11.44,0c0,3.13,1.47,4.99,3.94,4.99s3.91-1.86,3.91-4.99-1.5-4.95-3.91-4.95-3.94,1.86-3.94,4.95Z"/>
        <path class="cls-7" d="M575.93,161.6c0,.23-.13,.36-.36,.36h-1.63c-.23,0-.36-.1-.39-.29l-.36-1.37c-.1-.29-.32-.36-.65,0-1.17,1.3-2.74,2.02-4.53,2.02-4.27,0-6.84-3.19-6.84-8.28s2.74-8.21,7.3-8.21c1.11,0,1.99,.13,2.9,.55l.94,.42v-7.85c0-.23,.13-.36,.36-.36h2.9c.23,0,.36,.13,.36,.36v22.65Zm-4.56-11.96c-.78-.36-1.66-.55-2.67-.55-2.48,0-3.98,1.86-3.94,4.95,0,3.1,1.43,4.99,3.85,4.99s3.75-2.05,3.75-4.79v-4.14l-.98-.46Z"/>
        <path class="cls-7" d="M593.56,154.04c0,5.08-2.87,8.28-7.5,8.28s-7.53-3.19-7.53-8.28,2.87-8.21,7.53-8.21,7.5,3.19,7.5,8.21Zm-11.44,0c0,3.13,1.46,4.99,3.94,4.99s3.91-1.86,3.91-4.99-1.5-4.95-3.91-4.95-3.94,1.86-3.94,4.95Z"/>
        <path class="cls-7" d="M599.78,154.95c-2.7-.68-3.98-2.09-3.98-4.43,0-2.93,2.18-4.69,5.96-4.69,1.46,0,2.96,.23,4.04,.52l1.43,.36c.23,.06,.33,.23,.26,.46l-.68,2.44c-.07,.23-.23,.33-.46,.26l-1.43-.39c-.88-.26-2.18-.39-3.16-.39-1.5,0-2.38,.55-2.38,1.44,0,.75,.45,1.2,1.47,1.5l3.26,.85c2.83,.72,4.11,2.18,4.11,4.53,0,3.06-2.28,4.92-6.13,4.92-1.7,0-3.39-.23-4.99-.68l-1.27-.36c-.23-.07-.33-.23-.26-.45l.75-2.45c.07-.19,.23-.29,.43-.23l1.17,.33c1.24,.36,2.96,.55,4.17,.55,1.6,0,2.51-.62,2.51-1.63,0-.78-.46-1.27-1.53-1.6l-3.29-.85Z"/>
      </g>
    </g>
    <g>
      <path class="cls-3" d="M135.42,99.49c-.4-14.14-9.69-22.9-9.69-22.9,1.56-8.36,1.52-16.15,1.52-16.15,1.51-20.05,3.86-29.02,5.98-33.92,2.12-4.9,5.48-10.73,6.08-12.07,.6-1.33-.14-1.23-1.14-.09-1,1.14-3.61,3.04-3.61,3.04,0,0,1.08-10.84,1.43-14.16,.35-3.31-1.23-3.51-1.52-2.09-.29,1.42-2.72,7.99-9.69,15.87-6.97,7.88-24.23,24.79-31.07,29.17-6.85,4.37-9.22,11.21-9.22,11.21-6.75-1.87-6.99-8.83-7.13-10.36-.13-1.52-.17-4.1-1.33-4.09-1.17,.02-1.17,.45-1.33,2-.16,1.55-1.62,4.94-1.62,4.94,0,0-.37-.73-1.14-2.19-.76-1.46-1.52,.48-1.52,.48,0,0-1.11,7.23-2.66,9.12-1.55,1.89-5.32-1.9-5.32-1.9-9.09-7.76-14-10.4-27.65-17.58C21.15,30.65,5.16,7.33,5.16,7.33c0,0-3.25-6.59-2.28-.38,.97,6.21,6.46,17.48,6.46,17.48-1.47-.81-2.73-2.42-4.08-4.85-1.36-2.43-1.81-1.33-1.81-1.33,.78,5.2,4.61,14.43,11.78,27.84,7.17,13.41,7.05,28.27,8.27,33.06,.53,2.1,1.36,3.64,2.22,4.56-2.66,4.03-4.22,8.87-4.22,14.06,0,.71,.03,1.42,.09,2.11l-.85-1.73C5.93,118.14,.35,139.7,.31,141.29c-.04,1.59,1.05,.28,1.05,.28l7.03-6.94c-1.66,11.95,.64,20.21,2.57,23.18,1.92,2.97,2.38,.19,2.38,.19,.81-9.3,6.94-11.31,6.94-11.31,0,0,.21,.39,.56,.96-1.5,1.88-2.27,3.04-2.27,3.04,.8-.98,1.6-1.92,2.4-2.82,.74,1.19,1.94,3,3.01,3.87,1.69,1.37,5.11,5.42,5.8,7.22,.69,1.8,1.33,.57,1.33,.57-1.87-5.11,.38-8.17,.38-8.17,0,0,1.82,1.74,3.13,2.76,1.31,1.02,1.24-.29,1.24-.29-2.37-3.04-1.04-5.51-1.04-5.51,2.56,1.98,4.89,3.67,7.01,5.13-.25,.5-.36,.76-.36,.76,.13-.25,.26-.49,.39-.74,9.57,6.55,14.94,8.24,17.75,9.77,3.44,1.87,.45,5.79-.38,5.79-.83,0-1.29,1.57,0,1.52,1.28-.05,4.75-.95,4.75-.95,0,0,0,.03-.57,1.04-.57,1.01,.38,1.33,.38,1.33,.97-1.55,3.32-2.61,4.94-3.13,1.62-.53,3.71-1.81,3.71-1.81l-.38,1.43,.66,.38s1.1-1.11,3.52-2.76c2.42-1.65,3.14-1.23,3.14-1.23-.03,1.6-.56,3.45-1.71,5.32-1.15,1.87,.76,1.43,.76,1.43,5.24-6.22,13.48-10.11,22.42-13.49,3.28-1.24,6.61-3.11,9.51-4.97,2.2,2.75,4.57,5.79,7.11,9.15,0,0-2.91-3.91-6.99-9.24,2.73-1.76,5.07-3.51,6.61-4.73,1.12,.97,2.19,1.89,3.17,2.73-.18,1.45-.76,2.72-1.28,3.15-1.06,.89,.28,1.42,.28,1.42,1.18-.77,2.19-1.77,3.04-2.84,2.54,2.15,4.18,3.51,4.18,3.51l-4.02-3.72c2.37-3.09,3.45-6.64,3.45-6.64,3.13,2.09,4.47,9.37,3.99,11.31-.49,1.93,1.33,1.52,1.33,1.52,2.47-3.08,3.96-7.57,4.83-11.52l1.91,1.17c-.52-.42-1.15-.89-1.86-1.39,.99-4.49,1.19-8.21,1.19-8.21,8.79,3.36,13.4,10.87,13.78,12.83,.38,1.96,1.52,.76,1.52,.76,.76-11.36-3.33-21.76-3.33-21.76,0,0,1.76,1.32,3.04,2.66,1.28,1.34,1.61,0,1.61,0-8.97-23.11-18.53-33.82-18.53-33.82"/>
      <path class="cls-2" d="M63.47,61.1l-4.29-6.75-6.59-6.3-9.27-2.63-15.69-4.57-9.27-8.1-8.76-5.4,3.36,10.79,3.72,11.58,4.74,6.33,.3,12.6,4.04,10.72s.73,2.92,.86,3.3c.13,.38-.86,3.46-.86,3.46,0,0-1.8,4.13-1.8,4.51s-1.01,3.42-1.01,4.05-.51,5.45-.51,5.45l-2.4,3.03-6.83,8.35-4.3,10.91-3.79,8.69,1.77,1.65,3.04-1.39s-.25,7.84-.13,8.22c.13,.38-.38,11.38-.38,11.38l1.39,3.54,6.2-8.22,3.42-3.03s.63,6.78,1.77,6.87c1.14,.09,3.04,1.73,3.04,1.73l3.67,2.66,2.15-4.93,1.52-3.42,.63-1.01,10.37,9.36s7.59,1.9,8.35,2.4c.76,.51,6.96,3.67,7.46,4.18,.51,.5,3.6,3.41,4.08,4.55,.48,1.14,3.89,1.9,3.89,1.9l4.75-.54,5.24-2.88,2.78-.88,.66,3.29,8.32-4.81,11.26-4.3,8.35-5.57,6.07-4.3s5.06-5.06,5.44-4.68c.38,.38,6.07,.63,6.07,.63,0,0,4.68,5.57,4.81,6.07,.13,.51,1.01,2.53,1.27,2.15,.25-.38,2.66-7.72,2.66-7.72,0,0,.51-4.17,.63-4.55,.12-.38,0-3.08,0-3.08l7.97,3.97s3.29,3.54,3.42,3.92c.13,.38,3.42,4.17,3.42,4.17l-.89-8.48s-.76-4.68-.76-5.19-1.39-4.68-1.39-4.68l-.63-1.9,3.67,1.65-.63-3.29-3.29-7.09-3.79-7.09-5.06-6.33-4.43-5.19-1.52-11.26-3.92-6.33-4.17-5.44s.25-7.34,.51-7.72c.25-.38,2.02-11.76,2.02-11.76l.38-10.12,1.9-9.74,1.9-12.27-6.32-1.39s-15.43,12.65-15.56,13.41c-.13,.76-13.41,8.22-13.41,8.6s-5.56,4.81-6.07,6.07c-.51,1.26-5.06,5.82-5.06,5.82l-3.79-2.15-3.32-4.05s-1.23-4.68-1.11-4.3c.12,.38-2.02,3.29-2.15,3.67-.13,.38-1.39,.63-1.64,1.14-.26,.5-1.9,1.39-1.9,1.9s-2.78,4.05-3.04,4.56c-.25,.51-2.15,.38-2.15,.38l-1.36,1.19Z"/>
      <path class="cls-6" d="M82.98,66.12c7.63,1.6,3.98-4.22,3.98-4.22,0,0,.62-4.55,3.81-8.42l-4.74,4.2-3.51,3.05-6.32-8.2s-.84,11.99,6.79,13.58m26.47,6.56s4.49-4.23,5.15-10.3c0,0,6.62-17.72,9.6-20.38,2.98-2.66,4.92-12.18,4.92-12.18l-19.67,9.37s-11.2,19.74-9.14,25.76c2.07,6.02-.16,9.88,9.14,7.73m7.26-32.32c3.8-2.73,7.96-2.81,7.96-2.81,1.72,1.98-2.91,1.94-5.15,9.37-1.54,2.3-5.28,18-10.31,12.18-5.02-5.82,3.7-16.01,7.5-18.74m-25.94,13.13l3.45-3.06c-1.4,.88-2.53,1.94-3.45,3.06m56.62,84.76c-.93-.78-8.59-6.16-14.99-4.68l5.62,4.45s11.47,6.64,12.88,10.07c1.41,3.43-2.34-10.77-2.34-10.77,0,0-.24,1.72-1.17,.94M114.84,45.75s-3.01,5.69-1.64,10.3c0,0,1.85-10.12,6.79-16.39,0,0-7.71,3.63-9.37,13.12,0,0,2.62-5.77,4.21-7.03m37.47,85.72l-2.34-3.98-3.51-7.73s.93,3.56-.94,3.05c-1.87-.51-5.62-1.41-5.62-1.41l7.5,7.03,4.92,3.04Zm-20.37,11.47c-1.87-2.08-6.36-4.2-8.66-3.75-2.3,.45-5.15-1.88-5.15-1.88,0,0-3.02,3.71-7.32,7.61l-13.37-13.76c1.5-.88,2.97-1.74,4.27-2.49l14.55,8.41-13.52-9.01c.69-.4,1.31-.76,1.82-1.05l18.96,9.36-16.94-9.68c13.87-.01,23.61-5.37,26.31-21.7,0,0-9.28,22.8-30.21,18.74l-7.26-2.11s-10.95-4.1-13.11-15.69l-3.04-2.34h-7.73l-2.58,5.85-3.75,3.28s-9.81,9.89-20.37,8.67c-10.57-1.23-20.7-13.7-22.25-16.63,0,0,.5,15.08,13.11,19.2,2.53,.83,5.06,1.43,7.55,1.78-3.98,1.73-11.83,5.28-17.16,8.53,0,0,12.73-6.1,20.33-8.23,.26,.01,.53,.03,.79,.03h-.04s.55,.39,1.47,1.01c-11.72,5.6-20.58,14.22-24.03,17.87-1.58-2.52-3.21-6.7-3.21-6.7,0,0-4.35,1.35-6.79,5.15-2.44,3.8-.94-15.22-.94-15.22l-3.75,12.88,.7,10.3,2.58-1.64,7.03-5.15,4.45,6.32,3.98,2.81,.94-3.98-.7-8.43s-.97,6.49-2.81,5.39c-.45-.27-.95-.9-1.46-1.7,8.32-8.48,21.94-16.03,24.64-17.48,.91,.6,2.06,1.35,3.36,2.15-2.44,2.09-11.38,9.82-15.46,14.31-1.78-1.17-2.89-1.96-2.89-1.96v2.34l10.77,10.3,13.11,5.39,6.56,7.73,6.09-.7,3.51-2.11,7.49-1.87-.23,3.75,7.73-4.68,17.57-7.73,12.41-10.77,7.49,1.4,6.09,8.2s3.44-8.49,1.41-11.01c0,0-.47,2.79-2.34,.7m-81.82-16.93c7.3-.53,13.93-3.81,18.82-10.94,0,0,1.13-4.69,2.34-5.39,1.21-.69,7.02-3.44,8.67-.47,1.64,2.97,6.06,16.21,22.25,17.33,.34,.02,.68,.04,1.02,.06l-6.92,3.41-2.3-2.3-1.17-.47,2.72,3.14-3.44,1.7-2.33-2.96-1.41,.24,2.71,3.23-2.94,1.45-4.45,.24-4.68-3.05h-4.21l-4.21,1.41-3.28,.7-6.42-2.74c1-1.86,2.53-5.03-1.24-.53l-9.52-4.06Zm45.76,27.71c-10.18,1.59-10.77,2.11-10.77,2.11l-.94-3.75s-2.24,4.52-3.75,5.39c-1.5,.86-1.4-2.11-1.4-2.11,0,0-2.9,3.93-5.62,5.15v-3.04l-6.09,4.68s-3.74-6.32-12.65-9.13c-2.84-.9-5.93-2.34-8.84-3.89,.11-.18,.24-.39,.4-.62-.14,.21-.28,.41-.4,.61-3.36-1.79-6.45-3.72-8.59-5.12,2.35-2.28,11.07-10.62,16.31-13.79,1.28,.78,2.67,1.59,4.09,2.36-5.54,7.02-9.65,13.21-11.4,15.93,3.49-5.25,9.81-12.24,12.63-15.28,3.11,1.61,6.22,2.93,8.46,3.16,0,0,3.03,.36,4.91-1.41,1.88-1.76,5.7-1.28,7.26-.23,1.56,1.05,4.42,4.64,8.43,2.11,.99-.63,2.61-1.6,4.48-2.71l12.83,15.3c-3.03,2.12-6.28,3.8-9.34,4.28m9.43-4.34l-12.02-15.76c1.11-.65,2.28-1.34,3.45-2.03l13.99,13.43c-1.65,1.49-3.49,3.02-5.42,4.37M33.1,62.61c2.78,.35,5.62,5.39,5.62,5.39,0,0,2.13,5.54,5.15,4.92,3.02-.62,.94-5.14,.47-9.84-.48-4.69-14.05-18.74-14.05-18.74L11.79,30.52s-.41,.25,3.98,8.66c4.39,8.42,14.55,23.07,17.33,23.42m-14.05-21.78s13.85,8.52,18.27,14.99c4.42,6.47-2.13,3.57-7.73,0-5.6-3.57-10.95-10.8-12.18-14.29-1.23-3.48,1.64-.7,1.64-.7m44.5,23.42c-.5,1.77-1.17,3.28-1.17,3.28,0,0,5.45-4.36,4.45-5.62-1-1.26-8.2-7.26-8.2-7.26,0,0,5.41,7.83,4.92,9.6M22.09,44.58c.19,.11,.38,.23,.57,.36-.36-.23-.57-.36-.57-.36m8.43,9.6c.08-1.56-.94-3.05-.94-3.05,1.72,.39,5.62,4.92,5.62,4.92-1.39-3.79-10.21-9.62-12.54-11.12,3.83,2.6,7.86,9.24,7.86,9.24"/>
      <g>
        <path class="cls-8" d="M81.55,111.84h-2.18s-.42-.36-.38-.66l-3.99-.38,2.85-1.9-.86-.57-3.52,2.28s-.83,.85,.85,.95c1.68,.1,2.85,.38,2.85,.38l-4.37,.76,.47-.76s-3.06,.95-4.94,.95c0,0,.61,1.08,1.71,1.04,1.1-.04,11.97-1.62,11.97-1.62l-2.09-.09,1.62-.38Z"/>
        <path class="cls-8" d="M135.42,99.49c-.4-14.14-9.69-22.9-9.69-22.9,1.56-8.36,1.52-16.15,1.52-16.15,1.51-20.05,3.86-29.02,5.98-33.92,2.12-4.9,5.48-10.73,6.08-12.07,.6-1.33-.14-1.23-1.14-.09-1,1.14-3.61,3.04-3.61,3.04,0,0,1.08-10.84,1.43-14.16,.35-3.31-1.23-3.51-1.52-2.09-.29,1.42-2.72,7.99-9.69,15.87-6.97,7.88-24.23,24.79-31.07,29.17-6.85,4.37-9.22,11.21-9.22,11.21-6.75-1.87-6.99-8.83-7.13-10.36-.13-1.52-.17-4.1-1.33-4.09-1.17,.02-1.17,.45-1.33,2-.16,1.55-1.62,4.94-1.62,4.94,0,0-.37-.73-1.14-2.19-.76-1.46-1.52,.48-1.52,.48,0,0-1.11,7.23-2.66,9.12-1.55,1.89-5.32-1.9-5.32-1.9-9.09-7.76-14-10.4-27.65-17.58C21.15,30.65,5.16,7.33,5.16,7.33c0,0-3.25-6.59-2.28-.38,.97,6.21,6.46,17.48,6.46,17.48-1.47-.81-2.73-2.42-4.08-4.85-1.36-2.43-1.81-1.33-1.81-1.33,.78,5.2,4.61,14.43,11.78,27.84,7.17,13.41,7.05,28.27,8.27,33.06,.53,2.1,1.36,3.64,2.22,4.56-2.66,4.03-4.22,8.87-4.22,14.06,0,.71,.03,1.42,.09,2.11l-.85-1.73C5.93,118.14,.35,139.7,.31,141.29c-.04,1.59,1.05,.28,1.05,.28l7.03-6.94c-1.66,11.95,.64,20.21,2.57,23.18,1.92,2.97,2.38,.19,2.38,.19,.81-9.3,6.94-11.31,6.94-11.31,0,0,.21,.39,.56,.96-1.5,1.88-2.27,3.04-2.27,3.04,.8-.98,1.6-1.92,2.4-2.82,.74,1.19,1.94,3,3.01,3.87,1.69,1.37,5.11,5.42,5.8,7.22,.69,1.8,1.33,.57,1.33,.57-1.87-5.11,.38-8.17,.38-8.17,0,0,1.82,1.74,3.13,2.76,1.31,1.02,1.24-.29,1.24-.29-2.37-3.04-1.04-5.51-1.04-5.51,2.56,1.98,4.89,3.67,7.01,5.13-.25,.5-.36,.76-.36,.76,.13-.25,.26-.49,.39-.74,9.57,6.55,14.94,8.24,17.75,9.77,3.44,1.87,.45,5.79-.38,5.79-.83,0-1.29,1.57,0,1.52,1.28-.05,4.75-.95,4.75-.95,0,0,0,.03-.57,1.04-.57,1.01,.38,1.33,.38,1.33,.97-1.55,3.32-2.61,4.94-3.13,1.62-.53,3.71-1.81,3.71-1.81l-.38,1.43,.66,.38s1.1-1.11,3.52-2.76c2.42-1.65,3.14-1.23,3.14-1.23-.03,1.6-.56,3.45-1.71,5.32-1.15,1.87,.76,1.43,.76,1.43,5.24-6.22,13.48-10.11,22.42-13.49,3.28-1.24,6.61-3.11,9.51-4.97,2.2,2.75,4.57,5.79,7.11,9.15,0,0-2.91-3.91-6.99-9.24,2.73-1.76,5.07-3.51,6.61-4.73,1.12,.97,2.19,1.89,3.17,2.73-.18,1.45-.76,2.72-1.28,3.15-1.06,.89,.28,1.42,.28,1.42,1.18-.77,2.19-1.77,3.04-2.84,2.54,2.15,4.18,3.51,4.18,3.51l-4.02-3.72c2.37-3.09,3.45-6.64,3.45-6.64,3.13,2.09,4.47,9.37,3.99,11.31-.49,1.93,1.33,1.52,1.33,1.52,2.47-3.08,3.96-7.57,4.83-11.52l1.91,1.17c-.52-.42-1.15-.89-1.86-1.39,.99-4.49,1.19-8.21,1.19-8.21,8.79,3.36,13.4,10.87,13.78,12.83,.38,1.96,1.52,.76,1.52,.76,.76-11.36-3.33-21.76-3.33-21.76,0,0,1.76,1.32,3.04,2.66,1.28,1.34,1.61,0,1.61,0-8.97-23.11-18.53-33.82-18.53-33.82Zm-39.34,30.1c-1.1,.58-2.19,1.14-3.21,1.64-1.21-1.37-2.33-2.59-3.34-3.62,0,0-.59,1.54-1.52,.29,0,0-1.38,.16-.29,.85,.36,.23,1.58,1.14,3.73,3.16-1.61,.74-2.9,1.26-3.54,1.3-2.65,.2-5.02-.03-6.65-1.24-1.63-1.2-4.41-3.33-2.66-4.65,1.75-1.32,5.34-4.22,6.46-7.13,1.12-2.9,1.17-4.46-2.47-5.13-3.64-.67-10.83,.76-10.83,.76,0,0-3.7,1.53-2.47,3.33,0,0,1.48,3.35,5.32,6.94,0,0,1.18,.83,.76,2-.42,1.17-1.13,1.62-2.29,2.19-1.15,.56-5.79,2.28-5.79,2.28,0,0-.96,.12-2.19-.38-.56-.23-2.47-1.07-5.25-2.35,.92-.89,1.46-1.35,1.46-1.35-.78,.12-2-.85-2-.85l-1.14,1.43c-.95-.44-1.98-.92-3.06-1.43,1.56-.95,2.5-1.43,2.5-1.43,0,0-1.74,.23-1.62-.47,.13-.71-1.42,.09-1.42,.09-.42,.33-.82,.65-1.22,.97-.82-.39-1.68-.8-2.55-1.21,1.09-.43,1.68-.62,1.68-.62-1.14-.89,1.33-2.18,1.33-2.18l-.26-.26c7.43-1.94,13.53-7.15,16.71-13.98,.06-.1,.12-.19,.18-.29,2.64-4.32,5.06-3.57,7.6-3.61,1.56-.02,3.11,1.63,4.06,2.91,2.61,7.71,8.63,13.84,16.27,16.6-.28-.04-.5,0-.29,.25,.43,.54-.1,1.33-.1,1.33,0,0,1.01,.51,2.71,1.38-1.11,.61-2.34,1.29-3.61,1.96l-1.57-1.45s-2.21-1.65-2.18-2.28c.02-.64-.76,1.9-.76,1.9,0,0,.93,.36,3.51,2.36Zm-19.66-11.67s3.25-.74,4.75-.76c1.5-.01,2.55,.52,2.09,2-.46,1.48-2.37,2.47-2.37,2.47-.09-3.43-4.47-3.71-4.47-3.71Zm-29.07,1.05s1.05,.65-.95,.67c-1.41,.02-12.3-1.12-16.92-10.78,3.57,5.58,9.63,9.4,16.62,9.89,.41,.08,.82,.16,1.25,.22Zm-6.46-42.57c-2.57,.02-7.6,3.52-7.6,3.52l5.13-4.37c9.28-4.32,18.43,.29,18.43,.29,1.07,1.57,7.6,6.08,7.6,6.08-.58-.83-5.7-5.04-5.7-5.04,0,0,10.34,5.75,12.07,16.25,1.72,10.49-3.14,17.01-3.14,17.01,6.36-15.01-2-25.56-2-25.56-5.18-6.81-12.48-8.7-14.53-9.12-1.09-.22-3.19,.05-5.31,.37-.92,.08-1.84,.2-2.72,.39-.85,.11-1.63,.19-2.23,.19Zm52.73,2.38c1.01-.51,1.99-.95,2.94-1.35-.88,.46-1.72,.97-2.53,1.52-.21-.12-.41-.18-.41-.18Zm25.43-1.11s-.02-.02-.04-.03c-.01,0-.03-.01-.05-.02-2.68-1.46-5.67-2.41-8.85-2.75,4.46,.31,7.44,1.83,8.89,2.77,.21,.11,.38,.21,.51,.3-.16-.09-.31-.19-.47-.27Zm-33.47,11.7c-8.8,17.11,6.81,30.17,6.81,30.17-13.59-10.69-10.26-24.42-10.26-24.42,4.18-13.18,10.26-15.58,10.26-15.58l.54,.24c-3.2,2.5-5.75,5.79-7.35,9.59Zm13.66,35.06c1.42,.46,2.89,.8,4.41,1.02-.45,.25-.99,.56-1.62,.91l-2.79-1.93Zm20.13-87.64c7.42-2.41,9.97-6.65,9.97-6.65,0,0-.95,4.88-2.28,9.12-1.33,4.25-2.1,16.25-2.47,20.62-.37,4.37-1.41,9.17-2.56,10.26-1.15,1.09-1.33,1.33-1.33,1.33,1.11-.56,1.71,.09,1.71,.09-.44,.99-.52,3.14-.49,4.92-3.46-2.23-7.47-3.69-11.78-4.12,3.81-3.62,5.34-11.54,5.34-11.54-1.96,5.57-3.57,9.71-6.79,11.43-.41-.02-.82-.03-1.23-.03-1.34,0-2.66,.1-3.95,.29-3.29-2.16-3.95-10-.66-18.15,3.96-9.85,9.11-15.17,16.53-17.58Zm-76.29,11.12s1.51,2.14,3.04,2.66c1.53,.52,6.08,4.37,6.08,4.37l-5.13-6.37c13.39,6.57,15.63,11.19,16.72,12.54,1.1,1.35,3.13,1.14,3.13,1.14-1.38,2.73-5.13,5.61-5.13,5.61,0,0,1.69-.13,3.99-2.38,2.3-2.25,5.32-8.55,5.32-8.55,0,0-.03,2.11,.1,4.37,.13,2.26,1.33-.1,1.33-.1l3.42-9.6c2.08,12.19,7.3,12.95,8.74,12.73,1.44-.22,.66-2.47,.66-2.47,2.71-6.57,9.98-11.78,9.98-11.78,0,0-.27,.69-1.04,1.99-.78,1.3-.29,2.47-.29,2.47,0,0,6.77-8.25,9.22-9.22,2.45-.96,1.52,1.62,1.52,1.62-3.78,7.54-4.66,11.11-4.66,11.11-1.66,7.77-.51,12.54,1.79,14.74-5.82,1.23-10.94,4.36-14.69,8.71-3.43,3.55-5.82,9.37-6.86,11.99-1.06,2.65-4.76,1.5-5.89,1.33-.79-.12-2.11-2.69-2.83-4.22-3.1-10.63-12.91-18.39-24.54-18.39-.34,0-.68,0-1.02,.02,.03-.07,.05-.14,.07-.21,1.69-5.41-1.87-12.98-5.51-17.29-3.64-4.31-7.32-9.98-7.32-9.98,5.32,.75,9.78,3.13,9.78,3.13Zm-23.18,2c-1.12-3.78-7.22-17.58-7.22-17.58,0,0,11.85,9.89,16.72,13.39,4.88,3.51,9.92,8.3,13.3,14.25,3.38,5.96,2.8,11.79,1.04,12.07-1.75,.28-3.21-1.26-4.56-3.99-1.35-2.74-5.7-5.13-5.7-5.13,4.7,3.84,5.88,7.22,5.88,7.22,0,0,1.05,1.51,2.35,2.65-5.21,1.11-9.83,3.81-13.34,7.56-.02-.03-.03-.05-.03-.05-3.19-13.21-7.34-26.62-8.46-30.4Zm8.74,34.87s-.45,2.77-1.62,4.08c-1.16,1.31-2.38,5.04-2.38,5.04,0,0,1.04-5.38,3.99-9.12Zm-5.24,59.84c-.81-1.79-1.42-3.37-1.6-4.07-.44-1.73-1.62-.86-1.62-.86-2.96,2.76-7.79,9.6-7.79,9.6-.97-9.18,1.75-22.21,2.56-24.8,.81-2.59-1.14-1.24-1.14-1.24l-5.98,5.89c4.59-14.39,11.92-23.31,14.26-25.9,2.36,10.87,11.64,19.16,22.99,20.03-.13,.04-.26,.09-.4,.13l-.37-.05s.05,.04,.16,.12c-.51,.17-1.03,.35-1.59,.54-16.55,5.68-20.52,10.74-20.52,10.74,6.14-5.49,21.46-9.31,22.9-9.79,1.44-.48,1.52,.67,1.52,.67-10.8,5.94-18.73,13.69-23.39,18.99Zm11.04-1.98c-1.55-1.31-3.23-1.24-3.23-1.24,0,0-1.44,4.57-1.42,2.57,.01-2.01-1.54-3.89-1.05-2.47,.5,1.41-.38,4.4-1.04,6.27-.67,1.87-.19,3.99-.19,3.99-1.24-1.36-2.75-4.19-3.91-6.72,10.32-10.85,20.05-16.25,25.16-18.58,.86,.56,1.82,1.16,2.85,1.78-9.04,7.5-13.81,13.2-15.7,15.69-.69-.61-1.19-1.07-1.46-1.29Zm1.53,1.35c5.89-7.08,12.59-12.11,16.96-14.98,.41,.24,.84,.47,1.27,.7,.79,.43,1.6,.87,2.42,1.29-6.65,8.36-10.81,15.14-13.06,19.16-3.2-2.36-5.93-4.71-7.59-6.18Zm56.61,14.23c-4.32,1.56-9.98,6.65-9.98,6.65,.83-1.77-.38-5.04-.38-5.04,0,0-4.91,3.3-5.6,3.33-.7,.02,.66-2.47,.66-2.47,0,0-.89,.74-2,1.52-1.11,.79-5.89,4.28-5.89,4.28,0,0,1.27-2.02,1.9-3.61,.63-1.6-.42-.76-2,0-1.58,.76-3.61,2.57-3.61,2.57,0,0-2.1-5.44-11.02-8.84-3.73-1.42-7.61-3.87-10.98-6.34,5.03-8.44,10.76-14.93,14.29-18.55,4.58,2.34,9.13,4.23,11.04,3.04,2.45-1.53,4.63-2.6,5.51-2.57,.88,.04,3.61,0,3.61,0,0,0,.73,.04,1.62,.67,.88,.63,3.22,1.92,3.7,2.47,.48,.55,2.49,1.27,3.52,.85,.34-.14,2.75-1.39,5.79-3,3.3,3.22,8.25,8.5,15.01,16.77-6.67,5.2-12.32,7.22-15.2,8.27Zm15.39-8.42c-4.4-5.67-9.6-12.22-13.97-17.27,1.12-.59,2.29-1.21,3.46-1.83,1.78,1.46,4.13,3.52,7.18,6.42,2.75,2.61,5.78,5.35,8.68,7.92-1.83,1.82-3.63,3.4-5.36,4.76Zm12.35,.79l-2.79-2.59c.99-.79,1.56-1.28,1.56-1.28,1.02,1.04,1.31,2.51,1.23,3.87Zm12.74-1.5c-.76-2.21-1.61-3.9-2.49-5.19l3.21,1.96c-.32,1.95-.72,3.24-.72,3.24Zm6.46-27.37c9.36,8.46,10.26,23.28,10.26,23.28-5.75-8.82-15.69-11.51-16.91-11.49-1.22,.01,.38,1.71,.38,1.71,1.23,3.57,1.01,7.51,.59,10.28-1.16-.75-2.46-1.56-3.85-2.39-2.23-2.84-4.55-3.34-5.86-3.41-1.83-1.04-3.73-2.1-5.62-3.14l5.13,3.12c-.1,0-.19,0-.27,0-1.31,.03-.57,2.47-.57,2.47,0,0-1.81-1.54-2.37-2.47-.56-.93-2.09-.19-2.09-.19-1.52,1.86-3.03,3.55-4.52,5.06l-15.46-14.33c1.46-.77,2.88-1.53,4.15-2.2,3.93,2.04,9.95,5.19,16,8.52l-14.52-8.84-.38-.26c.77-.41,1.45-.77,2.01-1.07l20.99,10.17s-13.5-6.83-20.29-10.54c.23-.12,.42-.22,.56-.3,.19,0,.39,0,.59,0,13.3,0,24.33-9.71,26.4-22.43l.25,.58c9.81,9.49,15.87,24.23,15.87,24.23-5.49-5.75-10.45-6.37-10.45-6.37Z"/>
      </g>
      <path class="cls-4" d="M47.62,75.72c-11.9,0-21.55,9.65-21.55,21.55s9.65,21.55,21.55,21.55,21.54-9.65,21.54-21.55-9.65-21.55-21.54-21.55m59.95-.99c-13.18,0-23.86,10.68-23.86,23.86s10.68,23.86,23.86,23.86,23.86-10.68,23.86-23.86-10.68-23.86-23.86-23.86"/>
      <path class="cls-10" d="M126.5,86.65c-6.14-9.9-19.12-12.94-28.99-6.79-.81,.5-1.56,1.05-2.27,1.64,9-3.98,20.14-.3,25.89,8.97,5.2,8.38,4.35,18.7-1.44,25.27,.01,0,.03-.02,.04-.02,9.88-6.15,12.91-19.17,6.77-29.07m-96.67,1.21c-5.01,9.85-1.1,21.87,8.74,26.86,.8,.41,1.62,.75,2.44,1.04-7.65-5.35-10.13-16.19-5.44-25.41,4.25-8.34,13.02-12.72,21.2-11.26-.01,0-.03-.02-.04-.02-9.84-4.99-21.87-1.05-26.89,8.79"/>
      <path class="cls-5" d="M58.67,80.69c-.78-.39-1.57-.72-2.37-1,7.42,5.19,9.83,15.72,5.28,24.68-4.12,8.1-12.63,12.35-20.55,10.94,.01,0,.03,.02,.04,.02,9.54,4.85,21.21,1.03,26.07-8.54,4.86-9.56,1.07-21.25-8.47-26.1m38.09,29.19c-7.41-7.01-9.29-17.54-5.24-25.64,0,.01-.03,.02-.04,.04-8.26,8.76-7.85,22.57,.9,30.84,8.76,8.27,22.55,7.88,30.81-.88,.67-.71,1.28-1.46,1.84-2.23-7.96,6.36-20.07,5.63-28.27-2.12"/>
      <path class="cls-9" d="M50.04,78.92c-.58,0-1.05,.47-1.05,1.04s.47,1.04,1.05,1.04,1.05-.47,1.05-1.04-.47-1.04-1.05-1.04m0,2.99c-.58,0-1.05,.47-1.05,1.04s.47,1.05,1.05,1.05,1.05-.47,1.05-1.05-.47-1.04-1.05-1.04m3,33.11c-.58,0-1.05,.47-1.05,1.04,0,.36,.19,.68,.47,.87,.52-.13,1.04-.28,1.55-.45,.06-.13,.09-.27,.09-.42,0-.58-.47-1.04-1.05-1.04m0-2.98c-.58,0-1.05,.47-1.05,1.04s.47,1.04,1.05,1.04,1.05-.47,1.05-1.04-.47-1.04-1.05-1.04m-3-20.88c-.58,0-1.05,.47-1.05,1.04s.47,1.04,1.05,1.04,1.05-.47,1.05-1.04-.47-1.04-1.05-1.04m3,17.9c-.58,0-1.05,.47-1.05,1.04s.47,1.04,1.05,1.04,1.05-.47,1.05-1.04-.47-1.04-1.05-1.04m-3-21.18c-.58,0-1.05,.47-1.05,1.04s.47,1.05,1.05,1.05,1.05-.46,1.05-1.05-.47-1.04-1.05-1.04m0,6.26c-.58,0-1.05,.47-1.05,1.05s.47,1.04,1.05,1.04,1.05-.47,1.05-1.04-.47-1.05-1.05-1.05m0-9.25c-.58,0-1.05,.46-1.05,1.04s.47,1.04,1.05,1.04,1.05-.47,1.05-1.04-.47-1.04-1.05-1.04m3,0c-.58,0-1.05,.46-1.05,1.04s.47,1.04,1.05,1.04,1.05-.47,1.05-1.04-.47-1.04-1.05-1.04m0,6.26c-.58,0-1.05,.47-1.05,1.04s.47,1.04,1.05,1.04,1.05-.47,1.05-1.04-.47-1.04-1.05-1.04m0,14.91c-.58,0-1.05,.47-1.05,1.05s.47,1.04,1.05,1.04,1.05-.47,1.05-1.04-.47-1.05-1.05-1.05m0-18.2c-.58,0-1.05,.47-1.05,1.04s.47,1.05,1.05,1.05,1.05-.46,1.05-1.05-.47-1.04-1.05-1.04m0-5.97c-.58,0-1.05,.47-1.05,1.04s.47,1.05,1.05,1.05,1.05-.47,1.05-1.05-.47-1.04-1.05-1.04m-3,15.21c-.58,0-1.05,.47-1.05,1.04s.47,1.04,1.05,1.04,1.05-.47,1.05-1.04-.47-1.04-1.05-1.04m3,2.99c-.58,0-1.05,.47-1.05,1.04s.47,1.05,1.05,1.05,1.05-.47,1.05-1.05-.47-1.04-1.05-1.04m0,2.98c-.58,0-1.05,.47-1.05,1.04s.47,1.04,1.05,1.04,1.05-.47,1.05-1.04-.47-1.04-1.05-1.04m0-8.95c-.58,0-1.05,.47-1.05,1.05s.47,1.04,1.05,1.04,1.05-.47,1.05-1.04-.47-1.05-1.05-1.05m0-15.21c-.58,0-1.05,.47-1.05,1.04s.47,1.04,1.05,1.04,1.05-.47,1.05-1.04-.47-1.04-1.05-1.04m0,18.2c-.58,0-1.05,.47-1.05,1.04s.47,1.04,1.05,1.04,1.05-.47,1.05-1.04-.47-1.04-1.05-1.04m-6.01,0c-.58,0-1.05,.47-1.05,1.04s.47,1.04,1.05,1.04,1.05-.47,1.05-1.04-.47-1.04-1.05-1.04m0,5.97c-.58,0-1.05,.47-1.05,1.04s.47,1.04,1.05,1.04,1.05-.47,1.05-1.04-.47-1.04-1.05-1.04m0-11.93c-.58,0-1.05,.47-1.05,1.04s.47,1.04,1.05,1.04,1.05-.47,1.05-1.04-.47-1.04-1.05-1.04m0,2.98c-.58,0-1.05,.47-1.05,1.05s.47,1.04,1.05,1.04,1.05-.47,1.05-1.04-.47-1.05-1.05-1.05m0,5.97c-.58,0-1.05,.47-1.05,1.04s.47,1.05,1.05,1.05,1.05-.47,1.05-1.05-.47-1.04-1.05-1.04m0,14.92c-.58,0-1.05,.47-1.05,1.04s.47,1.05,1.05,1.05,1.05-.47,1.05-1.05-.47-1.04-1.05-1.04m0-2.98c-.58,0-1.05,.47-1.05,1.04s.47,1.04,1.05,1.04,1.05-.47,1.05-1.04-.47-1.04-1.05-1.04m0-5.97c-.58,0-1.05,.47-1.05,1.05s.47,1.04,1.05,1.04,1.05-.47,1.05-1.04-.47-1.05-1.05-1.05m0,2.98c-.58,0-1.05,.47-1.05,1.04s.47,1.04,1.05,1.04,1.05-.47,1.05-1.04-.47-1.04-1.05-1.04m3-8.95c-.58,0-1.05,.47-1.05,1.04s.47,1.05,1.05,1.05,1.05-.47,1.05-1.05-.47-1.04-1.05-1.04m0,8.95c-.58,0-1.05,.47-1.05,1.04s.47,1.04,1.05,1.04,1.05-.47,1.05-1.04-.47-1.04-1.05-1.04m0,2.98c-.58,0-1.05,.47-1.05,1.04s.47,1.04,1.05,1.04,1.05-.47,1.05-1.04-.47-1.04-1.05-1.04m-3-24.16c-.58,0-1.05,.47-1.05,1.04s.47,1.05,1.05,1.05,1.05-.46,1.05-1.05-.47-1.04-1.05-1.04m3,15.21c-.58,0-1.05,.47-1.05,1.04s.47,1.04,1.05,1.04,1.05-.47,1.05-1.04-.47-1.04-1.05-1.04m0,2.98c-.58,0-1.05,.47-1.05,1.05s.47,1.04,1.05,1.04,1.05-.47,1.05-1.04-.47-1.05-1.05-1.05m-3-21.18c-.58,0-1.05,.46-1.05,1.04s.47,1.04,1.05,1.04,1.05-.47,1.05-1.04-.47-1.04-1.05-1.04m0-2.98c-.58,0-1.05,.47-1.05,1.04s.47,1.05,1.05,1.05,1.05-.47,1.05-1.05-.47-1.04-1.05-1.04m3,33.11c-.58,0-1.05,.47-1.05,1.04s.47,1.05,1.05,1.05,1.05-.47,1.05-1.05-.47-1.04-1.05-1.04m-3-36.1c-.58,0-1.05,.47-1.05,1.04s.47,1.04,1.05,1.04,1.05-.47,1.05-1.04-.47-1.04-1.05-1.04m9.01,8.95c-.58,0-1.05,.47-1.05,1.04s.47,1.05,1.05,1.05,1.05-.46,1.05-1.05-.47-1.04-1.05-1.04m10.97,13.27c0,.2,.06,.39,.16,.55,.1-.45,.17-.91,.24-1.36-.24,.19-.4,.48-.4,.82m-1.95-9.99c-.58,0-1.05,.47-1.05,1.04s.47,1.04,1.05,1.04,1.05-.47,1.05-1.04-.47-1.04-1.05-1.04m0,2.98c-.58,0-1.05,.47-1.05,1.05s.47,1.04,1.05,1.04,1.05-.47,1.05-1.04-.47-1.05-1.05-1.05m0,5.97c-.58,0-1.05,.47-1.05,1.04s.47,1.05,1.05,1.05,1.05-.47,1.05-1.05-.47-1.04-1.05-1.04m0-2.99c-.58,0-1.05,.47-1.05,1.04s.47,1.04,1.05,1.04,1.05-.47,1.05-1.04-.47-1.04-1.05-1.04m-6.01-15.21c-.58,0-1.05,.47-1.05,1.04s.47,1.05,1.05,1.05,1.05-.47,1.05-1.05-.47-1.04-1.05-1.04m0,2.98c-.58,0-1.05,.46-1.05,1.04s.47,1.04,1.05,1.04,1.05-.47,1.05-1.04-.47-1.04-1.05-1.04m7.96,13.27c0,.39,.22,.73,.54,.91,.04-.52,.06-1.05,.06-1.59,0-.09,0-.18,0-.27-.36,.17-.6,.53-.6,.94m-7.96-10.29c-.58,0-1.05,.47-1.05,1.04s.47,1.05,1.05,1.05,1.05-.46,1.05-1.05-.47-1.04-1.05-1.04m6.01,15.21c-.58,0-1.05,.47-1.05,1.04s.47,1.04,1.05,1.04,1.05-.47,1.05-1.04-.47-1.04-1.05-1.04m-1.05,4.03c0,.42,.24,.77,.6,.94,.37-.59,.7-1.2,1.01-1.83-.16-.1-.35-.16-.55-.16-.58,0-1.05,.47-1.05,1.05m-1.95-7.01c-.58,0-1.05,.47-1.05,1.04s.47,1.05,1.05,1.05,1.05-.47,1.05-1.05-.47-1.04-1.05-1.04m0,2.98c-.58,0-1.05,.47-1.05,1.04s.47,1.04,1.05,1.04,1.05-.47,1.05-1.04-.47-1.04-1.05-1.04m0,2.98c-.58,0-1.05,.47-1.05,1.05s.47,1.04,1.05,1.04,1.05-.47,1.05-1.04-.47-1.05-1.05-1.05m0-8.95c-.58,0-1.05,.47-1.05,1.04s.47,1.04,1.05,1.04,1.05-.47,1.05-1.04-.47-1.04-1.05-1.04m0-9.25c-.58,0-1.05,.47-1.05,1.04s.47,1.05,1.05,1.05,1.05-.46,1.05-1.05-.47-1.04-1.05-1.04m-3,3.28c-.58,0-1.05,.47-1.05,1.04s.47,1.04,1.05,1.04,1.05-.47,1.05-1.04-.47-1.04-1.05-1.04m3-6.26c-.58,0-1.05,.46-1.05,1.04s.47,1.04,1.05,1.04,1.05-.47,1.05-1.04-.47-1.04-1.05-1.04m0,9.25c-.58,0-1.05,.47-1.05,1.05s.47,1.04,1.05,1.04,1.05-.47,1.05-1.04-.47-1.05-1.05-1.05m0-2.98c-.58,0-1.05,.47-1.05,1.04s.47,1.04,1.05,1.04,1.05-.47,1.05-1.04-.47-1.04-1.05-1.04m-3,2.98c-.58,0-1.05,.47-1.05,1.05s.47,1.04,1.05,1.04,1.05-.47,1.05-1.04-.47-1.05-1.05-1.05m-3.01,5.97c-.58,0-1.05,.47-1.05,1.04s.47,1.05,1.05,1.05,1.05-.47,1.05-1.05-.47-1.04-1.05-1.04m0-2.99c-.58,0-1.05,.47-1.05,1.04s.47,1.04,1.05,1.04,1.05-.47,1.05-1.04-.47-1.04-1.05-1.04m0-2.98c-.58,0-1.05,.47-1.05,1.05s.47,1.04,1.05,1.04,1.05-.47,1.05-1.04-.47-1.05-1.05-1.05m0-2.98c-.58,0-1.05,.47-1.05,1.04s.47,1.04,1.05,1.04,1.05-.47,1.05-1.04-.47-1.04-1.05-1.04m0,14.91c-.58,0-1.05,.47-1.05,1.05s.47,1.04,1.05,1.04,1.05-.47,1.05-1.04-.47-1.05-1.05-1.05m0-2.98c-.58,0-1.05,.47-1.05,1.04s.47,1.04,1.05,1.04,1.05-.47,1.05-1.04-.47-1.04-1.05-1.04m0,5.97c-.58,0-1.05,.47-1.05,1.04s.47,1.04,1.05,1.04,1.05-.47,1.05-1.04-.47-1.04-1.05-1.04m0,2.98c-.58,0-1.05,.47-1.05,1.04s.47,1.04,1.05,1.04,1.05-.47,1.05-1.04-.47-1.04-1.05-1.04m-12.02-33.11c-.58,0-1.05,.47-1.05,1.04s.47,1.04,1.05,1.04,1.05-.47,1.05-1.04-.47-1.04-1.05-1.04m10.97,37.14s0,.04,0,.05c.6-.24,1.2-.51,1.77-.81-.19-.18-.44-.29-.72-.29-.58,0-1.05,.47-1.05,1.04m4.06-15.96c-.58,0-1.05,.47-1.05,1.04s.47,1.05,1.05,1.05,1.05-.47,1.05-1.05-.47-1.04-1.05-1.04m0,5.97c-.58,0-1.05,.47-1.05,1.05s.47,1.04,1.05,1.04,1.05-.47,1.05-1.04-.47-1.05-1.05-1.05m0-2.98c-.58,0-1.05,.47-1.05,1.04s.47,1.04,1.05,1.04,1.05-.47,1.05-1.04-.47-1.04-1.05-1.04m-3.01-18.2c-.58,0-1.05,.46-1.05,1.04s.47,1.04,1.05,1.04,1.05-.47,1.05-1.04-.47-1.04-1.05-1.04m3.01,12.23c-.58,0-1.05,.47-1.05,1.04s.47,1.04,1.05,1.04,1.05-.47,1.05-1.04-.47-1.04-1.05-1.04m-3.55-18.04c-.3,.18-.5,.51-.5,.89,0,.58,.47,1.04,1.05,1.04s1.05-.47,1.05-1.04c0-.04,0-.08,0-.12-.52-.28-1.05-.54-1.59-.77m.55,2.83c-.58,0-1.05,.47-1.05,1.04s.47,1.05,1.05,1.05,1.05-.47,1.05-1.05-.47-1.04-1.05-1.04m3.01,30.13c-.58,0-1.05,.47-1.05,1.04,0,.49,.34,.91,.8,1.01,.45-.3,.88-.62,1.3-.96,0-.02,0-.04,0-.05,0-.58-.47-1.04-1.05-1.04m0-2.98c-.58,0-1.05,.47-1.05,1.04s.47,1.04,1.05,1.04,1.05-.47,1.05-1.04-.47-1.04-1.05-1.04m-24.04-8.95c-.58,0-1.05,.47-1.05,1.04s.47,1.05,1.05,1.05,1.05-.47,1.05-1.05-.47-1.04-1.05-1.04m-3-15.21s-.04,0-.06,0c-.34,.42-.66,.85-.96,1.3,.11,.45,.53,.79,1.02,.79,.58,0,1.05-.47,1.05-1.04s-.47-1.04-1.05-1.04m3,27.15c-.33,0-.63,.16-.82,.4,.52,.47,1.07,.9,1.63,1.32,.15-.18,.24-.41,.24-.67,0-.58-.47-1.04-1.05-1.04m0-2.98c-.58,0-1.05,.47-1.05,1.04s.47,1.04,1.05,1.04,1.05-.47,1.05-1.04-.47-1.04-1.05-1.04m-3-21.18c-.58,0-1.05,.47-1.05,1.04s.47,1.05,1.05,1.05,1.05-.46,1.05-1.05-.47-1.04-1.05-1.04m6.01,27.15c-.06,0-.12,0-.17,.02,.36,.2,.73,.39,1.11,.58-.17-.35-.53-.59-.95-.59m-3-8.95c-.58,0-1.05,.47-1.05,1.05s.47,1.04,1.05,1.04,1.05-.47,1.05-1.04-.47-1.05-1.05-1.05m-3-5.97c-.58,0-1.05,.47-1.05,1.04s.47,1.05,1.05,1.05,1.05-.47,1.05-1.05-.47-1.04-1.05-1.04m0-8.95c-.58,0-1.05,.47-1.05,1.04s.47,1.04,1.05,1.04,1.05-.47,1.05-1.04-.47-1.04-1.05-1.04m0,2.98c-.58,0-1.05,.47-1.05,1.05s.47,1.04,1.05,1.04,1.05-.47,1.05-1.04-.47-1.05-1.05-1.05m0,8.95c-.58,0-1.05,.47-1.05,1.04s.47,1.04,1.05,1.04,1.05-.47,1.05-1.04-.47-1.04-1.05-1.04m3-11.93c-.58,0-1.05,.47-1.05,1.04s.47,1.04,1.05,1.04,1.05-.47,1.05-1.04-.47-1.04-1.05-1.04m0-3.28c-.58,0-1.05,.47-1.05,1.04s.47,1.05,1.05,1.05,1.05-.46,1.05-1.05-.47-1.04-1.05-1.04m0-2.98c-.58,0-1.05,.46-1.05,1.04s.47,1.04,1.05,1.04,1.05-.47,1.05-1.04-.47-1.04-1.05-1.04m0-2.98s-.05,0-.08,0c-.33,.26-.64,.54-.95,.82-.02,.07-.02,.14-.02,.22,0,.58,.47,1.05,1.05,1.05s1.05-.47,1.05-1.05-.47-1.04-1.05-1.04m0,12.23c-.58,0-1.05,.47-1.05,1.05s.47,1.04,1.05,1.04,1.05-.47,1.05-1.04-.47-1.05-1.05-1.05m0,8.95c-.58,0-1.05,.47-1.05,1.04s.47,1.04,1.05,1.04,1.05-.47,1.05-1.04-.47-1.04-1.05-1.04m27.04,5.97c-.58,0-1.05,.47-1.05,1.04s.47,1.04,1.05,1.04c.07,0,.14,0,.21-.02,.29-.32,.57-.63,.84-.97,0-.02,0-.04,0-.06,0-.58-.47-1.04-1.05-1.04m-18.03-27.15c-.58,0-1.05,.47-1.05,1.04s.47,1.05,1.05,1.05,1.05-.47,1.05-1.05-.47-1.04-1.05-1.04m-12.02,15.21c-.58,0-1.05,.47-1.05,1.04s.47,1.04,1.05,1.04,1.05-.47,1.05-1.04-.47-1.04-1.05-1.04m18.03-19.09c.3,0,.57-.12,.76-.32-.55-.09-1.11-.16-1.67-.2,.18,.32,.52,.53,.91,.53m8.94,2.98c-.28-.19-.57-.38-.86-.56,.17,.32,.49,.54,.86,.56m3.08,2.99c.1,0,.2-.02,.29-.04-.41-.45-.85-.88-1.3-1.3-.03,.1-.04,.19-.04,.3,0,.58,.47,1.05,1.05,1.05m-15.02-5.97c.41,0,.77-.24,.94-.58-.14,0-.28,0-.42,0-.48,0-.96,.02-1.44,.05,.18,.32,.53,.53,.92,.53m18.03,11.93c.37,0,.7-.19,.88-.48-.24-.55-.5-1.08-.78-1.6-.03,0-.07,0-.1,0-.58,0-1.05,.47-1.05,1.04s.47,1.05,1.05,1.05m-33.06,16.11c-.58,0-1.05,.47-1.05,1.05s.47,1.04,1.05,1.04,1.05-.47,1.05-1.04-.47-1.05-1.05-1.05m32.55-19.22c-.17-.28-.36-.55-.54-.82,.03,.36,.25,.66,.54,.82m-19.71-9.23c-.47,.06-.94,.14-1.4,.24,.16,.1,.36,.16,.57,.16,.34,0,.64-.16,.83-.4m22.71,18.48c-.04-.58-.1-1.14-.19-1.71-.22,.19-.36,.47-.36,.79,0,.4,.23,.74,.55,.92m-38.6-6.14h.04c.58,0,1.05-.46,1.05-1.05,0-.27-.1-.52-.28-.7-.3,.57-.56,1.15-.81,1.75m.04,1.19c-.19,0-.37,.05-.52,.14-.15,.46-.29,.93-.4,1.4,.18,.32,.52,.54,.92,.54,.58,0,1.05-.47,1.05-1.04s-.47-1.04-1.05-1.04m0,2.98c-.58,0-1.05,.47-1.05,1.05s.47,1.04,1.05,1.04,1.05-.47,1.05-1.04-.47-1.05-1.05-1.05m.48,12.05c.18,.36,.36,.72,.56,1.08,0-.05,.01-.1,.01-.15,0-.41-.23-.76-.57-.93m2.53,2.87c-.25,0-.49,.09-.67,.23,.41,.57,.85,1.11,1.32,1.63,.24-.19,.4-.49,.4-.82,0-.58-.47-1.04-1.05-1.04m-3.01-5.97c-.24,0-.47,.08-.64,.22,.19,.64,.41,1.26,.67,1.87,.57-.01,1.03-.48,1.03-1.04s-.47-1.04-1.05-1.04m0-5.97c-.58,0-1.05,.47-1.05,1.04s.47,1.04,1.05,1.04,1.05-.47,1.05-1.04-.47-1.04-1.05-1.04m0,2.99c-.58,0-1.05,.47-1.05,1.04s.47,1.05,1.05,1.05,1.05-.47,1.05-1.05-.47-1.04-1.05-1.04m6.01-2.99c-.58,0-1.05,.47-1.05,1.04s.47,1.04,1.05,1.04,1.05-.47,1.05-1.04-.47-1.04-1.05-1.04m9.01,17.9c-.58,0-1.05,.47-1.05,1.04s.47,1.05,1.05,1.05,1.05-.47,1.05-1.05-.47-1.04-1.05-1.04m-3-36.1c-.58,0-1.05,.47-1.05,1.04s.47,1.04,1.05,1.04,1.05-.47,1.05-1.04-.47-1.04-1.05-1.04m0,18.2c-.58,0-1.05,.47-1.05,1.04s.47,1.04,1.05,1.04,1.05-.47,1.05-1.04-.47-1.04-1.05-1.04m0-15.21c-.58,0-1.05,.47-1.05,1.04s.47,1.05,1.05,1.05,1.05-.47,1.05-1.05-.47-1.04-1.05-1.04m3,27.15c-.58,0-1.05,.47-1.05,1.04s.47,1.04,1.05,1.04,1.05-.47,1.05-1.04-.47-1.04-1.05-1.04m-3-14.92c-.58,0-1.05,.47-1.05,1.05s.47,1.04,1.05,1.04,1.05-.47,1.05-1.04-.47-1.05-1.05-1.05m0-2.98c-.58,0-1.05,.47-1.05,1.04s.47,1.04,1.05,1.04,1.05-.47,1.05-1.04-.47-1.04-1.05-1.04m0-3.28c-.58,0-1.05,.47-1.05,1.04s.47,1.05,1.05,1.05,1.05-.46,1.05-1.05-.47-1.04-1.05-1.04m0-2.98c-.58,0-1.05,.46-1.05,1.04s.47,1.04,1.05,1.04,1.05-.47,1.05-1.04-.47-1.04-1.05-1.04m3,27.15c-.58,0-1.05,.47-1.05,1.04s.47,1.04,1.05,1.04,1.05-.47,1.05-1.04-.47-1.04-1.05-1.04m-6.01,0c-.58,0-1.05,.47-1.05,1.04s.47,1.04,1.05,1.04,1.05-.47,1.05-1.04-.47-1.04-1.05-1.04m6.01-5.97c-.58,0-1.05,.47-1.05,1.05s.47,1.04,1.05,1.04,1.05-.47,1.05-1.04-.47-1.05-1.05-1.05m0-18.2c-.58,0-1.05,.47-1.05,1.04s.47,1.05,1.05,1.05,1.05-.46,1.05-1.05-.47-1.04-1.05-1.04m0-2.98c-.58,0-1.05,.46-1.05,1.04s.47,1.04,1.05,1.04,1.05-.47,1.05-1.04-.47-1.04-1.05-1.04m0,9.25c-.58,0-1.05,.47-1.05,1.05s.47,1.04,1.05,1.04,1.05-.47,1.05-1.04-.47-1.05-1.05-1.05m0,8.95c-.58,0-1.05,.47-1.05,1.04s.47,1.04,1.05,1.04,1.05-.47,1.05-1.04-.47-1.04-1.05-1.04m0-5.97c-.58,0-1.05,.47-1.05,1.04s.47,1.04,1.05,1.04,1.05-.47,1.05-1.04-.47-1.04-1.05-1.04m0,2.99c-.58,0-1.05,.47-1.05,1.04s.47,1.05,1.05,1.05,1.05-.47,1.05-1.05-.47-1.04-1.05-1.04m0-8.95c-.58,0-1.05,.47-1.05,1.04s.47,1.04,1.05,1.04,1.05-.47,1.05-1.04-.47-1.04-1.05-1.04m-6.01,5.96c-.58,0-1.05,.47-1.05,1.04s.47,1.04,1.05,1.04,1.05-.47,1.05-1.04-.47-1.04-1.05-1.04m0-2.98c-.58,0-1.05,.47-1.05,1.05s.47,1.04,1.05,1.04,1.05-.47,1.05-1.04-.47-1.05-1.05-1.05m0-2.98c-.58,0-1.05,.47-1.05,1.04s.47,1.04,1.05,1.04,1.05-.47,1.05-1.04-.47-1.04-1.05-1.04m0-3.28c-.58,0-1.05,.47-1.05,1.04s.47,1.05,1.05,1.05,1.05-.46,1.05-1.05-.47-1.04-1.05-1.04m0,12.23c-.58,0-1.05,.47-1.05,1.04s.47,1.05,1.05,1.05,1.05-.47,1.05-1.05-.47-1.04-1.05-1.04m0,2.98c-.58,0-1.05,.47-1.05,1.04s.47,1.04,1.05,1.04,1.05-.47,1.05-1.04-.47-1.04-1.05-1.04m0,5.97c-.58,0-1.05,.47-1.05,1.04s.47,1.04,1.05,1.04,1.05-.47,1.05-1.04-.47-1.04-1.05-1.04m0-2.98c-.58,0-1.05,.47-1.05,1.05s.47,1.04,1.05,1.04,1.05-.47,1.05-1.04-.47-1.05-1.05-1.05m0-21.18c-.58,0-1.05,.46-1.05,1.04s.47,1.04,1.05,1.04,1.05-.47,1.05-1.04-.47-1.04-1.05-1.04m3.01,24.16c-.58,0-1.05,.47-1.05,1.04s.47,1.04,1.05,1.04,1.05-.47,1.05-1.04-.47-1.04-1.05-1.04m0-2.98c-.58,0-1.05,.47-1.05,1.05s.47,1.04,1.05,1.04,1.05-.47,1.05-1.04-.47-1.05-1.05-1.05m0-2.98c-.58,0-1.05,.47-1.05,1.04s.47,1.04,1.05,1.04,1.05-.47,1.05-1.04-.47-1.04-1.05-1.04m0-2.98c-.58,0-1.05,.47-1.05,1.04s.47,1.05,1.05,1.05,1.05-.47,1.05-1.05-.47-1.04-1.05-1.04m0,11.93c-.58,0-1.05,.47-1.05,1.04s.47,1.04,1.05,1.04,1.05-.47,1.05-1.04-.47-1.04-1.05-1.04m-3.01-30.13c-.58,0-1.05,.47-1.05,1.04s.47,1.05,1.05,1.05,1.05-.47,1.05-1.05-.47-1.04-1.05-1.04m3.01,33.11c-.58,0-1.04,.46-1.05,1.03,.61,.25,1.24,.47,1.88,.66,.14-.18,.23-.41,.23-.65,0-.58-.47-1.04-1.05-1.04m-3.96-34.62c.16,.36,.53,.61,.95,.61,.58,0,1.05-.47,1.05-1.04,0-.21-.06-.4-.17-.57-.63,.3-1.25,.64-1.84,1m89.8,10.12c.41,0,.77-.21,.98-.53-.26-.6-.55-1.19-.86-1.76-.04,0-.07,0-.11,0-.64,0-1.16,.52-1.16,1.15s.52,1.15,1.16,1.15m2.76,6.78c-.04-.64-.11-1.26-.21-1.88-.25,.21-.4,.52-.4,.87,0,.44,.24,.82,.61,1.01m-3.32-10.21c-.19-.31-.39-.61-.6-.91,.03,.39,.27,.73,.6,.91m-2.76-3.15c.11,0,.22-.02,.33-.05-.46-.5-.94-.97-1.44-1.43-.03,.1-.04,.21-.04,.33,0,.64,.52,1.15,1.16,1.15m-16.58-6.58c.46,0,.85-.26,1.04-.64-.15,0-.3,0-.46,0-.54,0-1.07,.02-1.59,.05,.2,.35,.58,.59,1.01,.59m13.18,3.29c-.31-.22-.63-.43-.95-.62,.18,.35,.54,.59,.95,.62m-15.58-3.73c-.52,.07-1.03,.16-1.54,.26,.18,.12,.39,.18,.63,.18,.37,0,.7-.17,.91-.45m5.72,.45c.33,0,.63-.14,.84-.36-.61-.1-1.22-.17-1.84-.22,.2,.35,.57,.58,1.01,.58m-13.26,34.23c-.64,0-1.16,.52-1.16,1.15s.52,1.15,1.16,1.15,1.16-.52,1.16-1.15-.52-1.15-1.16-1.15m16.58-9.87c-.64,0-1.16,.52-1.16,1.15s.52,1.15,1.16,1.15,1.16-.52,1.16-1.15-.52-1.15-1.16-1.15m0-3.29c-.64,0-1.16,.52-1.16,1.15s.52,1.15,1.16,1.15,1.16-.52,1.16-1.15-.52-1.15-1.16-1.15m0-3.29c-.64,0-1.16,.52-1.16,1.15s.52,1.15,1.16,1.15,1.16-.51,1.16-1.15-.52-1.15-1.16-1.15m0-3.29c-.64,0-1.16,.52-1.16,1.15s.52,1.15,1.16,1.15,1.16-.52,1.16-1.15-.52-1.15-1.16-1.15m0-3.62c-.64,0-1.16,.52-1.16,1.15s.52,1.15,1.16,1.15,1.16-.51,1.16-1.15-.52-1.15-1.16-1.15m0,26.66c-.64,0-1.16,.52-1.16,1.15s.52,1.15,1.16,1.15,1.16-.51,1.16-1.15-.52-1.15-1.16-1.15m0-9.88c-.64,0-1.16,.52-1.16,1.15s.52,1.15,1.16,1.15,1.16-.52,1.16-1.15-.52-1.15-1.16-1.15m0,6.58c-.64,0-1.16,.52-1.16,1.15s.52,1.15,1.16,1.15,1.16-.52,1.16-1.15-.52-1.15-1.16-1.15m0-3.29c-.64,0-1.16,.51-1.16,1.15s.52,1.15,1.16,1.15,1.16-.52,1.16-1.15-.52-1.15-1.16-1.15m2.15,11.03s0,.04,0,.06c.67-.27,1.32-.57,1.95-.89-.21-.2-.49-.31-.8-.31-.64,0-1.16,.51-1.16,1.15m1.16-4.44c-.64,0-1.16,.52-1.16,1.15s.52,1.15,1.16,1.15,1.16-.51,1.16-1.15-.52-1.15-1.16-1.15m0-3.29c-.64,0-1.16,.52-1.16,1.15s.52,1.15,1.16,1.15,1.16-.52,1.16-1.15-.52-1.15-1.16-1.15m0-3.29c-.64,0-1.16,.51-1.16,1.15s.52,1.15,1.16,1.15,1.16-.52,1.16-1.15-.52-1.15-1.16-1.15m-9.95-16.46c-.64,0-1.16,.52-1.16,1.15s.52,1.15,1.16,1.15,1.16-.52,1.16-1.15-.52-1.15-1.16-1.15m6.63-13.5c-.64,0-1.16,.52-1.16,1.15s.52,1.15,1.16,1.15,1.16-.52,1.16-1.15-.52-1.15-1.16-1.15m0,39.83c-.64,0-1.16,.51-1.16,1.15,0,.4,.21,.76,.52,.96,.57-.14,1.14-.31,1.7-.5,.06-.14,.09-.29,.09-.46,0-.64-.52-1.15-1.16-1.15m-26-9.75c.19,.41,.4,.8,.62,1.19,0-.05,.01-.11,.01-.16,0-.45-.26-.83-.64-1.03m26-23.5c-.64,0-1.16,.52-1.16,1.16s.52,1.15,1.16,1.15,1.16-.51,1.16-1.15-.52-1.16-1.16-1.16m-3.31,23.37c-.64,0-1.16,.51-1.16,1.15s.52,1.15,1.16,1.15,1.16-.52,1.16-1.15-.52-1.15-1.16-1.15m0,6.58c-.64,0-1.16,.52-1.16,1.15s.52,1.15,1.16,1.15,1.16-.51,1.16-1.15-.52-1.15-1.16-1.15m-3.32-36.54c-.64,0-1.16,.52-1.16,1.15s.52,1.15,1.16,1.15,1.16-.52,1.16-1.15-.52-1.15-1.16-1.15m3.32,39.83c-.64,0-1.16,.51-1.16,1.15s.52,1.15,1.16,1.15,1.16-.51,1.16-1.15-.52-1.15-1.16-1.15m0-6.59c-.64,0-1.16,.52-1.16,1.15s.52,1.15,1.16,1.15,1.16-.52,1.16-1.15-.52-1.15-1.16-1.15m-3.32-26.66c-.64,0-1.16,.52-1.16,1.16s.52,1.15,1.16,1.15,1.16-.51,1.16-1.15-.52-1.16-1.16-1.16m0-3.29c-.64,0-1.16,.52-1.16,1.15s.52,1.15,1.16,1.15,1.16-.51,1.16-1.15-.52-1.15-1.16-1.15m0,6.58c-.64,0-1.16,.52-1.16,1.15s.52,1.15,1.16,1.15,1.16-.51,1.16-1.15-.52-1.15-1.16-1.15m9.95,13.5c-.64,0-1.16,.52-1.16,1.15s.52,1.15,1.16,1.15,1.16-.52,1.16-1.15-.52-1.15-1.16-1.15m-6.63-23.37c-.64,0-1.16,.52-1.16,1.15s.52,1.15,1.16,1.15,1.16-.52,1.16-1.15-.52-1.15-1.16-1.15m0,6.58c-.64,0-1.16,.52-1.16,1.16s.52,1.15,1.16,1.15,1.16-.51,1.16-1.15-.52-1.16-1.16-1.16m0,3.29c-.64,0-1.16,.52-1.16,1.15s.52,1.15,1.16,1.15,1.16-.51,1.16-1.15-.52-1.15-1.16-1.15m0,3.62c-.64,0-1.16,.52-1.16,1.15s.52,1.15,1.16,1.15,1.16-.52,1.16-1.15-.52-1.15-1.16-1.15m0-10.2c-.64,0-1.16,.52-1.16,1.15s.52,1.15,1.16,1.15,1.16-.51,1.16-1.15-.52-1.15-1.16-1.15m0,13.5c-.64,0-1.16,.52-1.16,1.15s.52,1.15,1.16,1.15,1.16-.51,1.16-1.15-.52-1.15-1.16-1.15m0,9.87c-.64,0-1.16,.52-1.16,1.15s.52,1.15,1.16,1.15,1.16-.52,1.16-1.15-.52-1.15-1.16-1.15m0-3.29c-.64,0-1.16,.52-1.16,1.15s.52,1.15,1.16,1.15,1.16-.52,1.16-1.15-.52-1.15-1.16-1.15m0-3.29c-.64,0-1.16,.52-1.16,1.15s.52,1.15,1.16,1.15,1.16-.52,1.16-1.15-.52-1.15-1.16-1.15m6.63,6.58c-.64,0-1.16,.52-1.16,1.15s.52,1.15,1.16,1.15,1.16-.52,1.16-1.15-.52-1.15-1.16-1.15m6.63-20.08c-.64,0-1.16,.52-1.16,1.16s.52,1.15,1.16,1.15,1.16-.51,1.16-1.15-.52-1.16-1.16-1.16m0,10.21c-.64,0-1.16,.52-1.16,1.15s.52,1.15,1.16,1.15,1.16-.51,1.16-1.15-.52-1.15-1.16-1.15m0-3.29c-.64,0-1.16,.52-1.16,1.15s.52,1.15,1.16,1.15,1.16-.52,1.16-1.15-.52-1.15-1.16-1.15m0-3.62c-.64,0-1.16,.52-1.16,1.15s.52,1.15,1.16,1.15,1.16-.51,1.16-1.15-.52-1.15-1.16-1.15m0,10.2c-.64,0-1.16,.52-1.16,1.15s.52,1.15,1.16,1.15,1.16-.52,1.16-1.15-.52-1.15-1.16-1.15m0,13.17c-.64,0-1.16,.52-1.16,1.15s.52,1.15,1.16,1.15c.08,0,.16,0,.23-.02,.32-.35,.63-.7,.93-1.06,0-.02,0-.05,0-.07,0-.64-.52-1.15-1.16-1.15m0-9.87c-.64,0-1.16,.52-1.16,1.15s.52,1.15,1.16,1.15,1.16-.52,1.16-1.15-.52-1.15-1.16-1.15m0,3.29c-.64,0-1.16,.52-1.16,1.15s.52,1.15,1.16,1.15,1.16-.52,1.16-1.15-.52-1.15-1.16-1.15m0,3.29c-.64,0-1.16,.51-1.16,1.15s.52,1.15,1.16,1.15,1.16-.52,1.16-1.15-.52-1.15-1.16-1.15m5.47-5.43c0,.22,.06,.43,.17,.61,.1-.5,.2-1,.26-1.51-.26,.21-.44,.54-.44,.9m-3.31,6.58c0,.46,.27,.85,.66,1.04,.41-.65,.78-1.32,1.12-2.02-.18-.11-.39-.17-.61-.17-.64,0-1.16,.51-1.16,1.15m1.16-17.61c-.64,0-1.16,.52-1.16,1.15s.52,1.15,1.16,1.15,1.16-.52,1.16-1.15-.52-1.15-1.16-1.15m-9.95,6.58c-.64,0-1.16,.52-1.16,1.15s.52,1.15,1.16,1.15,1.16-.52,1.16-1.15-.52-1.15-1.16-1.15m9.95-3.29c-.64,0-1.16,.52-1.16,1.15s.52,1.15,1.16,1.15,1.16-.51,1.16-1.15-.52-1.15-1.16-1.15m0,3.29c-.64,0-1.16,.52-1.16,1.15s.52,1.15,1.16,1.15,1.16-.52,1.16-1.15-.52-1.15-1.16-1.15m0,6.58c-.64,0-1.16,.52-1.16,1.15s.52,1.15,1.16,1.15,1.16-.52,1.16-1.15-.52-1.15-1.16-1.15m0-3.29c-.64,0-1.16,.52-1.16,1.15s.52,1.15,1.16,1.15,1.16-.52,1.16-1.15-.52-1.15-1.16-1.15m2.82-3.18c-.39,.18-.66,.58-.66,1.04,0,.43,.24,.81,.59,1.01,.05-.58,.07-1.16,.07-1.75,0-.1,0-.2,0-.29m-9.45,13.05c-.64,0-1.16,.52-1.16,1.15s.52,1.15,1.16,1.15,1.16-.52,1.16-1.15-.52-1.15-1.16-1.15m-3.31-29.95c-.64,0-1.16,.52-1.16,1.15s.52,1.15,1.16,1.15,1.16-.51,1.16-1.15-.52-1.15-1.16-1.15m-.6-3.12c-.34,.2-.56,.56-.56,.98,0,.64,.52,1.15,1.16,1.15s1.16-.52,1.16-1.15c0-.04,0-.09,0-.13-.57-.31-1.16-.59-1.75-.85m3.92,36.37c-.64,0-1.16,.52-1.16,1.15,0,.54,.38,.99,.89,1.12,.49-.33,.97-.69,1.43-1.06,0-.02,0-.04,0-.06,0-.64-.52-1.15-1.16-1.15m-3.31-29.96c-.64,0-1.16,.52-1.16,1.16s.52,1.15,1.16,1.15,1.16-.51,1.16-1.15-.52-1.16-1.16-1.16m0,3.29c-.64,0-1.16,.52-1.16,1.15s.52,1.15,1.16,1.15,1.16-.51,1.16-1.15-.52-1.15-1.16-1.15m0,6.91c-.64,0-1.16,.52-1.16,1.15s.52,1.15,1.16,1.15,1.16-.51,1.16-1.15-.52-1.15-1.16-1.15m3.31-13.5c-.64,0-1.16,.52-1.16,1.15s.52,1.15,1.16,1.15,1.16-.51,1.16-1.15-.52-1.15-1.16-1.15m-3.31,10.2c-.64,0-1.16,.52-1.16,1.15s.52,1.15,1.16,1.15,1.16-.52,1.16-1.15-.52-1.15-1.16-1.15m3.31,0c-.64,0-1.16,.52-1.16,1.15s.52,1.15,1.16,1.15,1.16-.52,1.16-1.15-.52-1.15-1.16-1.15m0,16.46c-.64,0-1.16,.51-1.16,1.15s.52,1.15,1.16,1.15,1.16-.52,1.16-1.15-.52-1.15-1.16-1.15m0-13.16c-.64,0-1.16,.52-1.16,1.15s.52,1.15,1.16,1.15,1.16-.51,1.16-1.15-.52-1.15-1.16-1.15m0-10.21c-.64,0-1.16,.52-1.16,1.16s.52,1.15,1.16,1.15,1.16-.51,1.16-1.15-.52-1.16-1.16-1.16m0,3.29c-.64,0-1.16,.52-1.16,1.15s.52,1.15,1.16,1.15,1.16-.51,1.16-1.15-.52-1.15-1.16-1.15m0,16.79c-.64,0-1.16,.52-1.16,1.15s.52,1.15,1.16,1.15,1.16-.52,1.16-1.15-.52-1.15-1.16-1.15m0-3.29c-.64,0-1.16,.52-1.16,1.15s.52,1.15,1.16,1.15,1.16-.52,1.16-1.15-.52-1.15-1.16-1.15m0-3.29c-.64,0-1.16,.52-1.16,1.15s.52,1.15,1.16,1.15,1.16-.52,1.16-1.15-.52-1.15-1.16-1.15m-6.63-16.79c-.64,0-1.16,.52-1.16,1.15s.52,1.15,1.16,1.15,1.16-.51,1.16-1.15-.52-1.15-1.16-1.15m-16.58,3.29c-.64,0-1.16,.52-1.16,1.16s.52,1.15,1.16,1.15,1.16-.51,1.16-1.15-.52-1.16-1.16-1.16m-3.31,0c-.64,0-1.16,.52-1.16,1.16s.52,1.15,1.16,1.15,1.16-.51,1.16-1.15-.52-1.16-1.16-1.16m0,23.37c-.64,0-1.16,.51-1.16,1.15s.52,1.15,1.16,1.15,1.16-.52,1.16-1.15-.52-1.15-1.16-1.15m0-26.66s-.06,0-.09,0c-.36,.29-.71,.59-1.05,.91-.02,.08-.03,.16-.03,.24,0,.64,.52,1.15,1.16,1.15s1.16-.51,1.16-1.15-.52-1.15-1.16-1.15m0,20.08c-.64,0-1.16,.52-1.16,1.15s.52,1.15,1.16,1.15,1.16-.52,1.16-1.15-.52-1.15-1.16-1.15m0,3.29c-.64,0-1.16,.52-1.16,1.15s.52,1.15,1.16,1.15,1.16-.52,1.16-1.15-.52-1.15-1.16-1.15m3.31,13.17c-.06,0-.12,0-.19,.02,.4,.22,.81,.44,1.23,.63-.19-.38-.58-.65-1.04-.65m-3.31-19.75c-.64,0-1.16,.52-1.16,1.15s.52,1.15,1.16,1.15,1.16-.52,1.16-1.15-.52-1.15-1.16-1.15m0-3.29c-.64,0-1.16,.52-1.16,1.15s.52,1.15,1.16,1.15,1.16-.51,1.16-1.15-.52-1.15-1.16-1.15m0-3.29c-.64,0-1.16,.52-1.16,1.15s.52,1.15,1.16,1.15,1.16-.52,1.16-1.15-.52-1.15-1.16-1.15m3.31,6.58c-.64,0-1.16,.52-1.16,1.15s.52,1.15,1.16,1.15,1.16-.52,1.16-1.15-.52-1.15-1.16-1.15m0,16.46c-.64,0-1.16,.52-1.16,1.15s.52,1.15,1.16,1.15,1.16-.51,1.16-1.15-.52-1.15-1.16-1.15m0-19.75c-.64,0-1.16,.52-1.16,1.15s.52,1.15,1.16,1.15,1.16-.51,1.16-1.15-.52-1.15-1.16-1.15m0-6.91c-.64,0-1.16,.52-1.16,1.15s.52,1.15,1.16,1.15,1.16-.51,1.16-1.15-.52-1.15-1.16-1.15m0,3.62c-.64,0-1.16,.52-1.16,1.15s.52,1.15,1.16,1.15,1.16-.52,1.16-1.15-.52-1.15-1.16-1.15m0,16.46c-.64,0-1.16,.51-1.16,1.15s.52,1.15,1.16,1.15,1.16-.52,1.16-1.15-.52-1.15-1.16-1.15m0-6.58c-.64,0-1.16,.52-1.16,1.15s.52,1.15,1.16,1.15,1.16-.52,1.16-1.15-.52-1.15-1.16-1.15m0,3.29c-.64,0-1.16,.52-1.16,1.15s.52,1.15,1.16,1.15,1.16-.52,1.16-1.15-.52-1.15-1.16-1.15m-3.31-16.79c-.64,0-1.16,.52-1.16,1.15s.52,1.15,1.16,1.15,1.16-.51,1.16-1.15-.52-1.15-1.16-1.15m-6.68,2.3h.04c.64,0,1.16-.51,1.16-1.15,0-.3-.12-.57-.31-.78-.33,.63-.63,1.27-.9,1.93m.04,4.61c-.64,0-1.16,.52-1.16,1.15s.52,1.15,1.16,1.15,1.16-.51,1.16-1.15-.52-1.15-1.16-1.15m3.31,13.16c-.64,0-1.16,.51-1.16,1.15s.52,1.15,1.16,1.15,1.16-.52,1.16-1.15-.52-1.15-1.16-1.15m3.32,3.29c-.64,0-1.16,.52-1.16,1.15s.52,1.15,1.16,1.15,1.16-.52,1.16-1.15-.52-1.15-1.16-1.15m-6.63-19.75c-.21,0-.41,.06-.58,.16-.16,.51-.31,1.02-.44,1.54,.2,.36,.58,.6,1.02,.6,.64,0,1.16-.52,1.16-1.15s-.52-1.15-1.16-1.15m0,6.58c-.64,0-1.16,.52-1.16,1.15s.52,1.15,1.16,1.15,1.16-.52,1.16-1.15-.52-1.15-1.16-1.15m0,6.58c-.27,0-.51,.09-.71,.25,.21,.7,.46,1.39,.74,2.06,.63-.02,1.13-.52,1.13-1.15s-.52-1.15-1.16-1.15m0-3.29c-.64,0-1.16,.52-1.16,1.15s.52,1.15,1.16,1.15,1.16-.52,1.16-1.15-.52-1.15-1.16-1.15m3.31,9.87c-.28,0-.54,.1-.73,.26,.45,.62,.94,1.22,1.45,1.79,.27-.21,.44-.53,.44-.9,0-.64-.52-1.15-1.16-1.15m0-6.58c-.64,0-1.16,.52-1.16,1.15s.52,1.15,1.16,1.15,1.16-.52,1.16-1.15-.52-1.15-1.16-1.15m0-20.08s-.04,0-.06,0c-.38,.46-.73,.94-1.06,1.43,.13,.5,.58,.87,1.12,.87,.64,0,1.16-.51,1.16-1.15s-.52-1.16-1.16-1.16m0,6.91c-.64,0-1.16,.52-1.16,1.15s.52,1.15,1.16,1.15,1.16-.52,1.16-1.15-.52-1.15-1.16-1.15m3.32,23.04c-.37,0-.7,.17-.91,.44,.57,.51,1.17,1,1.8,1.45,.17-.2,.27-.45,.27-.73,0-.64-.52-1.15-1.16-1.15m-3.32-26.66c-.64,0-1.16,.52-1.16,1.15s.52,1.15,1.16,1.15,1.16-.51,1.16-1.15-.52-1.15-1.16-1.15m0,13.5c-.64,0-1.16,.52-1.16,1.15s.52,1.15,1.16,1.15,1.16-.52,1.16-1.15-.52-1.15-1.16-1.15m0-3.29c-.64,0-1.16,.52-1.16,1.15s.52,1.15,1.16,1.15,1.16-.52,1.16-1.15-.52-1.15-1.16-1.15m0-3.29c-.64,0-1.16,.52-1.16,1.15s.52,1.15,1.16,1.15,1.16-.51,1.16-1.15-.52-1.15-1.16-1.15m9.95-6.91c-.64,0-1.16,.52-1.16,1.15s.52,1.15,1.16,1.15,1.16-.51,1.16-1.15-.52-1.15-1.16-1.15m3.32-6.58c-.64,0-1.16,.52-1.16,1.15s.52,1.15,1.16,1.15,1.16-.51,1.16-1.15-.52-1.15-1.16-1.15m0,6.58c-.64,0-1.16,.52-1.16,1.15s.52,1.15,1.16,1.15,1.16-.51,1.16-1.15-.52-1.15-1.16-1.15m0-3.29c-.64,0-1.16,.52-1.16,1.16s.52,1.15,1.16,1.15,1.16-.51,1.16-1.15-.52-1.16-1.16-1.16m0,10.21c-.64,0-1.16,.52-1.16,1.15s.52,1.15,1.16,1.15,1.16-.51,1.16-1.15-.52-1.15-1.16-1.15m0-3.29c-.64,0-1.16,.52-1.16,1.15s.52,1.15,1.16,1.15,1.16-.52,1.16-1.15-.52-1.15-1.16-1.15m-6.63-10.2c-.64,0-1.16,.52-1.16,1.15s.52,1.15,1.16,1.15,1.16-.51,1.16-1.15-.52-1.15-1.16-1.15m6.63,20.08c-.64,0-1.16,.52-1.16,1.15s.52,1.15,1.16,1.15,1.16-.52,1.16-1.15-.52-1.15-1.16-1.15m0,6.58c-.64,0-1.16,.51-1.16,1.15s.52,1.15,1.16,1.15,1.16-.52,1.16-1.15-.52-1.15-1.16-1.15m0-9.88c-.64,0-1.16,.52-1.16,1.15s.52,1.15,1.16,1.15,1.16-.52,1.16-1.15-.52-1.15-1.16-1.15m3.31,3.29c-.64,0-1.16,.52-1.16,1.15s.52,1.15,1.16,1.15,1.16-.52,1.16-1.15-.52-1.15-1.16-1.15m-3.31-23.37c-.64,0-1.16,.52-1.16,1.15s.52,1.15,1.16,1.15,1.16-.52,1.16-1.15-.52-1.15-1.16-1.15m3.31,29.95c-.64,0-1.16,.51-1.16,1.15s.52,1.15,1.16,1.15,1.16-.52,1.16-1.15-.52-1.15-1.16-1.15m0-9.88c-.64,0-1.16,.52-1.16,1.15s.52,1.15,1.16,1.15,1.16-.52,1.16-1.15-.52-1.15-1.16-1.15m0,6.58c-.64,0-1.16,.52-1.16,1.15s.52,1.15,1.16,1.15,1.16-.52,1.16-1.15-.52-1.15-1.16-1.15m0,13.17c-.64,0-1.16,.51-1.16,1.15s.52,1.15,1.16,1.15,1.16-.51,1.16-1.15-.52-1.15-1.16-1.15m0-6.59c-.64,0-1.16,.52-1.16,1.15s.52,1.15,1.16,1.15,1.16-.52,1.16-1.15-.52-1.15-1.16-1.15m0,3.29c-.64,0-1.16,.52-1.16,1.15s.52,1.15,1.16,1.15,1.16-.51,1.16-1.15-.52-1.15-1.16-1.15m-3.31-9.88c-.64,0-1.16,.52-1.16,1.15s.52,1.15,1.16,1.15,1.16-.52,1.16-1.15-.52-1.15-1.16-1.15m0,6.58c-.64,0-1.16,.52-1.16,1.15s.52,1.15,1.16,1.15,1.16-.52,1.16-1.15-.52-1.15-1.16-1.15m-3.32-3.29c-.64,0-1.16,.51-1.16,1.15s.52,1.15,1.16,1.15,1.16-.52,1.16-1.15-.52-1.15-1.16-1.15m0,3.29c-.64,0-1.16,.52-1.16,1.15s.52,1.15,1.16,1.15,1.16-.52,1.16-1.15-.52-1.15-1.16-1.15m0-13.17c-.64,0-1.16,.52-1.16,1.15s.52,1.15,1.16,1.15,1.16-.52,1.16-1.15-.52-1.15-1.16-1.15m0,3.29c-.64,0-1.16,.52-1.16,1.15s.52,1.15,1.16,1.15,1.16-.52,1.16-1.15-.52-1.15-1.16-1.15m-4.37-21.74c.18,.39,.59,.67,1.05,.67,.64,0,1.16-.52,1.16-1.15,0-.23-.07-.45-.19-.62-.7,.33-1.37,.7-2.03,1.11m4.37,34.9c-.64,0-1.16,.52-1.16,1.15s.52,1.15,1.16,1.15,1.16-.51,1.16-1.15-.52-1.15-1.16-1.15m0,3.29c-.64,0-1.15,.51-1.16,1.14,.67,.27,1.36,.52,2.07,.73,.16-.2,.25-.45,.25-.72,0-.64-.52-1.15-1.16-1.15m0-13.17c-.64,0-1.16,.52-1.16,1.15s.52,1.15,1.16,1.15,1.16-.52,1.16-1.15-.52-1.15-1.16-1.15m0-23.37c-.64,0-1.16,.52-1.16,1.15s.52,1.15,1.16,1.15,1.16-.51,1.16-1.15-.52-1.15-1.16-1.15m3.32,36.54c-.64,0-1.16,.51-1.16,1.15s.52,1.15,1.16,1.15,1.16-.51,1.16-1.15-.52-1.15-1.16-1.15m-3.32-39.83c-.64,0-1.16,.52-1.16,1.15s.52,1.15,1.16,1.15,1.16-.52,1.16-1.15-.52-1.15-1.16-1.15m3.32,36.54c-.64,0-1.16,.52-1.16,1.15s.52,1.15,1.16,1.15,1.16-.51,1.16-1.15-.52-1.15-1.16-1.15m-3.32-29.96c-.64,0-1.16,.52-1.16,1.16s.52,1.15,1.16,1.15,1.16-.51,1.16-1.15-.52-1.16-1.16-1.16m0,6.91c-.64,0-1.16,.52-1.16,1.15s.52,1.15,1.16,1.15,1.16-.52,1.16-1.15-.52-1.15-1.16-1.15m6.63,3.29c-.64,0-1.16,.52-1.16,1.15s.52,1.15,1.16,1.15,1.16-.51,1.16-1.15-.52-1.15-1.16-1.15m-6.63,0c-.64,0-1.16,.52-1.16,1.15s.52,1.15,1.16,1.15,1.16-.51,1.16-1.15-.52-1.15-1.16-1.15"/>
    </g>
  </g>
</svg>