<?xml version="1.0" encoding="UTF-8"?>
<svg id="Capa_2" data-name="Capa 2" xmlns="http://www.w3.org/2000/svg" viewBox="0 0 168.22 52.05">
  <defs>
    <style>
      .cls-1 {
        fill: #13110c;
      }

      .cls-2 {
        fill: #e50053;
      }
    </style>
  </defs>
  <g id="Layer_1" data-name="Layer 1">
    <g>
      <g>
        <path class="cls-2" d="M26.03,52.05C11.68,52.05,0,40.38,0,26.03S11.68,0,26.03,0s26.03,11.68,26.03,26.03-11.68,26.03-26.03,26.03Zm0-48.55C13.61,3.5,3.51,13.61,3.51,26.03s10.1,22.52,22.52,22.52,22.52-10.1,22.52-22.52S38.45,3.5,26.03,3.5Z"/>
        <path class="cls-2" d="M42.4,34.35H10.35V15.66H42.4v18.69Zm-30.04-2h28.04v-14.69H12.35v14.69Z"/>
        <rect class="cls-2" x="24.88" y="35.67" width="2.98" height="6.12"/>
        <path class="cls-2" d="M29.64,42.12h-6.54c0-.59,.48-1.08,1.07-1.08h4.39c.59,0,1.08,.48,1.08,1.08h0Z"/>
        <g>
          <g>
            <path class="cls-2" d="M22.34,13.29h.54c.54,0,.97,.44,.97,.97v.29h-2.49v-.3c0-.53,.43-.97,.97-.97Z"/>
            <rect class="cls-2" x="22.26" y="14.09" width=".71" height="1.94"/>
          </g>
          <g>
            <path class="cls-2" d="M29.86,13.29h.55c.54,0,.97,.43,.97,.97v.29h-2.49v-.3c0-.53,.43-.97,.97-.97Z"/>
            <rect class="cls-2" x="29.78" y="14.09" width=".71" height="1.94"/>
          </g>
          <g>
            <path class="cls-2" d="M37.37,13.29h.55c.54,0,.97,.43,.97,.97v.29h-2.48v-.3c0-.53,.43-.97,.97-.97Z"/>
            <rect class="cls-2" x="37.29" y="14.09" width=".71" height="1.94"/>
          </g>
          <g>
            <path class="cls-2" d="M14.83,13.29h.54c.54,0,.97,.43,.97,.97v.29h-2.48v-.3c0-.53,.43-.97,.97-.97Z"/>
            <rect class="cls-2" x="14.75" y="14.09" width=".71" height="1.94"/>
          </g>
        </g>
      </g>
      <g>
        <path class="cls-1" d="M68.18,13.54c2.88,0,4.56,1.59,4.56,4.25,0,2.81-1.91,4.45-5.19,4.45h-1.55v3.84c0,.14-.09,.24-.23,.24h-2.45c-.14,0-.23-.09-.23-.24V13.78c0-.14,.09-.23,.23-.23h4.87Zm-2.18,6.16h1.55c1.42,0,2.25-.7,2.25-1.91,0-1.06-.6-1.69-1.62-1.69h-2.18v3.6Z"/>
        <path class="cls-1" d="M76.44,24.62l-.54,1.51c-.05,.13-.14,.18-.27,.18h-2.54c-.18,0-.25-.11-.2-.27l2.54-6.88c.67-1.84,1.26-3.6,1.71-5.42,.04-.13,.13-.2,.27-.2h3.35c.14,0,.24,.07,.27,.2,.45,1.82,1.04,3.58,1.71,5.42l2.54,6.88c.05,.16-.02,.27-.2,.27h-2.54c-.13,0-.22-.06-.27-.18l-.54-1.51h-5.3Zm4.12-3.26c-.52-1.43-1.1-3.12-1.31-4.29-.05-.22-.27-.22-.32,0-.23,1.17-.79,2.84-1.32,4.29l-.25,.72h3.46l-.25-.72Z"/>
        <path class="cls-1" d="M98.02,26.08c0,.14-.09,.24-.23,.24h-3.21c-.14,0-.22-.06-.27-.18-.27-.63-.61-1.32-.9-1.91l-2.56-5.19c-.23-.47-.43-.88-.65-1.35-.14-.27-.32-.16-.31,.07,.16,1.13,.2,1.98,.2,3.28v5.04c0,.14-.09,.24-.23,.24h-2.45c-.14,0-.23-.09-.23-.24V13.78c0-.14,.09-.23,.23-.23h3.21c.14,0,.22,.05,.27,.18,.29,.63,.63,1.32,.92,1.91l2.58,5.23c.22,.47,.42,.88,.65,1.31,.13,.29,.33,.18,.29-.07-.18-1.12-.2-1.95-.2-3.24v-5.08c0-.14,.09-.23,.24-.23h2.43c.14,0,.23,.09,.23,.23v12.3Z"/>
        <path class="cls-1" d="M110.47,15.87c0,.14-.09,.24-.23,.24h-3.55v9.98c0,.14-.09,.24-.24,.24h-2.43c-.14,0-.23-.09-.23-.24v-9.98h-3.57c-.14,0-.24-.09-.24-.24v-2.09c0-.14,.09-.23,.24-.23h10.01c.15,0,.23,.09,.23,.23v2.09Z"/>
        <path class="cls-1" d="M113.48,24.62l-.54,1.51c-.05,.13-.14,.18-.27,.18h-2.54c-.18,0-.25-.11-.2-.27l2.54-6.88c.66-1.84,1.26-3.6,1.71-5.42,.04-.13,.13-.2,.27-.2h3.35c.14,0,.23,.07,.27,.2,.45,1.82,1.04,3.58,1.71,5.42l2.54,6.88c.05,.16-.02,.27-.2,.27h-2.54c-.13,0-.22-.06-.27-.18l-.54-1.51h-5.3Zm4.13-3.26c-.52-1.43-1.1-3.12-1.32-4.29-.06-.22-.27-.22-.33,0-.23,1.17-.79,2.84-1.32,4.29l-.25,.72h3.46l-.25-.72Z"/>
        <path class="cls-1" d="M132.35,23.78c.14,0,.24,.09,.24,.23v2.07c0,.14-.09,.24-.24,.24h-7.91c-.14,0-.23-.09-.23-.24V13.78c0-.14,.09-.23,.23-.23h2.45c.15,0,.24,.09,.24,.23v10h5.22Z"/>
        <path class="cls-1" d="M142.9,23.78c.14,0,.24,.09,.24,.23v2.07c0,.14-.09,.24-.24,.24h-7.91c-.14,0-.23-.09-.23-.24V13.78c0-.14,.09-.23,.23-.23h2.45c.14,0,.23,.09,.23,.23v10h5.22Z"/>
        <path class="cls-1" d="M148.23,24.62l-.54,1.51c-.06,.13-.14,.18-.27,.18h-2.54c-.18,0-.25-.11-.2-.27l2.54-6.88c.67-1.84,1.26-3.6,1.71-5.42,.04-.13,.13-.2,.27-.2h3.35c.14,0,.24,.07,.27,.2,.45,1.82,1.04,3.58,1.71,5.42l2.54,6.88c.05,.16-.02,.27-.2,.27h-2.54c-.13,0-.22-.06-.27-.18l-.54-1.51h-5.3Zm4.13-3.26c-.52-1.43-1.1-3.12-1.32-4.29-.06-.22-.27-.22-.32,0-.23,1.17-.79,2.84-1.32,4.29l-.25,.72h3.46l-.25-.72Z"/>
        <path class="cls-1" d="M162.15,20.82c-2.47-.92-3.37-1.82-3.37-3.78,0-2.36,1.78-3.69,4.63-3.69,1.04,0,2.02,.18,2.88,.47l1.19,.4c.16,.05,.2,.14,.16,.29l-.74,2.02c-.06,.14-.14,.2-.29,.14l-1.06-.32c-.72-.21-1.41-.38-2.14-.38-1.01,0-1.69,.43-1.69,1.08s.56,.92,1.59,1.3l1.51,.56c2.5,.94,3.4,1.88,3.4,3.84,0,2.47-1.68,3.79-4.74,3.79-1.08,0-2.05-.11-3.55-.6l-1.19-.38c-.16-.05-.2-.14-.16-.29l.72-2c.05-.14,.14-.2,.29-.14l1.26,.38c1.06,.32,1.86,.43,2.63,.43,.97,0,1.8-.24,1.8-1.19,0-.54-.63-.95-1.62-1.33l-1.51-.58Z"/>
        <path class="cls-1" d="M71.22,42.3c.14,0,.23,.09,.23,.23v2.07c0,.14-.09,.23-.23,.23h-7.91c-.14,0-.23-.09-.23-.23v-12.31c0-.14,.09-.23,.23-.23h2.45c.14,0,.23,.09,.23,.23v10h5.23Z"/>
        <path class="cls-1" d="M80.96,37c.15,0,.24,.09,.24,.23v2.07c0,.14-.09,.23-.24,.23h-4.41v2.75h5.89c.14,0,.23,.09,.23,.23v2.07c0,.14-.09,.23-.23,.23h-8.58c-.14,0-.23-.09-.23-.23v-12.31c0-.14,.09-.23,.23-.23h8.67c.16,0,.23,.11,.2,.27l-.58,2.09c-.04,.13-.13,.2-.25,.2h-5.35v2.38h4.41Z"/>
        <path class="cls-1" d="M89.55,32.07c3.6,0,5.77,2.48,5.77,6.4s-2.24,6.38-5.77,6.38h-4.47c-.14,0-.23-.09-.23-.23v-12.31c0-.14,.09-.23,.23-.23h4.47Zm-1.78,10.23h1.78c1.75,0,2.83-1.39,2.83-3.84s-1.08-3.84-2.83-3.84h-1.78v7.67Z"/>
      </g>
    </g>
  </g>
</svg>