<?xml version="1.0" encoding="UTF-8"?>
<svg id="Capa_2" data-name="Capa 2" xmlns="http://www.w3.org/2000/svg" viewBox="0 0 478.99 162.38">
  <defs>
    <style>
      .cls-1 {
        fill: #13110c;
      }

      .cls-2 {
        fill: #e50053;
      }
    </style>
  </defs>
  <g id="Layer_1" data-name="Layer 1">
    <g>
      <g>
        <path class="cls-1" d="M0,42.82H19.52v9.05h.28c.85-1.22,1.95-2.47,3.32-3.75,1.36-1.27,2.97-2.43,4.81-3.47,1.84-1.04,3.84-1.89,6.01-2.55,2.17-.66,4.47-.99,6.93-.99,5.09,0,9.71,.87,13.86,2.61,4.15,1.75,7.71,4.2,10.68,7.35,2.97,3.16,5.26,6.91,6.86,11.24,1.6,4.34,2.4,9.1,2.4,14.28,0,4.81-.73,9.4-2.19,13.79-1.46,4.38-3.53,8.27-6.22,11.67-2.68,3.4-5.96,6.1-9.83,8.13-3.87,2.03-8.25,3.04-13.15,3.04-4.43,0-8.55-.68-12.37-2.05-3.82-1.37-6.95-3.7-9.41-7h-.28v51.77H0V42.82Zm19.52,34.37c0,5.19,1.48,9.38,4.45,12.59,2.97,3.2,7.14,4.81,12.52,4.81s9.54-1.6,12.51-4.81c2.97-3.21,4.46-7.4,4.46-12.59s-1.48-9.38-4.46-12.59c-2.97-3.2-7.14-4.81-12.51-4.81s-9.55,1.6-12.52,4.81c-2.97,3.21-4.45,7.4-4.45,12.59Z"/>
        <path class="cls-1" d="M446.77,110.71h-19.51v-9.05h-.29c-.85,1.23-1.95,2.48-3.32,3.75-1.36,1.27-2.97,2.43-4.81,3.47-1.84,1.04-3.84,1.88-6.01,2.54-2.17,.66-4.48,.99-6.93,.99-5.09,0-9.71-.87-13.86-2.61-4.15-1.75-7.71-4.2-10.68-7.36-2.97-3.16-5.25-6.91-6.86-11.24-1.6-4.34-2.4-9.1-2.4-14.28,0-4.81,.73-9.41,2.19-13.79,1.46-4.38,3.53-8.27,6.22-11.67,2.69-3.39,5.96-6.11,9.83-8.13,3.87-2.03,8.25-3.04,13.15-3.04,4.43,0,8.56,.68,12.37,2.05,3.82,1.36,6.95,3.7,9.41,7h.28V0h21.21V110.71Zm-19.51-34.37c0-5.19-1.49-9.38-4.45-12.59-2.97-3.21-7.14-4.81-12.52-4.81s-9.55,1.6-12.52,4.81c-2.97,3.2-4.45,7.4-4.45,12.59s1.48,9.38,4.45,12.59c2.97,3.2,7.14,4.81,12.52,4.81s9.54-1.6,12.52-4.81c2.97-3.21,4.45-7.4,4.45-12.59Z"/>
        <rect class="cls-1" x="82.9" y="42.82" width="21.22" height="68.73"/>
        <path class="cls-1" d="M133.41,74.78l-22.91-31.96h25.03l12.16,18.67,11.74-18.67h23.62l-22.35,31.96,26.45,36.77h-25.03l-14.99-22.91-16.12,22.91h-24.75l27.15-36.77Z"/>
        <path class="cls-1" d="M254.07,99.67c-3.39,4.34-7.68,7.69-12.87,10.04-5.18,2.36-10.56,3.53-16.12,3.53s-10.25-.85-14.92-2.54c-4.67-1.69-8.72-4.12-12.16-7.28-3.44-3.16-6.15-6.95-8.13-11.38-1.98-4.43-2.97-9.38-2.97-14.85s.99-10.42,2.97-14.85c1.98-4.43,4.69-8.23,8.13-11.38,3.44-3.16,7.5-5.59,12.16-7.28,4.67-1.7,9.64-2.55,14.92-2.55,4.9,0,9.35,.85,13.36,2.55,4.01,1.7,7.4,4.12,10.18,7.28,2.78,3.16,4.92,6.95,6.43,11.38,1.51,4.43,2.26,9.38,2.26,14.85v6.65h-49.21c.85,4.06,2.69,7.28,5.51,9.69,2.83,2.4,6.31,3.61,10.46,3.61,3.49,0,6.44-.78,8.84-2.33,2.4-1.55,4.5-3.56,6.29-6.01l14.85,10.89Zm-17.96-30.26c.09-3.58-1.08-6.65-3.54-9.19-2.45-2.55-5.61-3.82-9.47-3.82-2.36,0-4.43,.38-6.22,1.13-1.79,.75-3.32,1.72-4.6,2.9-1.27,1.18-2.26,2.55-2.97,4.1-.71,1.56-1.11,3.18-1.2,4.88h28Z"/>
        <path class="cls-1" d="M265.98,4.64h21.21V111.55h-21.21V4.64Z"/>
        <path class="cls-1" d="M363.02,99.67c-3.39,4.34-7.68,7.69-12.87,10.04-5.19,2.36-10.56,3.53-16.12,3.53s-10.25-.85-14.92-2.54c-4.67-1.69-8.72-4.12-12.16-7.28-3.44-3.16-6.15-6.95-8.13-11.38-1.98-4.43-2.97-9.38-2.97-14.85s.99-10.42,2.97-14.85c1.98-4.43,4.69-8.23,8.13-11.38,3.45-3.16,7.5-5.59,12.16-7.28,4.67-1.7,9.64-2.55,14.92-2.55,4.9,0,9.35,.85,13.36,2.55,4,1.7,7.4,4.12,10.18,7.28,2.78,3.16,4.92,6.95,6.43,11.38,1.51,4.43,2.26,9.38,2.26,14.85v6.65h-49.21c.85,4.06,2.68,7.28,5.52,9.69,2.83,2.4,6.31,3.61,10.46,3.61,3.49,0,6.43-.78,8.84-2.33,2.41-1.55,4.5-3.56,6.3-6.01l14.85,10.89Zm-17.96-30.26c.09-3.58-1.09-6.65-3.53-9.19-2.46-2.55-5.61-3.82-9.47-3.82-2.36,0-4.44,.38-6.22,1.13-1.79,.75-3.32,1.72-4.59,2.9-1.27,1.18-2.26,2.55-2.97,4.1-.71,1.56-1.11,3.18-1.2,4.88h28Z"/>
        <path class="cls-2" d="M452.97,99.39c0-1.79,.33-3.49,.99-5.09,.66-1.6,1.58-2.99,2.76-4.17,1.18-1.18,2.57-2.1,4.17-2.76,1.6-.66,3.3-.99,5.09-.99s3.49,.33,5.09,.99c1.6,.66,2.99,1.58,4.17,2.76,1.18,1.18,2.1,2.57,2.76,4.17,.66,1.6,.99,3.3,.99,5.09s-.33,3.49-.99,5.09c-.66,1.6-1.58,2.99-2.76,4.17-1.18,1.18-2.57,2.1-4.17,2.76-1.61,.66-3.3,.99-5.09,.99s-3.49-.33-5.09-.99c-1.6-.66-2.99-1.58-4.17-2.76-1.18-1.18-2.1-2.57-2.76-4.17-.66-1.6-.99-3.3-.99-5.09Z"/>
      </g>
      <g>
        <path class="cls-2" d="M49.5,154.82c0,.26-.16,.42-.42,.42h-4.43c-.26,0-.42-.16-.42-.42v-22.25c0-.26,.16-.42,.42-.42h4.43c.26,0,.42,.16,.42,.42v22.25Z"/>
        <path class="cls-2" d="M56.08,140.22c.33,.49,.52,.46,1.04,0,1.27-1.04,2.64-1.34,3.58-1.34,1.37,0,2.9,.49,3.94,1.47,.62,.55,.98,.39,1.53-.03,1.53-1.24,2.77-1.43,3.71-1.43,3.91,0,6.06,2.22,6.06,6.03v9.91c0,.26-.16,.42-.42,.42h-4.3c-.26,0-.42-.16-.42-.42v-9.25c0-1.34-.49-2.09-1.73-2.09-1.5,0-2.31,1.14-2.31,3.32v8.02c0,.26-.16,.42-.42,.42h-4.3c-.26,0-.42-.16-.42-.42v-9.32c0-1.27-.55-2.02-1.73-2.02-1.56,0-2.28,1.14-2.28,3.32v8.02c0,.26-.16,.42-.42,.42h-4.33c-.26,0-.42-.16-.42-.42v-15.15c0-.26,.16-.42,.42-.42h2.31c.23,0,.39,.1,.49,.29l.42,.68Z"/>
        <path class="cls-2" d="M82.15,140.32c.26,.39,.52,.29,.82,.03,1.37-1.17,2.74-1.47,4.17-1.47,4.33,0,7,3.23,7,8.34s-2.87,8.38-7.56,8.38c-.95,0-1.56-.13-2.18-.39l-.78-.33v7.07c0,.26-.16,.42-.42,.42h-4.33c-.26,0-.42-.16-.42-.42v-22.29c0-.26,.16-.42,.42-.42h2.31c.23,0,.39,.1,.49,.29l.49,.78Zm2.05,10.3c.55,.29,1.34,.42,1.99,.42,1.89,0,2.9-1.43,2.9-3.81s-1.08-3.75-2.93-3.75c-1.66,0-2.61,1.24-2.61,3.23v3.62l.65,.29Z"/>
        <path class="cls-2" d="M106.42,143.06c0,.29-.13,.42-.42,.42-3.58,.16-4.69,2.18-4.69,8.7v2.64c0,.26-.16,.42-.42,.42h-4.33c-.26,0-.42-.16-.42-.42v-15.15c0-.26,.16-.42,.42-.42h2.31c.23,0,.39,.1,.49,.29l.85,1.3c.29,.42,.42,.52,.81,.1,1.4-1.47,2.71-1.99,4.99-2.05,.26,0,.42,.16,.42,.42v3.75Z"/>
        <path class="cls-2" d="M119.23,155.25c-1.14,.26-2.25,.36-3.09,.36-5.35,0-8.25-3.23-8.25-8.34s2.96-8.38,8.08-8.38c4.07,0,6.58,2.15,6.58,5.51,0,2.61-1.82,4.11-5.57,4.63l-3.81,.55c.62,1.14,1.43,1.63,2.97,1.63,.68,0,1.63-.13,2.08-.23l1.96-.42c.26-.07,.42,.03,.49,.29l.91,3.39c.07,.29-.06,.46-.33,.52l-2.02,.49Zm-3-9.52c1.01-.1,1.5-.55,1.5-1.27,0-.78-.65-1.17-1.96-1.17-1.4,0-2.83,.91-2.93,2.96l3.39-.52Z"/>
        <path class="cls-2" d="M128.94,148.73c-3.16-.72-4.59-2.15-4.59-4.63,0-3.29,2.35-5.21,6.35-5.21,1.5,0,3.06,.26,4.24,.52l1.63,.39c.26,.07,.39,.26,.29,.52l-.98,3.39c-.07,.26-.23,.36-.49,.29l-1.66-.39c-.88-.2-2.25-.33-3.03-.33-.85,0-1.33,.29-1.33,.81,0,.33,.29,.69,.85,.85l2.77,.65c3.13,.75,4.53,2.22,4.53,4.76,0,3.29-2.35,5.25-6.32,5.25-1.44,0-3.16-.13-4.99-.59l-1.73-.42c-.26-.06-.39-.26-.29-.52l.98-3.46c.07-.26,.23-.36,.49-.29l1.53,.39c1.4,.36,3.39,.52,4.01,.52,.82,0,1.27-.33,1.27-.88,0-.42-.29-.81-.95-.98l-2.57-.65Z"/>
        <path class="cls-2" d="M145.62,154.82c0,.26-.16,.42-.42,.42h-4.3c-.26,0-.42-.16-.42-.42v-11.05h-1.7c-.26,0-.42-.16-.42-.42v-3.68c0-.26,.16-.42,.42-.42h6.42c.26,0,.42,.16,.42,.42v15.15Zm-.1-20.66c0,1.86-1.04,3-2.9,3s-2.9-1.14-2.9-3,1.08-2.97,2.9-2.97,2.9,1.08,2.9,2.97Z"/>
        <path class="cls-2" d="M163.48,147.23c0,5.15-3.03,8.38-7.92,8.38s-7.95-3.23-7.95-8.38,3.03-8.34,7.95-8.34,7.92,3.26,7.92,8.34Zm-10.82,0c0,2.38,1.11,3.81,2.9,3.81s2.87-1.43,2.87-3.81-1.11-3.75-2.87-3.75-2.9,1.4-2.9,3.75Zm7.79-15.7c.36,0,.46,.23,.29,.52l-3.19,4.79c-.13,.16-.29,.26-.52,.26h-3.49c-.29,0-.46-.2-.33-.49l1.96-4.76c.1-.23,.23-.33,.49-.33h4.79Z"/>
        <path class="cls-2" d="M169.11,140.22c.33,.49,.52,.46,1.01,.03,1.3-1.11,2.8-1.37,3.78-1.37,3.84,0,6.19,2.22,6.19,6.03v9.91c0,.26-.16,.42-.42,.42h-4.33c-.26,0-.42-.16-.42-.42v-9.25c0-1.34-.68-2.09-1.82-2.09-1.57,0-2.44,1.14-2.44,3.32v8.02c0,.26-.16,.42-.42,.42h-4.33c-.26,0-.42-.16-.42-.42v-15.15c0-.26,.16-.42,.42-.42h2.31c.23,0,.39,.1,.49,.29l.42,.68Z"/>
        <path class="cls-2" d="M190.72,139.61c1.11-.33,2.22-.49,3.55-.49,4.4,0,7.1,2.28,7.1,6.22v9.55c0,.23-.13,.36-.36,.36h-1.63c-.23,0-.36-.1-.42-.29l-.26-1.01c-.2-.46-.39-.46-.82-.06-1.01,1.11-2.48,1.73-4.46,1.73-3.62,0-5.63-1.86-5.63-4.92s2.08-5.02,5.93-5.02h4.07v-.19c0-1.99-1.27-3.06-3.68-3.06-.95,0-1.76,.1-2.54,.33l-1.17,.36c-.23,.06-.39-.03-.46-.26l-.72-2.41c-.06-.23,.03-.39,.26-.46l1.24-.36Zm3,8.9c-1.59,0-2.35,.75-2.35,1.86,0,1.27,.88,2.05,2.44,2.05,2.57,0,3.98-1.27,3.98-3.68v-.23h-4.07Z"/>
        <path class="cls-2" d="M213.95,151.43c0,.55,.23,.88,.65,.88h.23c.23-.03,.36-.03,.46,.2l.98,2.31c.1,.23,.03,.39-.16,.49-.46,.2-1.01,.29-1.5,.29-2.67,0-4.27-1.53-4.27-4.17v-19.19c0-.23,.13-.36,.36-.36h2.9c.23,0,.36,.13,.36,.36v19.19Z"/>
        <path class="cls-2" d="M220.56,139.61c1.11-.33,2.22-.49,3.55-.49,4.4,0,7.1,2.28,7.1,6.22v9.55c0,.23-.13,.36-.36,.36h-1.63c-.23,0-.36-.1-.42-.29l-.26-1.01c-.2-.46-.39-.46-.81-.06-1.01,1.11-2.48,1.73-4.46,1.73-3.62,0-5.64-1.86-5.64-4.92s2.09-5.02,5.93-5.02h4.07v-.19c0-1.99-1.27-3.06-3.68-3.06-.94,0-1.76,.1-2.54,.33l-1.17,.36c-.23,.06-.39-.03-.46-.26l-.71-2.41c-.07-.23,.03-.39,.26-.46l1.24-.36Zm3,8.9c-1.6,0-2.35,.75-2.35,1.86,0,1.27,.88,2.05,2.44,2.05,2.58,0,3.98-1.27,3.98-3.68v-.23h-4.07Z"/>
        <path class="cls-2" d="M251.61,147.56c-.98,2.51-1.95,5.31-2.51,7.4-.06,.2-.2,.29-.42,.29h-3.45c-.23,0-.36-.1-.43-.29-.55-2.09-1.53-4.85-2.51-7.4l-3.23-7.69c-.1-.26,.03-.42,.29-.42h3.03c.2,0,.32,.1,.42,.26l2.31,5.48c.72,1.92,1.3,3.91,1.56,5.38,.07,.36,.42,.36,.52,0,.23-1.47,.81-3.49,1.56-5.38l2.31-5.48c.1-.16,.23-.26,.42-.26h3.03c.26,0,.39,.16,.29,.42l-3.22,7.69Z"/>
        <path class="cls-2" d="M261.88,154.89c0,.23-.13,.36-.36,.36h-2.9c-.23,0-.36-.13-.36-.36v-12.22h-1.6c-.23,0-.36-.13-.36-.36v-2.51c0-.23,.13-.36,.36-.36h4.85c.23,0,.36,.13,.36,.36v15.09Zm-.03-21.08c0,1.4-.78,2.22-2.15,2.22s-2.18-.81-2.18-2.22,.82-2.18,2.18-2.18,2.15,.81,2.15,2.18Z"/>
        <path class="cls-2" d="M268.88,148.24c-2.71-.68-3.98-2.09-3.98-4.43,0-2.93,2.18-4.69,5.96-4.69,1.47,0,2.96,.23,4.04,.52l1.43,.36c.23,.06,.33,.23,.26,.46l-.68,2.44c-.06,.23-.23,.33-.46,.26l-1.43-.39c-.88-.26-2.18-.39-3.16-.39-1.5,0-2.38,.55-2.38,1.44,0,.75,.46,1.2,1.47,1.5l3.26,.85c2.83,.72,4.11,2.18,4.11,4.53,0,3.06-2.28,4.92-6.13,4.92-1.69,0-3.39-.23-4.98-.68l-1.27-.36c-.23-.07-.32-.23-.26-.45l.75-2.45c.06-.19,.23-.29,.42-.23l1.17,.33c1.24,.36,2.96,.55,4.17,.55,1.6,0,2.51-.62,2.51-1.63,0-.78-.46-1.27-1.53-1.6l-3.29-.85Z"/>
        <path class="cls-2" d="M287.98,139.44c.23,0,.36,.13,.36,.36v2.51c0,.23-.13,.36-.36,.36h-3.65v7.92c0,1.11,.49,1.73,1.27,1.73,.29,0,.59-.03,.85-.13,.23-.1,.39-.07,.49,.16l1.04,2.21c.1,.2,.03,.36-.16,.49-.59,.33-1.43,.55-2.21,.55-3.1,0-4.89-1.86-4.89-5.02v-7.92h-1.6c-.23,0-.36-.13-.36-.36v-2.51c0-.23,.13-.36,.36-.36h1.6v-3.75c0-.2,.1-.33,.29-.39l2.9-.98c.26-.07,.42,.03,.42,.29v4.82h3.65Z"/>
        <path class="cls-2" d="M292.51,139.61c1.11-.33,2.22-.49,3.55-.49,4.4,0,7.1,2.28,7.1,6.22v9.55c0,.23-.13,.36-.36,.36h-1.63c-.23,0-.36-.1-.42-.29l-.26-1.01c-.2-.46-.39-.46-.82-.06-1.01,1.11-2.48,1.73-4.46,1.73-3.62,0-5.64-1.86-5.64-4.92s2.08-5.02,5.93-5.02h4.07v-.19c0-1.99-1.27-3.06-3.68-3.06-.94,0-1.76,.1-2.54,.33l-1.17,.36c-.23,.06-.39-.03-.46-.26l-.71-2.41c-.07-.23,.03-.39,.26-.46l1.24-.36Zm3,8.9c-1.6,0-2.35,.75-2.35,1.86,0,1.27,.88,2.05,2.44,2.05,2.57,0,3.98-1.27,3.98-3.68v-.23h-4.07Z"/>
        <path class="cls-2" d="M326.1,154.89c0,.23-.13,.36-.36,.36h-1.63c-.23,0-.36-.1-.39-.29l-.36-1.37c-.1-.29-.33-.36-.65,0-1.17,1.3-2.74,2.02-4.53,2.02-4.27,0-6.84-3.19-6.84-8.28s2.74-8.21,7.3-8.21c1.11,0,1.99,.13,2.9,.55l.95,.42v-7.85c0-.23,.13-.36,.36-.36h2.9c.23,0,.36,.13,.36,.36v22.65Zm-4.56-11.96c-.78-.36-1.66-.55-2.67-.55-2.48,0-3.98,1.86-3.94,4.95,0,3.1,1.43,4.99,3.84,4.99s3.75-2.05,3.75-4.79v-4.14l-.98-.46Z"/>
        <path class="cls-2" d="M339.72,155.18c-1.17,.29-2.28,.42-3.32,.42-4.92,0-7.69-3.19-7.69-8.24s2.8-8.24,7.56-8.24c3.91,0,6.29,1.96,6.29,5.18,0,2.51-1.53,3.94-4.79,4.43l-5.12,.78c.36,1.73,1.66,2.8,3.71,2.8,.91,0,1.89-.1,2.57-.33l1.43-.36c.23-.07,.39,.03,.46,.26l.65,2.44c.06,.23-.03,.39-.26,.46l-1.5,.39Zm-2.51-9.25c1.14-.2,1.76-.72,1.76-1.57,0-1.3-1.01-1.99-2.77-1.99-2.15,0-3.62,1.34-3.88,4.33l4.89-.78Z"/>
        <path class="cls-2" d="M359.37,139.44c.23,0,.36,.13,.36,.36v2.51c0,.23-.13,.36-.36,.36h-3.65v7.92c0,1.11,.49,1.73,1.27,1.73,.29,0,.59-.03,.85-.13,.23-.1,.39-.07,.49,.16l1.04,2.21c.1,.2,.03,.36-.16,.49-.59,.33-1.43,.55-2.22,.55-3.1,0-4.89-1.86-4.89-5.02v-7.92h-1.6c-.23,0-.36-.13-.36-.36v-2.51c0-.23,.13-.36,.36-.36h1.6v-3.75c0-.2,.1-.33,.29-.39l2.9-.98c.26-.07,.42,.03,.42,.29v4.82h3.65Z"/>
        <path class="cls-2" d="M376.25,147.33c0,5.08-2.87,8.28-7.5,8.28s-7.53-3.19-7.53-8.28,2.87-8.21,7.53-8.21,7.5,3.19,7.5,8.21Zm-11.44,0c0,3.13,1.47,4.99,3.94,4.99s3.91-1.86,3.91-4.99-1.5-4.95-3.91-4.95-3.94,1.86-3.94,4.95Z"/>
        <path class="cls-2" d="M392.83,154.89c0,.23-.13,.36-.36,.36h-1.63c-.23,0-.36-.1-.39-.29l-.36-1.37c-.1-.29-.32-.36-.65,0-1.17,1.3-2.74,2.02-4.53,2.02-4.27,0-6.84-3.19-6.84-8.28s2.74-8.21,7.3-8.21c1.11,0,1.99,.13,2.9,.55l.94,.42v-7.85c0-.23,.13-.36,.36-.36h2.9c.23,0,.36,.13,.36,.36v22.65Zm-4.56-11.96c-.78-.36-1.66-.55-2.67-.55-2.48,0-3.98,1.86-3.94,4.95,0,3.1,1.43,4.99,3.85,4.99s3.75-2.05,3.75-4.79v-4.14l-.98-.46Z"/>
        <path class="cls-2" d="M410.46,147.33c0,5.08-2.87,8.28-7.5,8.28s-7.53-3.19-7.53-8.28,2.87-8.21,7.53-8.21,7.5,3.19,7.5,8.21Zm-11.44,0c0,3.13,1.46,4.99,3.94,4.99s3.91-1.86,3.91-4.99-1.5-4.95-3.91-4.95-3.94,1.86-3.94,4.95Z"/>
        <path class="cls-2" d="M416.68,148.24c-2.7-.68-3.98-2.09-3.98-4.43,0-2.93,2.18-4.69,5.96-4.69,1.46,0,2.96,.23,4.04,.52l1.43,.36c.23,.06,.33,.23,.26,.46l-.68,2.44c-.07,.23-.23,.33-.46,.26l-1.43-.39c-.88-.26-2.18-.39-3.16-.39-1.5,0-2.38,.55-2.38,1.44,0,.75,.45,1.2,1.47,1.5l3.26,.85c2.83,.72,4.11,2.18,4.11,4.53,0,3.06-2.28,4.92-6.13,4.92-1.7,0-3.39-.23-4.99-.68l-1.27-.36c-.23-.07-.33-.23-.26-.45l.75-2.45c.07-.19,.23-.29,.43-.23l1.17,.33c1.24,.36,2.96,.55,4.17,.55,1.6,0,2.51-.62,2.51-1.63,0-.78-.46-1.27-1.53-1.6l-3.29-.85Z"/>
      </g>
    </g>
  </g>
</svg>