<?xml version="1.0" encoding="UTF-8"?>
<svg id="Capa_2" data-name="Capa 2" xmlns="http://www.w3.org/2000/svg" viewBox="0 0 177.29 52.05">
  <defs>
    <style>
      .cls-1 {
        fill: #13110c;
      }

      .cls-2 {
        fill: #e50053;
      }
    </style>
  </defs>
  <g id="Layer_1" data-name="Layer 1">
    <g>
      <g>
        <g>
          <g>
            <rect class="cls-2" x="19.24" y="30.29" width="14.21" height="2"/>
            <path class="cls-2" d="M44.07,32.29h-3.58v-2h1.58v-4.86c0-.4-.33-.73-.73-.73h-5.09l-5.47-6.84H13.97l-2.68,7.79v4.64h1.22v2h-3.22v-6.98l3.25-9.46H31.75l5.47,6.84h4.12c1.51,0,2.74,1.23,2.74,2.74v6.86Z"/>
          </g>
          <path class="cls-2" d="M16.28,35.96c-2.31,0-4.19-1.88-4.19-4.19s1.88-4.19,4.19-4.19,4.19,1.88,4.19,4.19-1.88,4.19-4.19,4.19Zm0-6.62c-1.35,0-2.44,1.09-2.44,2.44s1.09,2.44,2.44,2.44,2.43-1.09,2.43-2.44-1.09-2.44-2.43-2.44Z"/>
          <path class="cls-2" d="M36.67,35.96c-2.31,0-4.19-1.88-4.19-4.19s1.88-4.19,4.19-4.19,4.19,1.88,4.19,4.19-1.88,4.19-4.19,4.19Zm0-6.62c-1.35,0-2.44,1.09-2.44,2.44s1.09,2.44,2.44,2.44,2.44-1.09,2.44-2.44-1.09-2.44-2.44-2.44Z"/>
          <path class="cls-2" d="M26.03,52.05C11.67,52.05,0,40.38,0,26.03S11.67,0,26.03,0s26.03,11.68,26.03,26.03-11.68,26.03-26.03,26.03Zm0-48.55C13.61,3.5,3.5,13.61,3.5,26.03s10.1,22.52,22.52,22.52,22.52-10.1,22.52-22.52S38.45,3.5,26.03,3.5Z"/>
        </g>
        <rect class="cls-2" x="14.26" y="21.77" width="16.32" height="1.5" transform="translate(-9.36 22.5) rotate(-45.08)"/>
        <rect class="cls-2" x="18.1" y="22.27" width="16.32" height=".5" transform="translate(-8.23 25.17) rotate(-45)"/>
      </g>
      <g>
        <path class="cls-1" d="M68.34,10.65c2.87,0,4.54,1.46,4.54,3.91,0,1.64-1.02,2.74-2.12,3.22-.25,.13-.24,.22-.02,.34,.79,.49,1.24,1.28,1.57,1.98l1.26,3.04c.05,.16-.02,.27-.18,.27h-2.59c-.14,0-.22-.05-.27-.18l-.79-1.93c-.65-1.57-1.22-2.43-3.22-2.43h-.51v4.31c0,.14-.09,.23-.23,.23h-2.45c-.14,0-.23-.09-.23-.23V10.88c0-.14,.09-.23,.23-.23h5.03Zm-.38,5.69c1.35,0,1.99-.5,1.99-1.57,0-.95-.65-1.57-1.61-1.57h-2.34v3.13h1.96Z"/>
        <path class="cls-1" d="M86.42,17.03c0,4.03-2.18,6.59-5.73,6.59s-5.75-2.56-5.75-6.59,2.18-6.58,5.75-6.58,5.73,2.52,5.73,6.58Zm-8.54,0c0,2.46,1.06,4,2.81,4s2.79-1.53,2.79-4-1.05-3.96-2.79-3.96-2.81,1.44-2.81,3.96Z"/>
        <path class="cls-1" d="M98.18,12.97c0,.15-.09,.24-.23,.24h-3.55v9.98c0,.14-.09,.23-.24,.23h-2.43c-.14,0-.24-.09-.24-.23V13.21h-3.57c-.14,0-.23-.09-.23-.24v-2.09c0-.14,.09-.23,.23-.23h10.02c.14,0,.23,.09,.23,.23v2.09Z"/>
        <path class="cls-1" d="M110.19,18.15c0,3.5-1.87,5.48-5.1,5.48s-5.12-1.98-5.12-5.48v-7.26c0-.14,.09-.23,.24-.23h2.45c.14,0,.23,.09,.23,.23v7.26c0,1.86,.81,2.88,2.2,2.88s2.2-1.03,2.2-2.88v-7.26c0-.14,.09-.23,.23-.23h2.43c.14,0,.23,.09,.23,.23v7.26Z"/>
        <path class="cls-1" d="M120.68,20.88c.14,0,.23,.09,.23,.24v2.07c0,.14-.09,.23-.23,.23h-7.91c-.14,0-.24-.09-.24-.23V10.88c0-.14,.09-.23,.24-.23h2.45c.14,0,.24,.09,.24,.23v10h5.23Z"/>
        <path class="cls-1" d="M126.01,21.73l-.54,1.51c-.06,.13-.14,.18-.27,.18h-2.54c-.18,0-.25-.11-.2-.27l2.54-6.88c.67-1.84,1.26-3.6,1.71-5.42,.04-.13,.13-.2,.27-.2h3.35c.14,0,.24,.07,.27,.2,.45,1.82,1.04,3.59,1.71,5.42l2.54,6.88c.05,.16-.02,.27-.2,.27h-2.54c-.13,0-.22-.05-.27-.18l-.54-1.51h-5.3Zm4.12-3.26c-.52-1.42-1.1-3.12-1.32-4.29-.06-.21-.27-.21-.32,0-.23,1.17-.79,2.85-1.31,4.29l-.25,.72h3.46l-.25-.72Z"/>
        <path class="cls-1" d="M144.4,23.19c-.97,.32-1.71,.43-2.7,.43-3.62,0-5.84-2.54-5.84-6.59s2.22-6.58,5.84-6.58c1.03,0,1.79,.09,2.69,.38l.83,.27c.14,.05,.2,.14,.14,.29l-.65,2.04c-.06,.15-.14,.2-.29,.15l-.85-.27c-.52-.16-1.04-.23-1.88-.23-1.8,0-2.9,1.46-2.9,3.96s1.1,4,2.9,4c.67,0,1.21-.05,1.86-.27l.85-.25c.14-.06,.25,0,.29,.14l.72,1.96c.06,.15,.02,.24-.14,.29l-.87,.29Z"/>
        <path class="cls-1" d="M150.66,23.19c0,.14-.09,.23-.23,.23h-2.45c-.14,0-.23-.09-.23-.23V10.88c0-.14,.09-.23,.23-.23h2.45c.14,0,.23,.09,.23,.23v12.31Z"/>
        <path class="cls-1" d="M164.29,17.03c0,4.03-2.18,6.59-5.73,6.59s-5.75-2.56-5.75-6.59,2.18-6.58,5.75-6.58,5.73,2.52,5.73,6.58Zm-8.54,0c0,2.46,1.07,4,2.81,4s2.79-1.53,2.79-4-1.04-3.96-2.79-3.96-2.81,1.44-2.81,3.96Zm5.91-10.31c.22,0,.27,.14,.13,.29l-2.02,2.14c-.07,.09-.16,.12-.29,.12h-2.25c-.2,0-.25-.12-.16-.29l1.17-2.11c.05-.11,.14-.16,.27-.16h3.15Z"/>
        <path class="cls-1" d="M177.29,23.19c0,.14-.09,.23-.23,.23h-3.21c-.14,0-.22-.05-.27-.18-.27-.63-.61-1.31-.9-1.91l-2.56-5.19c-.24-.46-.43-.88-.65-1.35-.14-.27-.32-.16-.31,.07,.16,1.14,.2,1.98,.2,3.28v5.05c0,.14-.09,.23-.23,.23h-2.45c-.15,0-.23-.09-.23-.23V10.88c0-.14,.09-.23,.23-.23h3.21c.14,0,.22,.05,.27,.18,.29,.63,.63,1.31,.92,1.91l2.58,5.23c.21,.47,.41,.88,.65,1.31,.12,.29,.32,.18,.29-.07-.18-1.12-.2-1.95-.2-3.24v-5.09c0-.14,.09-.23,.23-.23h2.43c.14,0,.23,.09,.23,.23v12.31Z"/>
        <path class="cls-1" d="M72.01,36.35c-.66,1.84-1.22,3.6-1.69,5.41-.04,.13-.13,.2-.27,.2h-3.19c-.14,0-.23-.07-.27-.2-.47-1.8-1.03-3.57-1.7-5.41l-2.54-6.9c-.05-.16,.02-.27,.2-.27h2.54c.13,0,.22,.05,.27,.18l1.73,4.78c.52,1.42,.98,2.99,1.19,4.16,.04,.23,.31,.23,.34,0,.22-1.18,.67-2.74,1.19-4.16l1.73-4.78c.05-.13,.14-.18,.27-.18h2.54c.18,0,.25,.11,.2,.27l-2.54,6.9Z"/>
        <path class="cls-1" d="M83.68,34.12c.14,0,.24,.09,.24,.23v2.07c0,.14-.09,.23-.24,.23h-4.42v2.76h5.89c.15,0,.24,.09,.24,.23v2.07c0,.14-.09,.24-.24,.24h-8.57c-.14,0-.23-.09-.23-.24v-12.3c0-.14,.09-.23,.23-.23h8.66c.16,0,.23,.11,.2,.27l-.58,2.09c-.04,.13-.13,.2-.25,.2h-5.35v2.38h4.42Z"/>
        <path class="cls-1" d="M98.07,41.72c0,.14-.09,.24-.23,.24h-2.43c-.14,0-.23-.09-.23-.24v-5.06h-4.68v5.06c0,.14-.09,.24-.24,.24h-2.45c-.14,0-.23-.09-.23-.24v-12.3c0-.14,.09-.23,.23-.23h2.45c.14,0,.24,.09,.24,.23v4.7h4.68v-4.7c0-.14,.09-.23,.23-.23h2.43c.14,0,.23,.09,.23,.23v12.3Z"/>
        <path class="cls-1" d="M103.52,41.72c0,.14-.09,.24-.24,.24h-2.45c-.14,0-.23-.09-.23-.24v-12.3c0-.14,.09-.23,.23-.23h2.45c.14,0,.24,.09,.24,.23v12.3Z"/>
        <path class="cls-1" d="M114.22,41.72c-.97,.32-1.71,.43-2.7,.43-3.62,0-5.84-2.54-5.84-6.59s2.22-6.58,5.84-6.58c1.03,0,1.78,.09,2.68,.38l.83,.27c.14,.06,.2,.14,.14,.29l-.65,2.04c-.05,.14-.15,.2-.29,.14l-.85-.27c-.52-.16-1.04-.23-1.88-.23-1.8,0-2.9,1.46-2.9,3.96s1.1,4,2.9,4c.67,0,1.21-.06,1.85-.27l.85-.25c.15-.05,.25,0,.29,.14l.72,1.96c.05,.14,.02,.24-.14,.29l-.87,.29Z"/>
        <path class="cls-1" d="M127.6,36.67c0,3.5-1.87,5.48-5.1,5.48s-5.12-1.98-5.12-5.48v-7.26c0-.14,.09-.23,.24-.23h2.45c.14,0,.23,.09,.23,.23v7.26c0,1.86,.81,2.89,2.2,2.89s2.2-1.03,2.2-2.89v-7.26c0-.14,.09-.23,.23-.23h2.43c.14,0,.23,.09,.23,.23v7.26Z"/>
        <path class="cls-1" d="M138.09,39.41c.14,0,.24,.09,.24,.23v2.07c0,.14-.09,.24-.24,.24h-7.91c-.15,0-.24-.09-.24-.24v-12.3c0-.14,.09-.23,.24-.23h2.45c.14,0,.23,.09,.23,.23v10h5.22Z"/>
        <path class="cls-1" d="M143.42,40.26l-.54,1.52c-.06,.12-.14,.18-.27,.18h-2.54c-.18,0-.25-.11-.2-.27l2.54-6.88c.67-1.84,1.26-3.61,1.71-5.42,.04-.13,.13-.2,.27-.2h3.35c.14,0,.24,.07,.27,.2,.45,1.82,1.04,3.58,1.71,5.42l2.54,6.88c.05,.16-.02,.27-.2,.27h-2.54c-.13,0-.22-.06-.27-.18l-.54-1.52h-5.3Zm4.13-3.26c-.52-1.42-1.1-3.12-1.31-4.29-.06-.21-.27-.21-.32,0-.23,1.17-.79,2.85-1.32,4.29l-.25,.72h3.46l-.25-.72Z"/>
        <path class="cls-1" d="M159.41,29.18c2.87,0,4.54,1.46,4.54,3.91,0,1.64-1.03,2.74-2.12,3.22-.25,.13-.24,.22-.02,.34,.79,.49,1.24,1.28,1.57,1.98l1.26,3.05c.05,.16-.02,.27-.18,.27h-2.59c-.14,0-.22-.06-.27-.18l-.79-1.93c-.65-1.57-1.22-2.43-3.22-2.43h-.51v4.31c0,.14-.09,.24-.23,.24h-2.45c-.14,0-.24-.09-.24-.24v-12.3c0-.14,.09-.23,.24-.23h5.03Zm-.38,5.69c1.35,0,1.98-.5,1.98-1.57,0-.95-.65-1.56-1.6-1.56h-2.34v3.13h1.96Z"/>
      </g>
    </g>
  </g>
</svg>