<?xml version="1.0" encoding="UTF-8"?>
<svg id="Capa_2" data-name="Capa 2" xmlns="http://www.w3.org/2000/svg" viewBox="0 0 175.08 52.05">
  <defs>
    <style>
      .cls-1 {
        fill: #13110c;
      }

      .cls-2 {
        fill: #e50053;
      }
    </style>
  </defs>
  <g id="Layer_1" data-name="Layer 1">
    <g>
      <g>
        <path class="cls-2" d="M26.03,52.05C11.67,52.05,0,40.38,0,26.03S11.67,0,26.03,0s26.03,11.68,26.03,26.03-11.68,26.02-26.03,26.02Zm0-48.55C13.61,3.51,3.51,13.61,3.51,26.03s10.1,22.52,22.52,22.52,22.52-10.1,22.52-22.52S38.44,3.51,26.03,3.51Z"/>
        <rect class="cls-2" x="23.1" y="36.64" width="4.74" height="5.65"/>
        <path class="cls-2" d="M30.66,42.7h-10.38c0-.73,.59-1.32,1.32-1.32h7.75c.73,0,1.32,.59,1.32,1.32h0Z"/>
        <rect class="cls-2" x="23.1" y="9.49" width="4.73" height="4.12"/>
        <path class="cls-2" d="M34.57,22.28H14.68V12.8h19.89l5.46,4.74-5.46,4.74Zm-18.39-1.5h17.83l3.73-3.24-3.73-3.23H16.18v6.47Z"/>
        <path class="cls-2" d="M35.78,34.83H15.89l-5.46-4.74,5.46-4.74h19.89v9.48Zm-19.33-1.5h17.83v-6.47H16.45l-3.73,3.24,3.73,3.24Z"/>
      </g>
      <g>
        <path class="cls-1" d="M66.27,30.23c-2.47-.92-3.37-1.82-3.37-3.78,0-2.36,1.79-3.69,4.63-3.69,1.04,0,2.02,.18,2.88,.47l1.19,.4c.16,.05,.2,.14,.16,.29l-.74,2.02c-.05,.14-.14,.2-.29,.14l-1.06-.32c-.72-.21-1.41-.38-2.14-.38-1.01,0-1.69,.43-1.69,1.08s.56,.92,1.58,1.3l1.51,.56c2.5,.94,3.41,1.87,3.41,3.84,0,2.47-1.68,3.78-4.74,3.78-1.08,0-2.05-.11-3.55-.59l-1.19-.38c-.17-.05-.2-.14-.17-.29l.72-2c.05-.14,.14-.2,.29-.14l1.26,.38c1.06,.32,1.86,.43,2.63,.43,.97,0,1.8-.24,1.8-1.19,0-.54-.63-.96-1.62-1.34l-1.51-.58Z"/>
        <path class="cls-1" d="M81.76,27.89c.14,0,.23,.09,.23,.23v2.07c0,.14-.09,.24-.23,.24h-4.41v2.75h5.89c.14,0,.23,.09,.23,.23v2.07c0,.14-.09,.23-.23,.23h-8.58c-.14,0-.23-.09-.23-.23v-12.31c0-.14,.09-.23,.23-.23h8.67c.16,0,.23,.11,.2,.27l-.58,2.09c-.04,.12-.13,.2-.25,.2h-5.35v2.38h4.41Z"/>
        <path class="cls-1" d="M93.05,35.73c-.14,0-.22-.05-.27-.18-.27-.63-.61-1.31-.9-1.91l-2.56-5.19c-.23-.47-.43-.88-.65-1.35-.14-.27-.32-.16-.31,.07,.16,1.14,.2,1.98,.2,3.28v5.04c0,.14-.09,.23-.23,.23h-2.45c-.14,0-.23-.09-.23-.23v-12.31c0-.14,.09-.23,.23-.23h3.21c.14,0,.22,.05,.27,.18,.29,.63,.63,1.31,.92,1.91l2.58,5.23c.21,.47,.42,.88,.65,1.31,.12,.29,.32,.18,.29-.07-.18-1.12-.2-1.94-.2-3.24v-5.08c0-.14,.09-.23,.23-.23h2.43c.14,0,.23,.09,.23,.23v12.31c0,.14-.09,.23-.23,.23h-3.21Zm-4.88-15.47c.38-.78,1.01-1.1,1.84-1.1,.41,0,.9,.18,1.22,.32l.52,.22c.14,.05,.27,.11,.34,.11,.12,0,.27-.04,.38-.27l.09-.16c.05-.11,.14-.16,.27-.16h1.5c.18,0,.25,.11,.16,.27l-.49,.99c-.38,.74-1.01,1.05-1.85,1.05-.4,0-.83-.16-1.15-.29l-.59-.23c-.14-.06-.27-.11-.36-.11-.11,0-.23,.04-.36,.25l-.07,.17c-.07,.11-.14,.16-.29,.16h-1.48c-.18,0-.25-.11-.16-.27l.49-.94Z"/>
        <path class="cls-1" d="M101.92,34.04l-.54,1.51c-.05,.13-.14,.18-.27,.18h-2.54c-.18,0-.25-.11-.2-.27l2.54-6.88c.67-1.83,1.26-3.6,1.71-5.42,.04-.13,.13-.2,.27-.2h3.35c.14,0,.23,.07,.27,.2,.45,1.82,1.04,3.59,1.71,5.42l2.54,6.88c.05,.16-.02,.27-.2,.27h-2.54c-.13,0-.22-.05-.27-.18l-.54-1.51h-5.3Zm4.13-3.26c-.52-1.42-1.1-3.12-1.32-4.29-.06-.22-.27-.22-.32,0-.23,1.17-.79,2.85-1.31,4.29l-.25,.72h3.46l-.25-.72Z"/>
        <path class="cls-1" d="M120.79,33.19c.14,0,.24,.09,.24,.23v2.07c0,.14-.09,.23-.24,.23h-7.91c-.14,0-.23-.09-.23-.23v-12.31c0-.14,.09-.23,.23-.23h2.45c.14,0,.23,.09,.23,.23v10h5.22Z"/>
        <path class="cls-1" d="M130.53,27.89c.15,0,.24,.09,.24,.23v2.07c0,.14-.09,.24-.24,.24h-4.41v2.75h5.89c.15,0,.24,.09,.24,.23v2.07c0,.14-.09,.23-.24,.23h-8.58c-.14,0-.23-.09-.23-.23v-12.31c0-.14,.09-.23,.23-.23h8.67c.16,0,.23,.11,.2,.27l-.57,2.09c-.04,.12-.13,.2-.25,.2h-5.35v2.38h4.41Z"/>
        <path class="cls-1" d="M144.36,25.28c0,.14-.09,.24-.23,.24h-3.55v9.98c0,.14-.09,.23-.24,.23h-2.43c-.15,0-.24-.09-.24-.23v-9.98h-3.57c-.14,0-.23-.09-.23-.24v-2.09c0-.14,.09-.23,.23-.23h10.02c.15,0,.23,.09,.23,.23v2.09Z"/>
        <path class="cls-1" d="M149.25,35.49c0,.14-.09,.23-.24,.23h-2.45c-.14,0-.23-.09-.23-.23v-12.31c0-.14,.09-.23,.23-.23h2.45c.14,0,.24,.09,.24,.23v12.31Z"/>
        <path class="cls-1" d="M159.95,35.49c-.97,.32-1.71,.43-2.7,.43-3.62,0-5.83-2.54-5.83-6.59s2.21-6.57,5.83-6.57c1.03,0,1.79,.09,2.69,.38l.83,.27c.14,.05,.2,.14,.14,.29l-.65,2.03c-.06,.14-.14,.2-.29,.14l-.85-.27c-.52-.16-1.04-.23-1.88-.23-1.8,0-2.9,1.46-2.9,3.96s1.1,4,2.9,4c.67,0,1.21-.05,1.86-.27l.85-.25c.15-.05,.25,0,.29,.15l.72,1.96c.05,.15,.02,.23-.14,.29l-.87,.29Z"/>
        <path class="cls-1" d="M166.21,34.04l-.54,1.51c-.05,.13-.14,.18-.27,.18h-2.54c-.18,0-.25-.11-.2-.27l2.54-6.88c.67-1.83,1.26-3.6,1.71-5.42,.04-.13,.13-.2,.27-.2h3.35c.14,0,.24,.07,.27,.2,.45,1.82,1.04,3.59,1.71,5.42l2.54,6.88c.06,.16-.02,.27-.2,.27h-2.54c-.13,0-.22-.05-.27-.18l-.54-1.51h-5.3Zm4.13-3.26c-.52-1.42-1.1-3.12-1.32-4.29-.05-.22-.27-.22-.32,0-.24,1.17-.79,2.85-1.32,4.29l-.25,.72h3.46l-.25-.72Z"/>
      </g>
    </g>
  </g>
</svg>