<?xml version="1.0" encoding="utf-8"?>
<!-- Generator: Adobe Illustrator 26.5.0, SVG Export Plug-In . SVG Version: 6.00 Build 0)  -->
<svg version="1.1" id="Capa_1" xmlns="http://www.w3.org/2000/svg" xmlns:xlink="http://www.w3.org/1999/xlink" x="0px" y="0px"
	 viewBox="0 0 33 32" style="enable-background:new 0 0 33 32;" xml:space="preserve">
<style type="text/css">
	.st0{fill:#FFFFFF;}
</style>
<path class="st0" d="M26,19.7c-0.4,0.4-0.6,1-0.5,1.6l1.4,7.9c0.1,0.7-0.2,1.3-0.7,1.7c-0.5,0.4-1.3,0.4-1.9,0.1l-7.1-3.7
	c-0.2-0.1-0.5-0.2-0.8-0.2H16c-0.2,0-0.3,0.1-0.4,0.1l-7.1,3.7c-0.4,0.2-0.7,0.2-1.1,0.2c-0.9-0.2-1.6-1.1-1.4-2l1.4-7.9
	c0.1-0.6-0.1-1.2-0.5-1.6L1,14c-0.5-0.5-0.7-1.2-0.4-1.8C0.8,11.6,1.4,11.1,2,11l8-1.2c0.6-0.1,1.1-0.4,1.4-1l3.5-7.2
	c0.1-0.2,0.2-0.3,0.3-0.4l0.1-0.1c0.1,0,0.2-0.1,0.3-0.1l0.2-0.1L16,0.8h0.7c0.6,0.1,1.1,0.4,1.4,1L21.7,9c0.3,0.5,0.8,0.9,1.3,1
	l8,1.2c0.7,0.1,1.2,0.6,1.5,1.2c0.2,0.6,0,1.3-0.5,1.8L26,19.7z"/>
</svg>
